<svg width="60" height="60" viewBox="0 0 60 60" fill="none" xmlns="http://www.w3.org/2000/svg">
<path fill-rule="evenodd" clip-rule="evenodd" d="M44 16C44 23.732 37.732 30 30 30C22.268 30 16 23.732 16 16C16 8.268 22.268 2 30 2C37.732 2 44 8.268 44 16Z" stroke="#333333" stroke-width="3" stroke-linecap="round" stroke-linejoin="round"/>
<path d="M33.836 11.788C33.412 10.516 32.212 9.59998 30.8 9.59998H29.2C27.434 9.59998 26 11.032 26 12.8C26 14.568 27.434 16 29.2 16H30.8C32.566 16 34 17.432 34 19.2C34 20.968 32.566 22.4 30.8 22.4H29.2C27.748 22.4 26.522 21.432 26.13 20.106" stroke="#BB6BD9" stroke-width="3" stroke-linecap="round" stroke-linejoin="round"/>
<path d="M29.9998 23L29.9998 25" stroke="#BB6BD9" stroke-width="3" stroke-linecap="round" stroke-linejoin="round"/>
<path d="M29.9998 7.03982L29.9998 9.03982" stroke="#BB6BD9" stroke-width="3" stroke-linecap="round" stroke-linejoin="round"/>
<path d="M23.488 48H30C32.208 48 34 46.208 34 44C34 41.792 32.208 40 30 40H20C20 40 14 36 10 36C6 36 2 40 2 40V58H34L58 44C58 41.146 55.096 39.21 52.46 40.308L34 48H18" stroke="#333333" stroke-width="3" stroke-linecap="round" stroke-linejoin="round"/>
</svg>
