<svg width="62" height="62" viewBox="0 0 62 62" fill="none" xmlns="http://www.w3.org/2000/svg">
<path d="M56.708 23.5674C57.546 26.2294 58 29.0614 58 31.9994C58 47.4634 45.464 59.9994 30 59.9994C14.536 59.9994 2 47.4634 2 31.9994C2 16.5354 14.536 3.99939 30 3.99939C32.744 3.99939 35.394 4.39539 37.898 5.12939" stroke="#333333" stroke-width="3" stroke-linecap="round" stroke-linejoin="round"/>
<path d="M41.802 29.8184C41.932 30.5264 42 31.2544 42 32.0004C42 38.6264 36.628 44.0004 30 44.0004C23.374 44.0004 18 38.6264 18 32.0004C18 25.3724 23.374 20.0004 30 20.0004C30.668 20.0004 31.322 20.0544 31.96 20.1584" stroke="#333333" stroke-width="3" stroke-linecap="round" stroke-linejoin="round"/>
<path d="M30 32L58 4" stroke="#BB6BD9" stroke-width="3" stroke-linecap="round" stroke-linejoin="round"/>
<path fill-rule="evenodd" clip-rule="evenodd" d="M52 10V2L44 10V18H52L60 10H52Z" stroke="#BB6BD9" stroke-width="3" stroke-linecap="round" stroke-linejoin="round"/>
</svg>
