<svg width="59" height="60" viewBox="0 0 59 60" fill="none" xmlns="http://www.w3.org/2000/svg">
<path fill-rule="evenodd" clip-rule="evenodd" d="M41.5 10C41.5 14.418 45.082 18 49.5 18C53.918 18 57.5 14.418 57.5 10C57.5 5.582 53.918 2 49.5 2C45.082 2 41.5 5.582 41.5 10Z" stroke="#333333" stroke-width="3" stroke-linecap="round" stroke-linejoin="round"/>
<path fill-rule="evenodd" clip-rule="evenodd" d="M41.5 50C41.5 54.418 45.082 58 49.5 58C53.918 58 57.5 54.418 57.5 50C57.5 45.582 53.918 42 49.5 42C45.082 42 41.5 45.582 41.5 50Z" stroke="#333333" stroke-width="3" stroke-linecap="round" stroke-linejoin="round"/>
<path fill-rule="evenodd" clip-rule="evenodd" d="M1.5 30C1.5 36.076 6.426 41 12.5 41C18.574 41 23.5 36.076 23.5 30C23.5 23.924 18.574 19 12.5 19C6.426 19 1.5 23.924 1.5 30Z" stroke="#333333" stroke-width="3" stroke-linecap="round" stroke-linejoin="round"/>
<path d="M7.5 30C7.5 27.244 9.744 25 12.5 25" stroke="#BB6BD9" stroke-width="3" stroke-linecap="round" stroke-linejoin="round"/>
<path d="M22.5 35L42.508 46.116" stroke="#333333" stroke-width="3" stroke-linecap="round" stroke-linejoin="round"/>
<path d="M42.508 13.8848L22.5 25.0008" stroke="#333333" stroke-width="3" stroke-linecap="round" stroke-linejoin="round"/>
</svg>
