<svg width="58" height="59" viewBox="0 0 58 59" fill="none" xmlns="http://www.w3.org/2000/svg">
<path fill-rule="evenodd" clip-rule="evenodd" d="M19.3074 25.2124L19.7901 27.1434C21.1747 32.6797 25.4963 36.9995 31.0307 38.384L32.9617 38.8668L44.9225 26.9059C51.3104 20.5181 55.2574 12.093 56.0743 3.09435L56.1747 1.99945L55.0798 2.09986C46.0812 2.91862 37.6561 6.86373 31.2663 13.2535L19.3074 25.2124Z" stroke="#333333" stroke-width="3" stroke-linecap="round" stroke-linejoin="round"/>
<path d="M40.9937 6.17645C41.5324 8.10749 42.7509 10.4247 45.2516 12.9235C47.6692 15.3431 49.917 16.5616 51.8132 17.1273" stroke="#333333" stroke-width="3" stroke-linecap="round" stroke-linejoin="round"/>
<path d="M28.3006 29.8741L14.4126 43.7621" stroke="#333333" stroke-width="3" stroke-linecap="round" stroke-linejoin="round"/>
<path fill-rule="evenodd" clip-rule="evenodd" d="M27.3982 17.1216L21.7364 16.4399C17.6175 15.9436 13.4986 17.3668 10.5635 20.302L1.55713 29.3103C1.55713 29.3103 12.481 26.5778 19.3072 25.2126L27.3982 17.1216Z" stroke="#333333" stroke-width="3" stroke-linecap="round" stroke-linejoin="round"/>
<path fill-rule="evenodd" clip-rule="evenodd" d="M41.0522 30.7765L41.7358 36.4383C42.2302 40.5572 40.807 44.6761 37.8738 47.6112L28.8655 56.6176C28.8655 56.6176 31.5979 45.6937 32.9631 38.8675L41.0522 30.7765Z" stroke="#333333" stroke-width="3" stroke-linecap="round" stroke-linejoin="round"/>
<path fill-rule="evenodd" clip-rule="evenodd" d="M39.7888 23.8472C38.2826 25.3553 35.836 25.3553 34.3279 23.8472C32.8197 22.3391 32.8197 19.8944 34.3279 18.3843C35.836 16.8781 38.2826 16.8781 39.7888 18.3843C41.297 19.8944 41.297 22.3391 39.7888 23.8472Z" stroke="#333333" stroke-width="3" stroke-linecap="round" stroke-linejoin="round"/>
<path d="M26.6034 43.1575C26.6034 43.1575 20.8103 56.6747 1.5 56.6747C1.5 37.3644 15.0172 31.5713 15.0172 31.5713" stroke="#BB6BD9" stroke-width="3" stroke-linecap="round" stroke-linejoin="round"/>
</svg>
