<svg width="555" height="455" viewBox="0 0 555 455" fill="none" xmlns="http://www.w3.org/2000/svg">
<path fill-rule="evenodd" clip-rule="evenodd" d="M149.293 0.240896C124.378 1.57775 99.2032 8.88153 79.7643 24.5814C62.7084 38.3629 50.4081 60.0297 53.4087 81.7998C56.951 107.499 79.8022 126.193 88.2786 150.707C93.7328 166.467 92.8824 183.857 89.3131 200.16C87.0166 210.665 83.4852 221.18 76.6987 229.506C64.4741 244.483 42.4137 251.71 36.4071 270.106C29.8751 290.11 46.3351 309.728 61.7985 323.955C74.1422 335.307 87.0708 346.605 102.626 352.828C114 357.382 126.344 359.017 138.579 359.669C172.366 361.448 206.145 356.033 237.697 343.779C252.814 337.894 267.438 330.433 283.259 326.884C316.975 319.319 351.666 330.226 385.837 335.334C415.129 339.7 444.897 339.788 474.214 335.595C492.662 332.954 511.722 328.188 525.615 315.733C539.697 303.087 546.738 283.512 545.958 264.546C545.178 245.581 537.206 227.321 525.463 212.431C510.298 193.199 489.38 179.515 471.181 163.125C452.651 146.427 436.887 126.876 424.482 105.206C417.333 92.7065 411.25 79.4413 401.989 68.4367C387.543 51.2858 366.593 41.0855 345.659 33.2057C297.368 15.055 247.278 11.3596 196.929 3.33848C181.195 0.822373 165.233 -0.595995 149.293 0.240896Z" fill="#00C3FF"/>
<path fill-rule="evenodd" clip-rule="evenodd" d="M95.3282 455C147.977 455 190.656 447.613 190.656 438.5C190.656 429.387 147.977 422 95.3282 422C42.6799 422 0 429.387 0 438.5C0 447.613 42.6799 455 95.3282 455Z" fill="#00C3FF"/>
<path fill-rule="evenodd" clip-rule="evenodd" d="M459.672 452C512.32 452 555 444.613 555 435.5C555 426.387 512.32 419 459.672 419C407.024 419 364.344 426.387 364.344 435.5C364.344 444.613 407.024 452 459.672 452Z" fill="#00C3FF"/>
<g opacity="0.7">
<path d="M140.043 199.035H243.599V256.902H140.043V199.035Z" fill="#F6F7F9"/>
<g opacity="0.2">
<path d="M159.539 235.504C165.493 235.504 170.319 230.677 170.319 224.723C170.319 218.769 165.493 213.942 159.539 213.942C153.585 213.942 148.758 218.769 148.758 224.723C148.758 230.677 153.585 235.504 159.539 235.504Z" fill="#6C63FF"/>
</g>
<g opacity="0.2">
<path d="M183.465 211.947H230.438V214.902H183.465V211.947Z" fill="#6C63FF"/>
</g>
<g opacity="0.2">
<path d="M183.465 219.479H207.396V222.434H183.465V219.479Z" fill="#6C63FF"/>
</g>
<g opacity="0.2">
<path d="M183.465 227.011H222.168V229.967H183.465V227.011Z" fill="#6C63FF"/>
</g>
<g opacity="0.2">
<path d="M183.465 234.544H230.438V237.499H183.465V234.544Z" fill="#6C63FF"/>
</g>
<g opacity="0.2">
<path d="M217.445 245.417H230.444V251.127H217.445V245.417Z" fill="#6C63FF"/>
</g>
<path d="M227.227 39.1084H330.783V96.976H227.227V39.1084Z" fill="#F6F7F9"/>
<g opacity="0.2">
<path d="M246.73 75.5775C252.684 75.5775 257.511 70.7508 257.511 64.7968C257.511 58.8428 252.684 54.0161 246.73 54.0161C240.776 54.0161 235.949 58.8428 235.949 64.7968C235.949 70.7508 240.776 75.5775 246.73 75.5775Z" fill="#6C63FF"/>
</g>
<g opacity="0.2">
<path d="M270.652 52.0205H317.626V54.976H270.652V52.0205Z" fill="#6C63FF"/>
</g>
<g opacity="0.2">
<path d="M270.652 59.5527H294.584V62.5082H270.652V59.5527Z" fill="#6C63FF"/>
</g>
<g opacity="0.2">
<path d="M270.652 67.085H309.356V70.0404H270.652V67.085Z" fill="#6C63FF"/>
</g>
<g opacity="0.2">
<path d="M270.652 74.623H317.626V77.5785H270.652V74.623Z" fill="#6C63FF"/>
</g>
<g opacity="0.2">
<path d="M304.629 85.4902H317.628V91.2005H304.629V85.4902Z" fill="#6C63FF"/>
</g>
<rect x="261.695" y="136.265" width="103.556" height="57.8676" fill="#F6F7F9"/>
<g opacity="0.2">
<path d="M281.191 172.739C287.145 172.739 291.972 167.912 291.972 161.958C291.972 156.004 287.145 151.178 281.191 151.178C275.237 151.178 270.41 156.004 270.41 161.958C270.41 167.912 275.237 172.739 281.191 172.739Z" fill="#6C63FF"/>
</g>
<g opacity="0.2">
<path d="M305.121 149.182H352.094V152.138H305.121V149.182Z" fill="#6C63FF"/>
</g>
<g opacity="0.2">
<path d="M305.121 156.714H329.052V159.67H305.121V156.714Z" fill="#6C63FF"/>
</g>
<g opacity="0.2">
<path d="M305.121 164.247H343.824V167.203H305.121V164.247Z" fill="#6C63FF"/>
</g>
<g opacity="0.2">
<path d="M305.121 171.779H352.094V174.735H305.121V171.779Z" fill="#6C63FF"/>
</g>
<g opacity="0.2">
<path d="M339.098 182.652H352.096V188.363H339.098V182.652Z" fill="#6C63FF"/>
</g>
</g>
<path d="M103.812 73H277.5V172H103.812V73Z" fill="url(#paint0_linear)"/>
<path d="M104.812 75H276.503V171H104.812V75Z" fill="#F6F7F9"/>
<g opacity="0.2">
<path d="M137.885 134.715C147.648 134.715 155.563 126.786 155.563 117.005C155.563 107.224 147.648 99.2954 137.885 99.2954C128.122 99.2954 120.207 107.224 120.207 117.005C120.207 126.786 128.122 134.715 137.885 134.715Z" fill="#6C63FF"/>
</g>
<g opacity="0.2">
<path d="M177.176 96.2202H254.294V100.735H177.176V96.2202Z" fill="#6C63FF"/>
</g>
<g opacity="0.2">
<path d="M177.172 109.24H216.12V113.755H177.172V109.24Z" fill="#6C63FF"/>
</g>
<g opacity="0.2">
<path d="M177.18 121.255H241.16V125.77H177.18V121.255Z" fill="#6C63FF"/>
</g>
<g opacity="0.2">
<path d="M177.176 134.27H254.294V138.785H177.176V134.27Z" fill="#6C63FF"/>
</g>
<path fill-rule="evenodd" clip-rule="evenodd" d="M233.578 152H255.539V161H233.578V152Z" fill="#00C3FF"/>
<path d="M226.59 206H392.291V299H226.59V206Z" fill="url(#paint1_linear)"/>
<path d="M226.59 207H389.297V298H226.59V207Z" fill="#F6F7F9"/>
<g opacity="0.2">
<path d="M258.002 265.497C267.457 265.497 275.121 257.818 275.121 248.347C275.121 238.875 267.457 231.197 258.002 231.197C248.547 231.197 240.883 238.875 240.883 248.347C240.883 257.818 248.547 265.497 258.002 265.497Z" fill="#6C63FF"/>
</g>
<g opacity="0.2">
<path d="M295.762 228.275H369.884V232.57H295.762V228.275Z" fill="#6C63FF"/>
</g>
<g opacity="0.2">
<path d="M295.766 239.235H333.928V243.53H295.766V239.235Z" fill="#6C63FF"/>
</g>
<g opacity="0.2">
<path d="M295.758 251.211H355.884V255.983H295.758V251.211Z" fill="#6C63FF"/>
</g>
<g opacity="0.2">
<path d="M295.762 264.161H369.884V268.933H295.762V264.161Z" fill="#6C63FF"/>
</g>
<path fill-rule="evenodd" clip-rule="evenodd" d="M349.562 281.505H369.885V290.733H349.562V281.505Z" fill="#00C3FF"/>
<g opacity="0.1">
<path d="M45.3477 156.46L45.717 156.54C45.6091 156.466 45.4765 156.437 45.3477 156.46Z" fill="url(#paint2_linear)"/>
</g>
<path fill-rule="evenodd" clip-rule="evenodd" d="M127.761 219.511C126.566 211.446 119.278 192.631 119.278 192.631C119.148 192.087 119.007 191.511 118.845 190.957C113.671 173.082 106.512 171.5 106.512 171.5L80.8681 166.006C81.0798 166.139 81.2635 166.313 81.4088 166.517L81.0033 166.582C79.8264 165.187 79.049 163.496 78.7541 161.691C78.7054 161.424 78.6622 161.147 78.6297 160.865C82.3585 157.214 84.3363 152.123 84.0544 146.898C83.7726 141.674 81.2587 136.827 77.1591 133.604C76.8942 133.392 76.6184 133.191 76.3373 132.99C77.5484 131.702 77.5862 129.903 76.6833 128.098C74.6612 123.875 70.2709 121.207 65.7508 119.908C62.3013 118.914 58.5598 118.593 55.1428 119.68C53.6456 120.155 52.2534 120.883 50.8612 121.611L50.8612 121.611L50.8611 121.611C50.4384 121.832 50.0157 122.053 49.59 122.267C48.8886 122.619 48.1725 122.957 47.4551 123.295L47.455 123.295C44.6884 124.598 41.9015 125.911 39.8578 128.142C39.2577 128.799 38.7116 129.636 38.8846 130.5C38.9756 130.936 39.2333 131.302 39.4926 131.671C39.6185 131.85 39.7447 132.03 39.8524 132.218C40.5823 133.5 40.3931 135.115 39.9011 136.511C39.7054 137.067 39.4695 137.61 39.2342 138.152C38.878 138.973 38.5232 139.791 38.3115 140.642C37.9601 142.055 38.1006 143.761 39.1712 144.783C39.6913 145.192 40.2327 145.573 40.7932 145.924C41.3806 146.424 41.8957 147.004 42.3233 147.647L45.3619 151.772C46.7803 153.601 48.0462 155.544 49.1467 157.582C49.3575 158.001 49.5556 158.429 49.7537 158.857L49.7538 158.857C50.2621 159.955 50.7712 161.055 51.4986 162.017C51.7961 162.414 52.135 162.779 52.5097 163.104C52.4915 163.097 52.4732 163.09 52.4548 163.083C52.4371 163.076 52.4192 163.07 52.4013 163.063L52.4012 163.063C52.3379 163.04 52.274 163.017 52.2123 162.99C53.1171 163.876 54.345 164.35 55.6077 164.299H55.7591C55.9909 164.296 56.2128 164.204 56.3809 164.044V164.587C56.435 166.571 56.4296 168.68 56.289 170.658L56.0511 170.538C55.3318 170.175 54.4681 170.267 53.8397 170.772L30.2176 189.794C30.2176 189.794 25.0866 196.859 25.8003 209.033L21.6641 227.305C21.6641 227.305 16.4898 242.81 20.4692 253.881C24.4486 264.951 26.7573 271.272 26.7573 271.272C26.7573 271.272 28.3468 283.848 30.7366 284.859C33.1264 285.87 34.1591 286.446 34.1591 286.446L34.6349 289.451C34.6349 289.451 34.7917 289.739 35.0729 290.239C36.8138 293.277 43.2533 304.006 47.0002 302.864C47.4682 305.776 47.6727 308.725 47.6111 311.674L51.3094 336.674C51.3094 336.674 53.8938 343.473 53.737 347.033C53.5802 350.593 56.7594 355.658 56.7594 355.658C54.8293 359.206 54.2636 363.343 55.1698 367.283C56.6837 373.929 58.5923 404.614 58.5923 404.614L61.3768 412.049L61.2957 420.745C61.0651 422.157 60.4767 423.486 59.5871 424.603C58.9879 425.256 58.602 425.943 58.1949 426.668C57.3823 428.115 56.4853 429.711 53.6397 431.489C52.9878 431.896 52.3711 432.265 51.7942 432.61L51.7912 432.612C48.5897 434.525 46.6109 435.707 46.6109 438.723C46.6059 439.215 46.5626 439.705 46.4811 440.19C46.4561 440.353 46.4296 440.512 46.4038 440.665C46.0183 442.967 45.8045 444.243 53.2396 444.957C62.55 445.842 68.757 439.734 68.757 439.734C68.757 439.734 70.1249 437.239 76.5752 436.234C76.5752 436.234 78.7757 436.114 78.9001 434.152C78.9433 433.478 78.9325 432.185 78.873 430.761C78.7703 428.044 78.5108 424.88 78.1702 424.723C77.743 424.533 76.9861 421.799 76.7266 420.81H78.5216C78.5216 420.81 80.1923 408.234 78.5216 400.082C76.8509 391.929 78.3648 386.163 78.3648 386.163L78.0458 364.652C78.0458 364.652 75.7912 362.353 77.5592 358.169C79.3272 353.984 77.5592 333.256 77.5592 333.256C77.5592 333.256 78.2026 325.821 80.0301 324.082C81.8576 322.343 80.122 313.185 80.0301 312.707L83.2741 323.685C83.2741 323.685 84.7069 345.516 87.7347 349.473L88.6106 359.353C88.6106 359.353 94.8176 368.451 93.6227 373.359C92.4278 378.266 94.8987 395.978 94.8987 395.978V414.092C94.8987 414.092 92.1088 421.37 96.0125 423.978L97.694 423.913C97.3941 424.197 97.1387 424.54 96.8719 424.897C96.6287 425.223 96.3762 425.562 96.072 425.88C95.3258 426.652 94.9041 429.587 94.6662 432.109C94.4661 434.245 94.4013 436.082 94.4013 436.082C94.4013 436.082 96.0719 438.75 99.1754 438.929C102.279 439.109 112.546 447 112.546 447C112.546 447 122.7 447 125.323 446.457L125.479 446.418C126.322 446.149 127.03 445.565 127.458 444.788C127.987 443.888 128.159 442.821 127.939 441.799C127.61 440.239 126.382 438.538 123.652 437.076C116.845 433.462 115.834 430.082 115.834 430.082L111.373 423.364H112.011C112.011 423.364 111.616 416.245 116.466 408.255L116.153 373.06C116.153 373.06 118.137 360.957 114.72 354.391C114.72 354.391 114.439 347.429 116.726 345.294C119.013 343.158 113.682 321.565 113.682 321.565C113.682 321.565 112.6 309.978 111.281 299.402C116.65 304.522 122.224 286.082 123.176 282.805H123.317C123.317 282.805 123.29 282.718 123.252 282.565C123.214 282.413 123.317 282.332 123.317 282.332C123.317 282.329 123.306 282.288 123.287 282.216C123.108 281.54 122.21 278.148 122.998 278.93C123.868 279.794 126.025 276.56 126.025 276.56C126.025 276.56 125.706 258.919 129.448 250.027C133.189 241.136 127.761 219.511 127.761 219.511ZM111.762 230.734L111.789 230.685C112.33 241.457 111.681 264.44 111.681 264.44C111.681 264.44 110.946 267.386 110.157 270.854L109.589 249.017L109.048 228.451L111.762 230.734ZM43.2425 262.223C45.9459 257.321 43.2425 223.31 43.2425 223.31C41.3339 222.044 39.7389 228.685 39.7389 228.685C39.7389 228.685 41.0095 230.424 39.1009 234.5C37.2892 238.369 37.4116 243.345 37.4287 244.04C37.4296 244.078 37.4302 244.103 37.4302 244.114C37.4302 244.149 37.4889 244.402 37.5858 244.818C38.1374 247.188 39.927 254.879 39.182 258.114C38.5061 261.049 40.3985 266.587 41.2906 268.946C41.8259 266.104 42.4693 263.62 43.2425 262.223Z" fill="url(#paint3_linear)"/>
<path d="M50.4707 299.563C48.079 309.777 38.5452 294.328 36.3734 290.623L35.9336 289.856L36.9672 285.159L42.4324 283C43.2957 283.438 44.1133 283.955 44.8736 284.546C47.8811 286.806 52.3181 291.652 50.4707 299.563Z" fill="#EFB7B9"/>
<path d="M122.778 282.601L122.72 282.829C122.72 282.898 122.673 282.977 122.647 283.078C121.756 286.257 116.457 304.09 111.343 299.136C105.746 293.701 108.465 281.219 108.465 281.219H108.518L120.294 280L122.626 282.426V282.426L122.778 282.601Z" fill="#EFB7B9"/>
<path d="M116.653 372.38L116.963 407.356C112.176 415.301 112.563 422.374 112.563 422.374L96.7881 423C92.937 420.41 95.7002 413.179 95.7002 413.179V395.174C95.7002 395.174 93.2362 377.577 94.4111 372.679C95.586 367.782 89.4612 358.766 89.4612 358.766L88.6017 348.945C85.61 345.016 84.1958 323.317 84.1958 323.317L80.9811 312.434C81.0627 312.907 82.7326 322.054 80.9811 323.735C79.2296 325.417 78.5442 332.855 78.5442 332.855C78.5442 332.855 80.2739 353.45 78.5442 357.613C76.8144 361.775 79.012 364.142 79.012 364.142L79.3329 385.521C79.3329 385.521 77.8371 391.261 79.4852 399.358C81.1334 407.454 79.4852 419.953 79.4852 419.953H62.5141L62.5903 411.247L59.8433 403.858C59.8433 403.858 57.9559 373.36 56.4654 366.759C55.5696 362.844 56.1264 358.737 58.032 355.202C58.032 355.202 54.8934 350.169 55.0512 346.632C55.2089 343.095 52.6524 336.337 52.6524 336.337L48.9971 311.498C49.1 306.719 48.4914 301.951 47.1912 297.351C45.0643 290.277 41.9258 281 41.9258 281L45.4723 281.316L63.379 282.91C63.379 282.91 106.895 279.982 108.858 282.415C109.272 283.209 109.551 284.065 109.685 284.95C111.638 293.738 114.222 321.249 114.222 321.249C114.222 321.249 119.487 342.709 117.224 344.831C114.961 346.953 115.244 353.869 115.244 353.869C118.617 360.355 116.653 372.38 116.653 372.38Z" fill="#444053"/>
<path d="M79.8318 433.328C79.7078 435.245 77.5527 435.363 77.5527 435.363C71.249 436.348 69.9128 438.79 69.9128 438.79C69.9128 438.79 63.8407 444.759 54.7461 443.919C46.993 443.18 47.7419 441.777 48.1406 439.261C48.22 438.786 48.2614 438.307 48.2645 437.826C48.2645 434.346 50.9584 433.355 55.1555 430.748C59.3527 428.14 59.2395 425.929 60.9906 424.017C62.7416 422.106 62.9194 418.396 62.9194 418.396C64.9021 414.969 69.9236 418.931 69.9236 418.931C70.1552 420.146 77.6281 420.002 77.6281 420.002C77.6281 420.002 78.6195 423.948 79.126 424.178C79.46 424.333 79.7132 427.428 79.8156 430.068C79.8641 431.406 79.8695 432.675 79.8318 433.328Z" fill="#B07473"/>
<path opacity="0.1" d="M79.8326 433.33C79.7087 435.246 77.5535 435.364 77.5535 435.364C71.2496 436.349 69.9134 438.79 69.9134 438.79C69.9134 438.79 63.8411 444.759 54.7462 443.919C46.993 443.18 47.7419 441.778 48.1406 439.261C51.6051 440.118 58.2323 441.306 62.1008 439.219C67.4888 436.317 71.3304 434.288 71.3304 434.288L79.8057 430C79.8649 431.408 79.8703 432.677 79.8326 433.33Z" fill="black"/>
<path d="M127.21 443.797C126.796 444.569 126.1 445.151 125.268 445.421C125.219 445.438 125.168 445.451 125.117 445.459C122.543 446 112.603 446 112.603 446C112.603 446 102.528 438.172 99.5066 437.993C96.4847 437.814 94.8281 435.178 94.8281 435.178C94.8281 435.178 94.8875 433.359 95.0817 431.247C95.3192 428.752 95.7347 425.834 96.4632 425.086C97.8122 423.679 98.082 421.746 101.142 422.975C101.142 422.975 105.459 415.336 110.553 421.237L115.819 429.255C115.819 429.255 116.812 432.595 123.482 436.174C126.153 437.609 127.356 439.298 127.674 440.841C127.893 441.85 127.728 442.904 127.21 443.797Z" fill="#B07473"/>
<path opacity="0.1" d="M127.209 443.76C126.615 444.272 125.951 444.822 125.266 445.411C125.217 445.429 125.167 445.442 125.115 445.45C122.541 446 112.602 446 112.602 446C112.602 446 102.528 438.04 99.5063 437.859C96.4847 437.677 94.8281 434.996 94.8281 434.996C94.8281 434.996 94.8875 433.147 95.0817 431C98.1736 431.947 102.868 433.615 104.125 435.404C106.052 438.156 111.906 441.96 111.906 441.96C111.906 441.96 122.822 440.892 127.673 440.743C127.895 441.772 127.729 442.849 127.209 443.76Z" fill="black"/>
<path d="M84.8463 170.565L70.547 186C70.547 186 53.2281 184.696 56.2531 179.469C57.7925 176.812 58.0338 171.25 57.8997 166.396C57.771 161.722 57.299 157.744 57.299 157.744C57.299 157.744 81.5906 145.394 79.7294 156.911C79.3344 159.082 79.3108 161.307 79.6597 163.486C80.7163 169.305 84.8463 170.565 84.8463 170.565Z" fill="#EFB7B9"/>
<path opacity="0.1" d="M79.7534 156.939C79.3509 159.122 79.3269 161.359 79.6824 163.551C76.2634 167.043 71.5973 169.006 66.7301 169C63.3636 169 59.7621 166.245 57.0569 164.62C56.9258 159.92 56.8984 157.776 56.8984 157.776C56.8984 157.776 81.6498 145.357 79.7534 156.939Z" fill="black"/>
<path d="M84.8454 148.993C84.8482 157.392 79.0526 164.676 70.8795 166.546C62.7064 168.417 54.3284 164.376 50.6908 156.809C47.0531 149.242 49.1228 140.161 55.6781 134.925C62.2335 129.69 71.5319 129.692 78.0849 134.93C82.3556 138.344 84.8436 143.52 84.8454 148.993Z" fill="#EFB7B9"/>
<path opacity="0.1" d="M109.801 284.672C105.291 295.544 76.2768 295.769 76.2768 295.769V283.919L74.5183 283.803C75.2782 287.195 73.4329 295.472 73.4329 295.472C50.5026 298.77 44.918 285.529 44.918 285.529L45.7104 281L63.5769 282.61C63.5769 282.61 106.995 279.653 108.954 282.11C109.374 282.911 109.66 283.776 109.801 284.672V284.672Z" fill="black"/>
<path d="M76.4671 294.778V283.087L74.698 282.979C75.4625 286.323 73.606 294.486 73.606 294.486C56.2479 296.914 48.762 290.149 46.1247 286.626C45.653 286.021 45.2484 285.367 44.918 284.675L51.9562 245.33L53.5943 187.426L56.1333 177.269L56.723 172.39V172.336L56.783 172.363L58.574 173.128L69.3197 177.735L81.5888 168.591L81.769 168.455L82.3751 168L83.3853 168.808L85.8915 170.802L93.9399 222.37C93.9399 222.37 107.896 262.078 110.484 278.106C110.588 278.745 110.675 279.342 110.741 279.9C112.439 294.507 76.4671 294.778 76.4671 294.778Z" fill="#E1E7EF"/>
<path d="M69.8732 180C70.4245 180 70.8714 179.552 70.8714 179C70.8714 178.448 70.4245 178 69.8732 178C69.3219 178 68.875 178.448 68.875 179C68.875 179.552 69.3219 180 69.8732 180Z" fill="#67647E"/>
<path d="M70.8732 189C71.4245 189 71.8714 188.552 71.8714 188C71.8714 187.448 71.4245 187 70.8732 187C70.3219 187 69.875 187.448 69.875 188C69.875 188.552 70.3219 189 70.8732 189Z" fill="#67647E"/>
<path d="M71.8693 204C72.4206 204 72.8675 203.552 72.8675 203C72.8675 202.448 72.4206 202 71.8693 202C71.318 202 70.8711 202.448 70.8711 203C70.8711 203.552 71.318 204 71.8693 204Z" fill="#67647E"/>
<path d="M72.8693 221C73.4206 221 73.8675 220.552 73.8675 220C73.8675 219.448 73.4206 219 72.8693 219C72.318 219 71.8711 219.448 71.8711 220C71.8711 220.552 72.318 221 72.8693 221Z" fill="#67647E"/>
<path d="M73.8654 236C74.4167 236 74.8636 235.552 74.8636 235C74.8636 234.448 74.4167 234 73.8654 234C73.3141 234 72.8672 234.448 72.8672 235C72.8672 235.552 73.3141 236 73.8654 236Z" fill="#67647E"/>
<path d="M75.8615 252C76.4128 252 76.8597 251.552 76.8597 251C76.8597 250.448 76.4128 250 75.8615 250C75.3102 250 74.8633 250.448 74.8633 251C74.8633 251.552 75.3102 252 75.8615 252Z" fill="#67647E"/>
<path d="M74.8654 269C75.4167 269 75.8636 268.552 75.8636 268C75.8636 267.448 75.4167 267 74.8654 267C74.3141 267 73.8672 267.448 73.8672 268C73.8672 268.552 74.3141 269 74.8654 269Z" fill="#67647E"/>
<path opacity="0.1" d="M57.2603 250.873C57.2603 250.873 56.1152 265.942 54.0194 270.321C51.9237 274.701 50.973 287 50.973 287L46.1117 286.458C45.6451 285.852 45.2448 285.198 44.918 284.507L51.8805 245.16L53.5009 187.253L56.0126 177.095L56.5959 172.217C56.6149 172.202 56.6372 172.193 56.6608 172.19C57.2134 171.928 57.8558 171.938 58.4 172.217L58.6377 172.336C58.5675 172.536 58.4972 172.742 58.4324 172.954C56.5311 178.943 55.8181 189.99 55.8181 189.99C55.8181 189.99 58.5513 210.192 58.8591 219.591C59.167 228.99 57.2603 250.873 57.2603 250.873Z" fill="black"/>
<path opacity="0.1" d="M43.9192 284.622C43.8705 284.751 43.8147 284.876 43.7522 284.997C42.0284 288.315 37.6574 290.424 36.3265 291L35.9336 290.194L36.8569 285.266L41.7386 283C42.5098 283.459 43.24 284.003 43.9192 284.622V284.622Z" fill="black"/>
<path d="M31.7867 207L27.4711 209.701L23.5279 227.943C23.5279 227.943 18.604 243.424 22.3952 254.478C26.1864 265.531 28.394 271.834 28.394 271.834C28.394 271.834 29.9095 284.408 32.18 285.419C34.4505 286.43 35.4416 286.999 35.4416 286.999L35.8925 290C35.8925 290 42.0591 287.813 44.2405 283.987C46.4219 280.16 42.6359 270.588 42.6359 270.588C42.6359 270.588 39.3796 262.454 40.2133 258.665C41.0471 254.877 38.5458 244.922 38.5458 244.687C38.5458 244.452 38.3204 239.155 40.119 235.088C41.9176 231.02 40.7272 229.287 40.7272 229.287L39.5893 217.676L31.7867 207Z" fill="#67647E"/>
<path opacity="0.1" d="M109.803 281.856C109.803 281.856 98.0221 286.297 94.2734 282.395C90.5246 278.493 90.9189 260.298 90.9189 260.298C90.9189 260.298 87.3321 226.662 85.0634 221.138C82.7947 215.614 83.9831 175.742 83.9831 175.742C83.9831 175.742 82.449 170.595 81.1364 169.232C81.0538 169.142 80.9593 169.064 80.8555 169L81.3146 169.097L82.9351 169.447L85.4145 171.431L93.3767 222.706C93.3767 222.706 107.183 262.19 109.744 278.127L109.803 281.856Z" fill="black"/>
<path opacity="0.1" d="M123.778 282.499H123.641C122.14 282.65 108.854 283.91 108.805 281.742C108.805 281.491 108.823 281.239 108.859 280.989L121.165 280L123.602 281.97V281.97C123.646 282.099 123.685 282.211 123.717 282.297L123.778 282.499Z" fill="black"/>
<path d="M111.024 190L119.589 194.507C119.589 194.507 126.694 213.144 127.86 221.139C127.86 221.139 133.133 242.547 129.471 251.35C125.808 260.153 126.136 277.635 126.136 277.635C126.136 277.635 124.041 280.846 123.187 279.983C122.334 279.121 123.499 283.352 123.499 283.352C123.499 283.352 108.876 285.315 108.806 282.408C108.736 279.501 112.162 265.637 112.162 265.637C112.162 265.637 113.091 232.649 111.77 227.48C110.449 222.311 111.024 190 111.024 190Z" fill="#67647E"/>
<path opacity="0.1" d="M85.2884 224C85.2884 224 80.1381 236.186 78.5072 236.992C76.8762 237.797 78.8391 241 78.8391 241C78.8391 241 88.184 228.331 85.2884 224Z" fill="black"/>
<path opacity="0.1" d="M82.8485 183.006C82.9056 182.776 76.7383 188.814 75.0936 189.713C73.449 190.612 81.0897 189.664 82.8485 183.006Z" fill="black"/>
<path opacity="0.1" d="M65.8801 223C65.8801 223 56.8129 228.515 58.002 230.687C59.1912 232.86 65.8801 223 65.8801 223Z" fill="black"/>
<path opacity="0.1" d="M82.8516 308C82.8516 308 90.2622 312.791 101.817 314L82.8516 308Z" fill="black"/>
<path opacity="0.1" d="M63.8867 319C63.8867 319 71.0799 327.759 74.3611 327.996C77.6423 328.232 63.8867 319 63.8867 319Z" fill="black"/>
<path opacity="0.1" d="M73.8684 355C73.5732 355.153 70.1175 362.763 66.5904 362.995C63.0634 363.227 73.8684 355 73.8684 355Z" fill="black"/>
<path opacity="0.1" d="M106.809 372.188C106.809 372.188 113.343 370.914 114.794 375C114.794 375 114.358 373.722 106.809 372.188Z" fill="black"/>
<path opacity="0.1" d="M101.816 399.853C101.816 399.853 109.902 397.439 111.623 400.734C113.344 404.028 101.816 399.853 101.816 399.853Z" fill="black"/>
<path opacity="0.1" d="M77.651 404C77.651 404.065 69.5636 405.472 69.8843 406.407C70.2049 407.343 78.506 407.208 78.8012 405.736C78.9161 405.367 78.8576 404.97 78.6397 404.641C78.4218 404.312 78.0638 404.08 77.651 404V404Z" fill="black"/>
<path opacity="0.1" d="M98.8203 411.53C98.8203 411.53 112.625 409.69 111.758 412.867C110.89 416.044 98.8203 411.53 98.8203 411.53Z" fill="black"/>
<path opacity="0.1" d="M24.9531 237C25.0376 237.209 34.6326 238.332 35.9333 241C35.9333 241 26.5016 237.209 25.0376 237.209" fill="black"/>
<path opacity="0.1" d="M38.9309 261C38.9309 261 30.3714 263.65 30.9759 267.667C31.5804 271.684 30.1115 265.792 38.9309 261Z" fill="black"/>
<path opacity="0.1" d="M34.9375 280C34.9375 280 37.7322 276.424 40.3914 277.081C43.0507 277.737 34.9375 280 34.9375 280Z" fill="black"/>
<path opacity="0.1" d="M77.8366 135.056C77.5703 135.322 77.2726 135.553 76.9507 135.742C74.7571 137.059 74.17 139.062 73.1185 141.425C72.1578 143.566 71.0957 145.852 69.1476 147.047C66.6391 148.613 63.33 148.038 60.7201 149.41C58.3542 150.695 56.9743 153.338 57.2295 156.095C57.3992 157.134 57.649 158.157 57.9768 159.155C58.5656 161.314 58.8338 163.553 58.772 165.795C58.7799 165.863 58.7799 165.932 58.772 166C52.6719 162.844 48.8435 156.356 48.911 149.289C48.9786 142.221 52.9303 135.813 59.0896 132.783C65.2488 129.753 72.5355 130.634 77.858 135.05L77.8366 135.056Z" fill="black"/>
<path d="M78.2145 129.06C76.2057 124.866 71.8433 122.216 67.3549 120.9C63.9285 119.915 60.2119 119.594 56.8128 120.677C54.8752 121.292 53.1072 122.309 51.2955 123.245C47.9073 124.947 44.1798 126.291 41.6346 129.087C41.0435 129.735 40.4961 130.572 40.6713 131.432C40.8026 132.074 41.3062 132.564 41.6292 133.135C42.3571 134.408 42.1765 136.013 41.6784 137.4C41.1803 138.787 40.4523 140.082 40.102 141.507C39.7517 142.932 39.8886 144.602 40.9504 145.62C41.4635 146.024 41.9969 146.401 42.5487 146.751C43.1288 147.253 43.6387 147.829 44.0649 148.465L47.0808 152.561C48.4993 154.379 49.7626 156.312 50.8576 158.339C51.613 159.824 52.1931 161.412 53.1948 162.74C54.1965 164.067 55.7674 165.133 57.4314 164.986C57.6923 164.995 57.9412 164.878 58.0991 164.671C58.1645 164.541 58.1947 164.397 58.1867 164.252C58.2548 162.047 57.9797 159.845 57.3711 157.724C57.0351 156.743 56.7788 155.737 56.6048 154.716C56.3446 152.006 57.7593 149.409 60.1846 148.144C62.8666 146.8 66.2602 147.366 68.8328 145.826C70.8307 144.624 71.9199 142.399 72.9051 140.294C73.9999 137.993 74.5855 136.002 76.8352 134.707C79.0848 133.412 79.3256 131.263 78.2145 129.06Z" fill="#585268"/>
<path opacity="0.1" d="M69.875 426C69.875 426 73.685 429.611 72.71 431.655C71.735 433.699 69.875 426 69.875 426Z" fill="black"/>
<path opacity="0.1" d="M106.809 435C106.809 435 107.435 430.109 109.958 430.064C112.481 430.02 112.603 429.801 114.527 430.547C116.451 431.293 118.253 432.459 117.681 432.639C117.11 432.818 114.355 429.834 111.582 431.354C109.821 432.323 108.212 433.552 106.809 435Z" fill="black"/>
<path opacity="0.1" d="M61.1502 184L68.8754 178.708C68.8754 178.708 57.5317 172.168 56.1808 173.089C54.83 174.01 53.9023 182.264 53.9023 182.264L61.1502 184Z" fill="black"/>
<path d="M61.1176 184L68.8754 178.156C68.8754 178.156 57.5317 171.107 56.1808 172.095C54.83 173.082 53.9023 182.488 53.9023 182.488L61.1176 184Z" fill="#E1E7EF"/>
<path opacity="0.03" d="M61.1176 184L68.8754 178.156C68.8754 178.156 57.5317 171.107 56.1808 172.095C54.83 173.082 53.9023 182.488 53.9023 182.488L61.1176 184Z" fill="black"/>
<path d="M57.6357 172.338L57.4054 172.218C56.7098 171.859 55.8703 171.948 55.2635 172.446L32.3017 191.302C32.3017 191.302 27.3109 198.288 28.0178 210.347L41.555 229.766C41.555 229.766 43.1025 223.187 44.9607 224.439C44.9607 224.439 47.5899 258.107 44.9607 262.963C42.3314 267.819 41.1694 285.981 41.1694 285.981L50.0639 287C50.0639 287 50.9903 274.708 53.0787 270.323C55.1671 265.938 56.2916 250.871 56.2916 250.871C56.2916 250.871 58.1712 228.981 57.8606 219.577C57.55 210.174 54.8458 189.985 54.8458 189.985C54.8458 189.985 55.6008 178.148 57.6357 172.338Z" fill="#67647E"/>
<path opacity="0.1" d="M80.9308 181L71.8711 177.371C71.8711 177.371 83.4132 163.712 84.8477 171.289L80.9308 181Z" fill="black"/>
<path d="M80.9308 180L71.8711 176.376C71.8711 176.376 83.4132 162.711 84.8477 170.289L80.9308 180Z" fill="#E1E7EF"/>
<path opacity="0.03" d="M80.9308 180L71.8711 176.376C71.8711 176.376 83.4132 162.711 84.8477 170.289L80.9308 180Z" fill="black"/>
<path opacity="0.1" d="M80.8555 169.016C81.1086 168.97 81.3696 169.024 81.5842 169.166L80.8555 169.016Z" fill="black"/>
<path d="M81.8516 168.01L107.422 173.55C107.422 173.55 114.453 175.12 119.531 192.85C124.61 210.58 112.576 232.313 112.576 232.313L109.921 230.048L111.251 281.842C111.251 281.842 99.4502 286.312 95.7022 282.385C91.9543 278.458 92.3383 260.114 92.3383 260.114C92.3383 260.114 88.7471 226.202 86.4757 220.618C84.2042 215.034 85.394 174.865 85.394 174.865C85.394 174.865 83.2794 167.7 81.8516 168.01Z" fill="#67647E"/>
<path opacity="0.1" d="M104.176 200.241C103.785 200.58 103.335 216.353 105.022 228.36C106.057 235.672 107.654 242.904 109.802 250L107.298 201.887C107.298 201.887 105.355 199.197 104.176 200.241Z" fill="black"/>
<path opacity="0.1" d="M101.816 187C102.588 187.393 105.954 193.933 104.411 196.617C102.868 199.301 101.816 187 101.816 187Z" fill="black"/>
<path opacity="0.1" d="M77.24 129.938C76.0154 127.443 74.1039 125.377 71.7453 124C73.4964 125.289 74.9116 127.004 75.865 128.994C76.9227 131.204 76.6265 133.42 74.527 134.675C72.4275 135.93 71.7718 137.95 70.7353 140.28C69.7834 142.392 68.7257 144.646 66.7954 145.825C64.3099 147.375 61.0364 146.807 58.4451 148.15C56.101 149.421 54.7343 152.028 54.9865 154.748C55.152 155.774 55.3997 156.783 55.7268 157.766C56.3138 159.895 56.5778 162.104 56.5095 164.315C56.5187 164.46 56.4913 164.605 56.4302 164.736C56.2776 164.943 56.0371 165.061 55.785 165.052C55.1377 165.105 54.4884 164.98 53.9023 164.692C54.7662 165.574 55.9459 166.046 57.16 165.996C57.4121 166.005 57.6526 165.887 57.8052 165.68C57.866 165.549 57.895 165.405 57.8898 165.26C57.953 163.048 57.6872 160.839 57.1018 158.71C56.7746 157.727 56.527 156.718 56.3614 155.692C56.11 152.974 57.4768 150.368 59.82 149.1C62.4113 147.752 65.6849 148.319 68.1704 146.775C70.1007 145.569 71.1583 143.336 72.1102 141.224C73.1679 138.916 73.7285 136.918 75.902 135.619C78.0755 134.32 78.3082 132.148 77.24 129.938Z" fill="black"/>
<path opacity="0.1" d="M525.553 416C537.957 416 548.013 414.657 548.013 413C548.013 411.343 537.957 410 525.553 410C513.149 410 503.094 411.343 503.094 413C503.094 414.657 513.149 416 525.553 416Z" fill="#6C63FF"/>
<path opacity="0.1" d="M350.37 444C359.19 444 366.341 443.105 366.341 442C366.341 440.895 359.19 440 350.37 440C341.549 440 334.398 440.895 334.398 442C334.398 443.105 341.549 444 350.37 444Z" fill="#6C63FF"/>
<path opacity="0.1" d="M209.624 428C218.444 428 225.595 427.105 225.595 426C225.595 424.895 218.444 424 209.624 424C200.803 424 193.652 424.895 193.652 426C193.652 427.105 200.803 428 209.624 428Z" fill="#6C63FF"/>
<path fill-rule="evenodd" clip-rule="evenodd" d="M218.395 420.737C219.419 419.951 220.165 418.89 220.532 417.694C220.811 416.491 220.264 415.041 219.036 414.599C217.664 414.106 216.196 415.004 215.085 415.908C213.975 416.812 212.697 417.847 211.246 417.652C212.767 416.351 213.453 414.396 213.054 412.498C212.988 412.112 212.815 411.749 212.552 411.447C211.788 410.68 210.404 411.011 209.494 411.615C206.592 413.533 205.783 417.248 205.767 420.584C205.476 419.381 205.722 418.125 205.711 416.906C205.7 415.687 205.348 414.279 204.238 413.638C203.555 413.282 202.786 413.101 202.006 413.112C200.705 413.065 199.249 413.191 198.362 414.09C197.246 415.204 197.541 417.074 198.501 418.293C199.461 419.513 200.929 420.295 202.279 421.141C203.359 421.748 204.28 422.576 204.974 423.564C205.058 423.702 205.125 423.848 205.175 424H213.356C215.182 423.128 216.877 422.031 218.395 420.737V420.737Z" fill="#00C3FF"/>
<path fill-rule="evenodd" clip-rule="evenodd" d="M534.802 408.737C535.833 407.952 536.586 406.891 536.961 405.694C537.24 404.491 536.694 403.067 535.466 402.599C534.094 402.106 532.627 403.004 531.516 403.908C530.406 404.812 529.129 405.847 527.672 405.652C529.198 404.354 529.885 402.396 529.48 400.498C529.42 400.11 529.246 399.746 528.978 399.447C528.219 398.68 526.836 399.011 525.926 399.615C523.025 401.533 522.216 405.248 522.2 408.584C521.904 407.381 522.155 406.125 522.144 404.906C522.133 403.687 521.776 402.279 520.671 401.638C519.989 401.282 519.219 401.101 518.439 401.112C517.134 401.065 515.683 401.191 514.791 402.09C513.675 403.204 513.971 405.074 514.936 406.293C515.901 407.513 517.363 408.295 518.713 409.141C519.793 409.748 520.714 410.576 521.407 411.564C521.489 411.703 521.556 411.849 521.608 412H529.781C531.602 411.128 533.291 410.031 534.802 408.737V408.737Z" fill="#00C3FF"/>
<path fill-rule="evenodd" clip-rule="evenodd" d="M355.145 435.709C356.17 434.925 356.916 433.867 357.288 432.676C357.561 431.47 357.015 430.056 355.793 429.589C354.42 429.097 352.953 429.988 351.842 430.894C350.732 431.801 349.454 432.822 347.998 432.634C349.522 431.338 350.208 429.386 349.806 427.493C349.743 427.108 349.569 426.746 349.304 426.445C348.539 425.68 347.161 426.011 346.246 426.613C343.345 428.531 342.536 432.23 342.519 435.563C342.229 434.363 342.474 433.11 342.469 431.895C342.463 430.679 342.101 429.275 340.996 428.636C340.313 428.282 339.544 428.102 338.764 428.112C337.458 428.07 336.008 428.19 335.115 429.086C333.999 430.202 334.295 432.068 335.26 433.278C336.225 434.489 337.687 435.269 339.032 436.118C340.126 436.73 341.058 437.569 341.755 438.57C341.835 438.708 341.902 438.852 341.955 439H350.124C351.948 438.121 353.637 437.014 355.145 435.709V435.709Z" fill="#00C3FF"/>
<path fill-rule="evenodd" clip-rule="evenodd" d="M514.034 187.568C506.909 187.427 500.619 182.373 497.056 176.244C496.123 174.78 495.536 173.122 495.34 171.396C495.365 171.003 495.431 170.613 495.536 170.234C495.764 169.659 495.946 169.066 496.079 168.462C496.109 168.22 496.109 167.976 496.079 167.734V167.701C496.253 166.386 495.481 165.12 494.515 164.213C493.998 163.727 493.42 163.314 492.843 162.9C492.341 162.54 491.838 162.18 491.375 161.773C488.312 159.083 487.384 154.768 487.324 150.66V150.443C487.337 149.728 487.368 149.011 487.4 148.293V148.293C487.445 147.249 487.491 146.204 487.481 145.161C487.506 144.161 487.462 143.161 487.351 142.167C487.058 139.678 486.113 137.146 484.158 135.559C481.574 133.464 478.098 133.535 474.611 133.606C471.216 133.676 467.81 133.745 465.208 131.815C464.808 131.519 464.432 131.179 464.057 130.839C463.226 130.086 462.401 129.338 461.33 129.098C460.152 128.815 458.93 129.196 457.784 129.576C453.895 130.859 449.561 132.549 448.04 136.331C447.592 137.453 447.44 138.646 447.288 139.838C447.146 140.955 447.004 142.072 446.617 143.129C446.278 144.042 445.776 144.874 445.272 145.709C444.969 146.211 444.665 146.714 444.396 147.237C443.805 148.28 443.517 149.468 443.565 150.666C443.505 151.286 443.592 151.912 443.82 152.491C444.089 153.184 444.521 153.801 445.08 154.29C444.876 154.721 444.621 155.126 444.32 155.497C443.798 156.136 443.13 156.679 442.463 157.22L442.463 157.22C441.86 157.711 441.258 158.199 440.768 158.757C438.856 160.974 438.927 163.99 439.872 166.598C440.425 168.125 441.235 169.572 442.045 171.018C442.618 172.043 443.192 173.067 443.674 174.119C444.179 175.206 444.586 176.455 444.059 177.553C443.805 178.085 443.357 178.527 442.907 178.969C442.714 179.159 442.521 179.35 442.343 179.547C441.476 180.521 440.933 181.74 440.79 183.036C429.151 185.693 429.145 195.045 429.145 195.045L422.867 210.88C422.867 210.88 421.862 213.543 420.695 217.058L413.254 215.727L418.392 224.389C417.409 227.916 416.719 231.187 416.947 232.828C416.947 232.828 414.639 243.696 418.745 245.592L427.815 249.673C428.206 249.911 428.628 250.094 429.069 250.217L429.439 250.38C429.706 250.511 430.019 250.511 430.286 250.38H430.335H430.433C430.617 250.399 430.803 250.372 430.976 250.304C431.179 250.197 431.339 250.022 431.427 249.809C431.429 249.793 431.429 249.777 431.427 249.76L434.142 248.972L436.445 251.689C437.482 252.418 438.498 253.053 439.492 253.624L435.951 289.054C435.951 289.054 435.375 336.145 433.642 346.866C432.996 350.838 432.991 353.545 433.235 355.387L433.17 355.506C433.599 358.533 434.712 359.131 434.712 359.131V359.087L434.778 359.131C435.302 357.756 435.925 356.422 436.64 355.137V355.908C436.608 359.908 436.483 365.499 436.097 369.135C435.391 375.319 437.895 395.805 437.895 395.805L438.759 414.444C438.899 417.606 438.166 420.745 436.64 423.518C434.593 427.241 431.926 432.474 431.752 434.794C431.744 434.921 431.744 435.048 431.752 435.174L427.212 440.462C427.212 440.462 425.474 443.141 429.384 444.222C431.486 444.809 435.12 444.222 438.031 443.532C440.652 442.93 442.512 440.598 442.517 437.908C443.267 435.34 444.527 432.951 446.221 430.881L446.954 435.169L451.842 436.381L452.467 424.627C452.721 423.966 452.835 423.259 452.804 422.551C453.765 414.194 450.539 414.943 450.539 414.943C450.621 415.022 450.676 415.125 450.696 415.237C450.642 415.145 450.588 415.047 450.539 414.949C448.556 411.036 449.529 404.624 449.529 404.624C449.529 404.624 452.097 385.996 452.999 381.079C453.634 377.606 453.374 366.228 453.162 359.853C453.162 359.587 453.162 359.31 453.135 359.087C460.7 358.989 469.971 358.729 476.489 358.098V358.87L475.283 402.885C475.202 405.69 474.634 408.459 473.605 411.069C473.605 411.113 473.569 411.158 473.55 411.202C473.548 411.207 473.547 411.211 473.545 411.216C472.103 414.893 471.281 418.784 471.112 422.73L470.569 436.718V437.103C469.597 437.478 468.065 438.56 468.022 441.695C467.956 446.287 476.043 444.754 476.043 444.754C484.13 444.754 484.19 436.332 484.19 436.332C484.19 436.332 484.451 428.61 484.831 423.442C485.198 418.451 483.721 419.345 483.62 419.412V419.394L483.647 418.997L484.652 403.836C484.652 403.836 492.098 378.568 493.255 373.721C494.075 370.281 493.733 359.902 493.461 354.159C493.461 353.892 493.461 353.642 493.428 353.398C495.731 353.191 497.773 353.17 498.593 353.17H498.968C498.968 353.17 498.583 312.588 497.621 297.275C496.66 281.962 495.118 267.986 491.261 263.775C488.937 261.232 485.695 253.374 483.489 247.554C488.088 249.547 492.861 251.111 497.746 252.227C509.945 254.781 508.277 244.185 508.277 244.185L507.039 224.15H507.12C507.076 218.901 506.626 213.663 505.773 208.484C505.133 204.511 504.144 200.403 502.634 197.072C503.626 196.694 504.605 196.273 505.573 195.858L505.573 195.857C505.898 195.718 506.222 195.579 506.545 195.442C509.858 193.98 513.605 191.904 514.072 188.329H513.909C513.971 188.079 514.012 187.824 514.034 187.568ZM483.495 421.318L483.613 419.545L483.495 434.087V421.318ZM438.422 216.553C438.454 218.623 438.373 222.21 438.253 226.182L434.381 221.009L438.264 214.706L438.422 216.553ZM491.942 234.868L491.951 234.871H491.929C491.929 234.871 491.934 234.87 491.942 234.868ZM490.029 227.318L489.485 227.861C487.981 229.356 486.644 231.01 485.499 232.795L491.942 234.868C492.149 234.819 494.795 234.137 492.581 231.671C491.523 230.381 490.771 228.869 490.382 227.247L490.029 227.318ZM490.029 227.318L490.327 227.035L490.143 227.079L489.828 227.361L490.029 227.318Z" fill="url(#paint4_linear)"/>
<path d="M453.183 420L452.376 434L447.273 432.825L446.195 427L453.183 420V420Z" fill="#A27772"/>
<path opacity="0.1" d="M453.183 420L452.376 434L447.273 432.825L446.195 427L453.183 420V420Z" fill="black"/>
<path d="M471.152 436.476L478.514 438L483.959 433.178V419.599L484.079 417.743V417.689V417.689L484.106 417.297L485.097 402.222C485.097 402.222 492.458 377.094 493.602 372.288C494.413 368.865 494.075 358.541 493.809 352.837C493.7 350.497 493.602 348.935 493.602 348.935L477.354 345L477.011 357.518L475.824 401.275C475.743 404.063 475.179 406.815 474.158 409.411L474.103 409.558C472.689 413.224 471.892 417.099 471.746 421.025L471.201 434.93V435.317L471.152 436.476Z" fill="#CC818C"/>
<path opacity="0.1" d="M483.129 418.01V418.72V418.72L483.179 418L483.129 418.01Z" fill="black"/>
<path opacity="0.1" d="M471.152 436.47L478.612 438L484.129 433.158V432C484.095 432.523 483.796 432.994 483.334 433.251L483.257 433.295C480.688 434.642 477.776 435.213 474.882 434.934L471.969 434.689C471.706 434.717 471.448 434.78 471.202 434.874V435.262L471.152 436.47Z" fill="black"/>
<path d="M482.835 433.769L482.913 433.726C483.41 433.459 483.717 432.953 483.715 432.406L483.837 418.102C483.837 418.102 485.453 417 485.066 422.027C484.678 427.054 484.418 434.568 484.418 434.568C484.418 434.568 484.357 442.763 476.226 442.763C476.226 442.763 468.096 444.249 468.157 439.781C468.217 435.313 471.516 435.127 471.516 435.127L474.433 435.372C477.336 435.638 480.257 435.08 482.835 433.769Z" fill="#B07473"/>
<path d="M432.231 434.072C432.417 437.349 441.915 435.456 441.915 435.456L448.308 422.85C448.308 422.85 453.635 418.686 450.972 415.03C450.827 414.832 450.695 414.624 450.578 414.408V414.376V414.376C450.519 414.279 450.471 414.181 450.418 414.079V414.079C448.5 410.217 449.443 403.885 449.443 403.885C449.443 403.885 451.925 385.497 452.799 380.63C453.412 377.196 453.161 365.953 452.953 359.658C452.874 357.046 452.799 355.283 452.799 355.283L437.02 351C437.02 351 437.02 352.996 437.02 355.775C436.988 359.723 436.871 365.25 436.487 368.841C435.805 374.957 438.229 395.194 438.229 395.194L439.065 413.613C439.185 416.731 438.461 419.823 436.972 422.553C434.99 426.23 432.412 431.406 432.231 433.699C432.22 433.823 432.22 433.948 432.231 434.072V434.072Z" fill="#CC818C"/>
<path opacity="0.1" d="M432.223 434.035C432.414 437.375 442.145 435.446 442.145 435.446L448.694 422.602C448.694 422.602 454.151 418.359 451.423 414.634C451.274 414.432 451.139 414.22 451.019 414C450.931 415.945 448.836 420.8 448.836 420.8C448.836 420.8 443.427 431.727 441.741 434.228C440.054 436.73 432.545 433.765 432.266 433.677C432.242 433.795 432.227 433.915 432.223 434.035Z" fill="black"/>
<path d="M451.749 414.017C451.749 414.017 454.955 413.286 454.003 421.489V421.489C454.074 423.387 453.103 425.177 451.459 426.178C449.167 427.596 445.622 430.642 443.833 436.567V436.567C443.836 439.201 441.991 441.491 439.38 442.095C436.486 442.755 432.875 443.341 430.785 442.766C426.896 441.692 428.597 439.076 428.597 439.076L433.061 433.876C433.061 433.876 440.841 436.884 442.564 434.44C444.287 431.996 449.676 421.349 449.676 421.349C449.676 421.349 452.723 414.704 451.749 414.017Z" fill="#B07473"/>
<path opacity="0.1" d="M477.487 347L477.141 360C481.541 359.565 484.643 358.954 485.183 358.101C486.332 356.264 490.535 355.484 494.11 355.167C494 352.737 493.901 351.115 493.901 351.115L477.487 347Z" fill="black"/>
<path opacity="0.1" d="M437.211 356.385C437.62 355.615 438.218 354.945 438.956 354.428C440.638 353.559 440.456 359.985 440.456 359.985C440.456 359.985 446.035 360.035 453.182 359.951C453.102 357.547 453.027 355.933 453.027 355.933L437.216 352C437.216 352 437.238 353.832 437.211 356.385Z" fill="black"/>
<path d="M435.915 357.997C435.915 357.997 437.814 352.871 439.517 351.93C441.221 350.988 441.042 357.986 441.042 357.986C441.042 357.986 482.783 358.365 484.872 355.145C486.96 351.924 499.102 352.119 499.102 352.119C499.102 352.119 498.722 311.985 497.773 296.841C496.823 281.697 495.304 267.879 491.512 263.716C489.054 261.01 485.544 252.301 483.407 246.488C482.23 243.311 481.454 241 481.454 241L441.612 243.273L441.286 246.488L437.054 288.706C437.054 288.706 436.512 335.254 434.776 345.873C433.04 356.492 435.915 357.997 435.915 357.997Z" fill="#444053"/>
<g opacity="0.1">
<path d="M481.653 355.694C483.729 352.464 495.835 352.654 495.835 352.654C495.835 352.654 495.457 312.333 494.51 297.118C493.564 281.903 492.05 268.02 488.271 263.839C485.821 261.12 482.323 252.37 480.193 246.53C479.209 243.849 478.506 241.783 478.306 241.19L481.388 241.016C481.388 241.016 482.161 243.338 483.334 246.53C485.497 252.37 488.963 261.13 491.412 263.839C495.197 268.02 496.706 281.903 497.652 297.118C498.598 312.333 498.955 352.627 498.955 352.627C498.955 352.627 486.854 352.431 484.778 355.694C482.999 358.456 452.385 358.581 443.496 358.559C454.894 358.505 480.031 358.162 481.653 355.694Z" fill="black"/>
<path d="M436.435 352.431C437.203 352.001 437.587 353.192 437.776 354.606C437.09 355.86 436.492 357.161 435.987 358.499C435.987 358.499 434.905 357.907 434.473 354.9C435.073 353.828 435.77 352.806 436.435 352.431Z" fill="black"/>
</g>
<path d="M448.038 143.678C445.321 147.416 448.07 152.722 445.155 156.353C444.193 157.554 442.711 158.411 441.706 159.585C439.844 161.772 439.919 164.735 440.834 167.304C441.748 169.874 443.401 172.206 444.535 174.706C445.027 175.783 445.423 177.006 444.915 178.083C444.562 178.832 443.845 179.398 443.246 180.049C441.374 182.156 441.321 185.086 442.326 187.564C443.332 190.042 445.262 192.191 447.14 194.281C447.888 195.111 448.835 196.021 450.081 196C450.738 195.946 451.372 195.735 451.932 195.386C456.368 193.033 459.734 189.049 461.329 184.262C462.677 179.758 462.393 174.918 460.526 170.606C458.922 166.798 456.312 163.146 456.291 159.116C456.291 155.922 457.922 152.873 458.211 149.689C458.564 145.827 456.291 139.686 451.659 138C451.964 140.494 449.439 141.782 448.038 143.678Z" fill="#585268"/>
<path opacity="0.1" d="M448.038 143.678C445.321 147.416 448.07 152.722 445.155 156.353C444.193 157.554 442.711 158.411 441.706 159.585C439.844 161.772 439.919 164.735 440.834 167.304C441.748 169.874 443.401 172.206 444.535 174.706C445.027 175.783 445.423 177.006 444.915 178.083C444.562 178.832 443.845 179.398 443.246 180.049C441.374 182.156 441.321 185.086 442.326 187.564C443.332 190.042 445.262 192.191 447.14 194.281C447.888 195.111 448.835 196.021 450.081 196C450.738 195.946 451.372 195.735 451.932 195.386C456.368 193.033 459.734 189.049 461.329 184.262C462.677 179.758 462.393 174.918 460.526 170.606C458.922 166.798 456.312 163.146 456.291 159.116C456.291 155.922 457.922 152.873 458.211 149.689C458.564 145.827 456.291 139.686 451.659 138C451.964 140.494 449.439 141.782 448.038 143.678Z" fill="black"/>
<path opacity="0.1" d="M478.137 281C472.673 281.293 467.531 283.666 462.748 286.354C457.966 289.042 453.339 292.11 448.191 294" fill="black"/>
<path opacity="0.1" d="M475.145 293C469.675 293.535 464.578 296.058 460.786 300.109C459.445 301.559 458.288 303.185 456.887 304.574C454.739 306.7 452.088 308.225 449.191 309" fill="black"/>
<path opacity="0.1" d="M476.143 303C471.783 304.177 467.836 306.492 464.729 309.694C463.891 310.572 463.118 311.518 462.291 312.39C457.763 317.093 451.371 319.628 445.199 322" fill="black"/>
<path d="M475.331 166.265C475.456 170.676 475.841 175.076 476.483 179.442C476.998 182.555 477.733 185.326 478.786 186.557C481.851 190.163 463.827 195 463.827 195L453.184 186.866C453.184 186.866 461.623 179.182 457.691 171.683C453.759 164.183 475.331 166.265 475.331 166.265Z" fill="#CC818C"/>
<path opacity="0.1" d="M440.207 247H482.131C480.96 243.527 480.188 241 480.188 241L440.531 243.485L440.207 247Z" fill="black"/>
<path d="M437.468 246H482.616C481.349 241.449 482.616 237.23 484.428 233.994C485.693 231.721 487.286 229.647 489.155 227.839L489.465 227.56L505.239 224.051L506.088 223.866C506.088 223.866 506.213 195.112 496.068 191.167C485.923 187.221 479.831 181.89 479.831 181.89L465.884 186.212L455.609 181C452.312 184.564 443.56 183.183 443.56 183.183C429.227 184.82 429.227 195.652 429.227 195.652C429.227 195.652 437.598 215.249 438.235 215.249C438.871 215.249 437.468 246 437.468 246Z" fill="#67647E"/>
<path opacity="0.1" d="M454.18 228C454.18 228 444.497 225.818 441.203 222Z" fill="black"/>
<path opacity="0.1" d="M499.476 217L489.117 225.907C489.192 226.611 489.307 227.31 489.461 228L489.762 227.718L505.088 224.158L499.476 217Z" fill="black"/>
<path opacity="0.1" d="M471.152 242.053C471.152 242.053 473.341 243.329 476.691 245H482.434C481.248 240.603 482.434 236.527 484.129 233.401L473.983 230C477.445 233.322 471.152 242.053 471.152 242.053Z" fill="black"/>
<path d="M435.968 192L429.731 195.391L423.617 210.977C423.617 210.977 417.257 228.073 417.877 232.602C417.877 232.602 415.636 243.282 419.626 245.169L430.036 249.913C430.412 250.085 430.855 249.996 431.137 249.693C431.419 249.389 431.477 248.937 431.282 248.571C429.8 245.74 428.174 241.32 430.747 238.866L427.752 232.586L438.594 214.751L442.205 208.616L435.968 192Z" fill="#67647E"/>
<path opacity="0.1" d="M450.253 224.239C450.802 226.438 452.681 229.816 458.88 231.091L465.704 236.502L472.941 239.703L475.886 241L477.139 232.228L474.298 230.717L471.001 228.962C471.001 228.962 463.534 215.814 451.703 221.369C450.584 221.874 449.98 223.07 450.253 224.239V224.239Z" fill="black"/>
<path d="M451.252 223.233C451.801 225.431 453.68 228.809 459.879 230.085L466.704 235.501L473.941 238.703L476.886 240L478.139 231.227L475.298 229.722L472.001 227.961C472.001 227.961 464.533 214.817 452.702 220.367C451.585 220.872 450.981 222.065 451.252 223.233V223.233Z" fill="#CC818C"/>
<path opacity="0.1" d="M463.666 178C472.762 178 480.136 170.613 480.136 161.5C480.136 152.387 472.762 145 463.666 145C454.569 145 447.195 152.387 447.195 161.5C447.195 170.613 454.569 178 463.666 178Z" fill="black"/>
<path d="M463.666 178C472.762 178 480.136 170.613 480.136 161.5C480.136 152.387 472.762 145 463.666 145C454.569 145 447.195 152.387 447.195 161.5C447.195 170.613 454.569 178 463.666 178Z" fill="#CC818C"/>
<path opacity="0.1" d="M473.885 196L469.156 186.273C469.156 186.273 476.112 183.318 476.617 179.888C477.121 176.457 483.278 183.905 481.944 186.372C480.61 188.84 473.885 196 473.885 196Z" fill="black"/>
<path d="M473.885 196L469.156 186.273C469.156 186.273 476.112 183.318 476.617 179.887C477.121 176.457 483.278 183.91 481.944 186.372C480.61 188.834 473.885 196 473.885 196Z" fill="#67647E"/>
<path d="M433.503 220.48L460.171 256.509C460.171 256.509 450.347 261.871 436.789 252.257L430.922 245.259L414.254 217L433.503 220.48Z" fill="#F6F8FB"/>
<path d="M428.9 239.347L431.411 239.282C431.411 239.282 446.752 224.71 450.515 232.082C454.279 239.454 440.963 246.33 440.963 246.33L436.912 248.489L431.604 250L428.227 245.564L428.9 239.347Z" fill="#CC818C"/>
<path opacity="0.1" d="M431.948 247.77C432.176 248.64 432.393 249.6 432.013 250.409C431.926 250.627 431.766 250.806 431.563 250.914C431.392 250.988 431.205 251.015 431.021 250.992C429.714 250.877 428.499 250.253 427.62 249.246C426.752 248.247 426.01 247.138 425.412 245.945C424.74 244.738 424.04 243.39 424.284 242.015C424.55 240.51 425.846 239.466 427.083 238.646C429.583 236.933 429.643 238.927 430.212 241.128L431.948 247.77Z" fill="black"/>
<path d="M431.948 247.77C432.176 248.64 432.393 249.6 432.013 250.409C431.926 250.627 431.766 250.806 431.563 250.914C431.392 250.988 431.205 251.015 431.021 250.992C429.714 250.877 428.499 250.253 427.62 249.246C426.752 248.247 426.01 247.138 425.412 245.945C424.74 244.738 424.04 243.39 424.284 242.015C424.55 240.51 425.846 239.466 427.083 238.646C429.583 236.933 429.643 238.927 430.212 241.128L431.948 247.77Z" fill="#67647E"/>
<path opacity="0.1" d="M439.207 215.153L441.203 213L439.456 217L439.207 215.153V215.153Z" fill="black"/>
<path opacity="0.1" d="M473.148 238.738L475.95 240L477.141 231.464L474.439 230C476.284 232.108 474.669 236.023 473.148 238.738Z" fill="black"/>
<path opacity="0.1" d="M484.129 228.947C484.129 228.947 475.016 229.504 471.152 227Z" fill="black"/>
<g opacity="0.1">
<path d="M483.024 234.601C484.278 232.345 485.853 230.287 487.7 228.491C488.143 228.211 488.603 227.957 489.076 227.733L503.588 224.732L504.427 224.548C504.427 224.548 504.556 196.007 494.526 192.091C488.906 189.931 483.636 186.939 478.891 183.213L479.992 182.872C479.992 182.872 486.007 188.175 496.031 192.08C506.056 195.986 505.943 224.548 505.943 224.548H504.438L489.581 227.413L488.743 228.22C486.88 230.098 485.283 232.225 483.997 234.542C482.036 238.216 481.59 242.52 482.755 246.523H481.218C479.982 242.006 481.256 237.819 483.024 234.601Z" fill="black"/>
<path d="M443.418 184.232C443.66 184.199 443.891 184.161 444.138 184.134C445.155 184.279 446.18 184.364 447.207 184.389C445.942 184.424 444.676 184.371 443.418 184.232H443.418Z" fill="black"/>
<path d="M464.692 187.162L455.512 182.498C455.702 182.347 455.882 182.182 456.049 182.005L465.627 186.88L464.692 187.162Z" fill="black"/>
</g>
<path d="M500.637 217L506.762 224.476L508.01 244.769C508.01 244.769 509.618 255.102 497.764 252.613C485.91 250.125 472.148 242.403 472.148 242.403C472.148 242.403 478.772 233.56 475.149 230.201L492.143 235.68C492.143 235.68 495.015 235.055 492.764 232.566C490.514 230.078 490.117 225.592 490.117 225.592L500.637 217Z" fill="#67647E"/>
<path opacity="0.1" d="M503.094 238L506.088 242C504.518 241.44 503.357 239.889 503.094 238H503.094Z" fill="black"/>
<path opacity="0.1" d="M497.105 238L502.096 245.32L499.604 246L497.105 238V238Z" fill="black"/>
<path opacity="0.1" d="M444.469 153.334C443.887 151.919 444.329 150.283 445.008 148.922C445.687 147.561 446.662 146.324 447.163 144.882C447.944 142.73 447.701 140.32 448.552 138.201C450.044 134.489 454.284 132.821 458.087 131.568C459.207 131.196 460.403 130.82 461.556 131.094C463.075 131.46 464.093 132.853 465.327 133.784C470.487 137.625 478.874 133.397 483.863 137.464C485.775 139.018 486.701 141.515 486.987 143.957C487.272 146.399 486.987 148.879 486.96 151.343C486.879 155.647 487.682 160.37 490.919 163.227C491.894 164.087 493.042 164.738 493.99 165.626C494.938 166.514 495.687 167.778 495.52 169.053C495.386 169.645 495.205 170.226 494.981 170.791C494.335 173.039 495.293 175.422 496.462 177.451C499.953 183.476 506.099 188.441 513.075 188.581C512.606 192.094 508.954 194.133 505.711 195.575C501.58 197.409 497.238 199.211 492.724 198.98C488.21 198.749 483.502 195.865 482.699 191.448C482.424 189.926 482.462 188.059 481.137 187.258C480.34 186.773 479.305 186.897 478.444 186.531C477.199 185.993 476.58 184.627 476.17 183.336C475.329 180.682 474.877 177.92 474.829 175.137C474.775 171.84 475.217 168.241 473.342 165.524C471.608 163.012 468.526 161.758 466.528 159.423C464.686 157.271 462.676 154.7 459.654 154.291C455.593 153.705 446.942 159.38 444.469 153.334Z" fill="black"/>
<path d="M444.469 152.334C443.887 150.919 444.329 149.283 445.008 147.922C445.687 146.561 446.662 145.324 447.163 143.882C447.944 141.73 447.701 139.32 448.552 137.201C450.044 133.489 454.284 131.821 458.087 130.568C459.207 130.196 460.403 129.82 461.556 130.094C463.075 130.46 464.093 131.853 465.327 132.784C470.487 136.63 478.874 132.397 483.863 136.464C485.775 138.024 486.701 140.514 486.987 142.957C487.272 145.399 486.987 147.879 486.96 150.343C486.879 154.647 487.682 159.37 490.919 162.227C491.894 163.087 493.042 163.738 493.99 164.626C494.938 165.514 495.687 166.778 495.52 168.053C495.385 168.647 495.205 169.229 494.981 169.796C494.335 172.039 495.293 174.428 496.462 176.451C499.953 182.476 506.099 187.441 513.075 187.581C512.606 191.094 508.954 193.133 505.711 194.575C501.58 196.414 497.238 198.211 492.724 197.98C488.21 197.749 483.502 194.865 482.699 190.421C482.424 188.899 482.462 187.032 481.137 186.231C480.34 185.747 479.305 185.87 478.444 185.504C477.199 184.966 476.58 183.6 476.17 182.309C475.329 179.655 474.877 176.894 474.829 174.11C474.775 170.813 475.217 167.214 473.342 164.497C471.608 161.985 468.526 160.731 466.528 158.396C464.686 156.245 462.676 153.673 459.654 153.264C455.593 152.732 446.942 158.38 444.469 152.334Z" fill="#585268"/>
<path opacity="0.1" d="M455.504 194L465.16 186.415C465.16 186.415 458.551 182.948 457.761 179.99C456.972 177.032 451.684 181.393 452.222 184.048C452.76 186.702 455.504 194 455.504 194Z" fill="black"/>
<path d="M456.504 194L466.16 186.415C466.16 186.415 459.551 182.948 458.761 179.99C457.972 177.032 452.684 181.393 453.222 184.048C453.76 186.702 456.504 194 456.504 194Z" fill="#67647E"/>
<path opacity="0.1" d="M466.158 193C466.71 193 467.157 192.552 467.157 192C467.157 191.448 466.71 191 466.158 191C465.607 191 465.16 191.448 465.16 192C465.16 192.552 465.607 193 466.158 193Z" fill="black"/>
<path opacity="0.1" d="M466.158 197C466.71 197 467.157 196.552 467.157 196C467.157 195.448 466.71 195 466.158 195C465.607 195 465.16 195.448 465.16 196C465.16 196.552 465.607 197 466.158 197Z" fill="black"/>
<path opacity="0.1" d="M466.158 202C466.71 202 467.157 201.552 467.157 201C467.157 200.448 466.71 200 466.158 200C465.607 200 465.16 200.448 465.16 201C465.16 201.552 465.607 202 466.158 202Z" fill="black"/>
<g opacity="0.1">
<path d="M448.388 142.381C449.124 140.345 448.967 138.064 449.655 136.016C449.34 136.47 449.076 136.958 448.87 137.472C448.014 139.611 448.252 142.055 447.472 144.222C447.472 144.26 447.434 144.304 447.418 144.347C447.8 143.723 448.125 143.065 448.388 142.381V142.381Z" fill="black"/>
<path d="M507.314 193.558C503.159 195.416 498.793 197.23 494.249 196.996C489.704 196.762 484.981 193.851 484.174 189.365C483.898 187.828 483.936 185.944 482.603 185.135C481.802 184.646 480.762 184.771 479.895 184.401C478.638 183.858 478.021 182.479 477.609 181.175C476.762 178.493 476.308 175.701 476.26 172.888C476.206 169.558 476.645 165.925 474.765 163.182C473.021 160.646 469.923 159.381 467.913 157.024C466.056 154.851 464.041 152.255 460.996 151.842C456.826 151.299 448.121 157.002 445.64 150.897C445.243 149.743 445.299 148.481 445.797 147.367C445.619 147.671 445.445 147.975 445.288 148.285C444.584 149.659 444.14 151.31 444.747 152.738C447.233 158.843 455.932 153.113 460.108 153.683C463.147 154.096 465.167 156.709 467.025 158.865C469.035 161.2 472.128 162.487 473.872 165.029C475.757 167.744 475.318 171.405 475.372 174.729C475.417 177.54 475.869 180.33 476.715 183.011C477.127 184.309 477.75 185.727 479.001 186.237C479.868 186.601 480.908 186.481 481.71 186.97C483.037 187.774 483.004 189.686 483.275 191.196C484.082 195.682 488.816 198.598 493.355 198.832C497.894 199.065 502.265 197.246 506.415 195.388C509.405 194.058 512.736 192.206 513.63 189.175C512.178 191.168 509.643 192.521 507.314 193.558Z" fill="black"/>
</g>
<defs>
<linearGradient id="paint0_linear" x1="277.497" y1="172" x2="277.497" y2="73" gradientUnits="userSpaceOnUse">
<stop stop-color="#808080" stop-opacity="0.25"/>
<stop offset="0.54" stop-color="#808080" stop-opacity="0.12"/>
<stop offset="1" stop-color="#808080" stop-opacity="0.1"/>
</linearGradient>
<linearGradient id="paint1_linear" x1="392.291" y1="299" x2="392.291" y2="206" gradientUnits="userSpaceOnUse">
<stop stop-color="#808080" stop-opacity="0.25"/>
<stop offset="0.54" stop-color="#808080" stop-opacity="0.12"/>
<stop offset="1" stop-color="#808080" stop-opacity="0.1"/>
</linearGradient>
<linearGradient id="paint2_linear" x1="45.8068" y1="156.667" x2="45.8068" y2="156.487" gradientUnits="userSpaceOnUse">
<stop stop-color="#808080" stop-opacity="0.25"/>
<stop offset="0.54" stop-color="#808080" stop-opacity="0.12"/>
<stop offset="1" stop-color="#808080" stop-opacity="0.1"/>
</linearGradient>
<linearGradient id="paint3_linear" x1="130.758" y1="447" x2="130.758" y2="119.017" gradientUnits="userSpaceOnUse">
<stop stop-color="#808080" stop-opacity="0.25"/>
<stop offset="0.54" stop-color="#808080" stop-opacity="0.12"/>
<stop offset="1" stop-color="#808080" stop-opacity="0.1"/>
</linearGradient>
<linearGradient id="paint4_linear" x1="514.037" y1="444.977" x2="514.037" y2="128.979" gradientUnits="userSpaceOnUse">
<stop stop-color="#808080" stop-opacity="0.25"/>
<stop offset="0.54" stop-color="#808080" stop-opacity="0.12"/>
<stop offset="1" stop-color="#808080" stop-opacity="0.1"/>
</linearGradient>
</defs>
</svg>
