<svg width="555" height="403" viewBox="0 0 555 403" fill="none" xmlns="http://www.w3.org/2000/svg">
<path fill-rule="evenodd" clip-rule="evenodd" d="M539.769 90.5509C517.613 55.0758 480.27 30.13 439.893 23.79C403.457 18.0741 365.071 27.5891 334.887 49.399L341.539 44.1465C317.764 59.6796 286.878 58.6652 259.83 50.5792C232.783 42.4932 207.939 28.0719 181.579 17.8303C159.502 9.25567 136.388 3.6359 112.838 1.11689C79.2506 -2.49207 41.7271 1.8777 18.342 27.0283C-7.7157 55.0368 -5.71614 105.548 22.4728 131.269C36.8062 144.349 55.5826 150.777 71.9546 160.974C88.3266 171.172 103.484 188.144 102.089 207.852C100.797 226.097 85.7906 240.089 70.2623 248.867C58.2552 255.661 43.4731 263.074 42.0246 277.154C40.6249 290.761 53.0563 301.422 64.9464 307.489C103.67 327.265 151.376 327.075 189.953 307.001C203.716 299.837 216.367 290.302 230.798 284.718C268.692 270.053 310.449 284.816 350.576 290.214C384.653 294.777 419.301 292.422 452.447 283.289C472.32 277.807 492.267 269.429 506.225 253.822C516.257 242.527 522.543 228.301 528.449 214.241C534.731 199.239 540.767 184.132 546.558 168.919C550.03 159.784 553.454 150.474 554.361 140.706C555.96 122.993 549.103 105.484 539.769 90.5509ZM149.381 93.0528H113.858C111.821 93.0528 110.171 91.4021 110.171 89.3658C110.171 87.3295 111.821 85.6788 113.858 85.6788H126.05C125.507 84.808 125.353 83.7497 125.625 82.7601C125.897 81.7706 126.571 80.9402 127.484 80.4702H123.49C121.453 80.4702 119.803 78.8195 119.803 76.7832C119.803 74.7469 121.453 73.0962 123.49 73.0962H159.009C160.712 73.0878 162.199 74.2467 162.607 75.9001C163.014 77.5535 162.237 79.2712 160.725 80.0556H164.724C166.761 80.0556 168.411 81.7064 168.411 83.7426C168.411 85.7789 166.761 87.4296 164.724 87.4296H152.532C152.9 88.0135 153.095 88.6901 153.093 89.3804C153.079 91.4183 151.419 93.0609 149.381 93.0528ZM207.944 145.641H195.752C196.462 146.776 196.499 148.207 195.849 149.378C195.199 150.548 193.964 151.273 192.626 151.269H157.107C155.07 151.269 153.42 149.619 153.42 147.582C153.42 145.546 155.07 143.895 157.107 143.895H169.299C168.756 143.024 168.603 141.965 168.876 140.975C169.149 139.986 169.825 139.156 170.738 138.687H166.739C164.702 138.687 163.052 137.036 163.052 135C163.052 132.963 164.702 131.313 166.739 131.313H202.258C203.958 131.308 205.441 132.47 205.844 134.122C206.247 135.774 205.466 137.488 203.955 138.267H207.949C209.985 138.267 211.636 139.918 211.636 141.954C211.636 143.991 209.985 145.641 207.949 145.641H207.944ZM261.415 106.167L261.991 107.064C260.776 107.206 259.545 107.083 258.382 106.703C256.597 106.565 254.889 105.917 253.461 104.836L256.577 104.314C256.538 103.382 256.875 102.148 257.802 100.51L259.879 103.763L265.449 102.836C264.434 104.295 263.039 105.447 261.415 106.167ZM343.471 143.642L344.046 144.539C342.831 144.678 341.601 144.555 340.437 144.178C338.652 144.04 336.944 143.391 335.516 142.31L338.633 141.788C338.594 140.857 338.93 139.623 339.857 137.984L341.934 141.237L347.504 140.311C346.49 141.769 345.094 142.921 343.471 143.642V143.642ZM408.154 112.8L408.729 113.697C407.514 113.838 406.283 113.715 405.12 113.336C403.327 113.193 401.614 112.536 400.185 111.444L403.301 110.922C403.262 109.991 403.599 108.757 404.525 107.118L406.603 110.371L412.168 109.444C411.163 110.91 409.775 112.071 408.154 112.8V112.8ZM451.881 74.1204H439.688C440.399 75.2552 440.436 76.6864 439.786 77.8568C439.136 79.0271 437.901 79.7517 436.562 79.7484H401.053C399.017 79.7484 397.366 78.0977 397.366 76.0614C397.366 74.0251 399.017 72.3744 401.053 72.3744H413.245C412.704 71.5 412.555 70.4387 412.833 69.4486C413.111 68.4586 413.791 67.6305 414.709 67.1658H410.709C408.673 67.1658 407.022 65.5151 407.022 63.4788C407.022 61.4425 408.673 59.7918 410.709 59.7918H446.228C447.929 59.7875 449.412 60.9486 449.815 62.6009C450.218 64.2533 449.437 65.9667 447.926 66.7464H451.881C453.917 66.7464 455.568 68.3971 455.568 70.4334C455.568 72.4696 453.917 74.1204 451.881 74.1204V74.1204Z" fill="#00C3FF"/>
<path opacity="0.1" d="M304.022 402.151C319.571 402.151 332.177 398.212 332.177 393.353C332.177 388.494 319.571 384.555 304.022 384.555C288.473 384.555 275.867 388.494 275.867 393.353C275.867 398.212 288.473 402.151 304.022 402.151Z" fill="#2644FF"/>
<path opacity="0.1" d="M346.97 343.637C355.341 343.637 362.128 341.516 362.128 338.901C362.128 336.286 355.341 334.166 346.97 334.166C338.599 334.166 331.812 336.286 331.812 338.901C331.812 341.516 338.599 343.637 346.97 343.637Z" fill="#2644FF"/>
<path opacity="0.1" d="M425.322 356.902C433.693 356.902 440.479 354.782 440.479 352.167C440.479 349.551 433.693 347.431 425.322 347.431C416.95 347.431 410.164 349.551 410.164 352.167C410.164 354.782 416.95 356.902 425.322 356.902Z" fill="#2644FF"/>
<path opacity="0.1" d="M455.514 396.952C471.064 396.952 483.669 393.013 483.669 388.154C483.669 383.295 471.064 379.356 455.514 379.356C439.965 379.356 427.359 383.295 427.359 388.154C427.359 393.013 439.965 396.952 455.514 396.952Z" fill="#2644FF"/>
<path fill-rule="evenodd" clip-rule="evenodd" d="M524.649 165.93C524.649 164.637 527.517 153.732 529.643 157.926C531.765 162.121 531.579 174.25 530.716 174.225C530.209 174.225 528.326 175.698 526.731 177.025L526.273 177.405C526.766 179.429 527.068 180.936 527.068 180.936L520.411 183.048C520.411 183.048 510.711 188.071 509.326 190.446C507.94 192.821 485.209 200.234 485.209 200.234C485.901 203.029 478.83 213.939 478.83 213.939C478.83 213.939 478.001 223.444 475.226 228.057C472.807 232.095 474.631 242.342 475.118 244.844C475.182 245.195 475.226 245.395 475.226 245.395C475.226 245.395 480.078 256.724 478.279 268.049C477.074 275.315 475.445 282.504 473.402 289.58C473.402 289.58 470.773 299.778 470.905 302.651C471.036 305.523 468.954 322.997 468.954 322.997C468.954 322.997 466.633 332.01 467.164 336.063C467.696 340.116 462.287 361.228 462.287 361.228L462.565 366.685C462.565 366.685 461.434 366.729 459.746 366.729C459.761 366.878 459.778 367.032 459.795 367.191C459.818 367.399 459.841 367.617 459.863 367.846C460.244 371.426 460.746 377.01 460.444 378.615C460.225 379.748 460.819 380.474 461.72 381.573C462.745 382.824 464.168 384.56 465.243 387.934C467.068 393.668 452.953 390.176 449.762 389.387C449.425 389.304 449.21 389.25 449.149 389.241C448.51 389.149 445.457 378.615 445.642 374.976C445.754 372.787 446.476 369.031 447.037 366.398C447.12 366.022 447.193 365.676 447.266 365.354C445.822 364.866 444.754 364.208 444.393 363.325L445.086 358.575L446.471 345.407C446.471 345.407 448.276 330.698 447.446 327.226C446.617 323.753 445.232 309.61 445.232 309.61L445.091 324.729C445.091 324.729 442.594 329.464 439.824 330.581C438.656 331.052 437.909 331.648 437.217 332.2C436.267 332.958 435.42 333.634 433.728 333.795C433.385 333.82 433.041 333.82 432.698 333.795C432.689 333.9 432.678 334.004 432.667 334.108C432.639 334.382 432.611 334.652 432.611 334.917C432.523 336.653 432.523 338.116 432.523 338.116C432.523 338.116 432.82 345.714 429.314 350.006C425.807 354.298 421.101 350.284 419.15 342.925C417.809 337.809 421.364 332.195 423.661 329.269L423.988 328.855C423.806 328.418 423.595 327.994 423.354 327.587C422.106 325.49 423.354 318.359 423.354 318.359C423.354 318.359 424.456 313.624 422.798 312.507C421.14 311.39 419.472 303.841 420.165 301.602C420.316 301.114 420.204 300.242 419.945 299.12C419.733 298.187 419.42 297.079 419.078 295.868C418.375 293.376 417.547 290.445 417.219 287.698C416.982 286.142 416.995 284.558 417.258 283.006C418.477 276.871 417.785 267.785 417.785 267.785C417.785 267.785 415.571 248.068 417.785 246.531C417.716 246.399 417.667 246.258 417.638 246.112C416.873 242.996 421.452 233.173 422.915 231.71C424.437 230.169 422.276 219.684 422.276 219.684C422.276 219.684 408.499 228.774 406.143 232.968C403.788 237.163 379.705 246.834 379.705 246.834L375.804 248.785C375.804 248.785 375.223 248.224 374.394 247.356L373.872 247.946C370.132 252.159 362.607 260.041 359.076 259.553C358.617 259.492 358.187 259.299 357.837 258.997C357.13 259.646 356.314 260.166 355.428 260.533C347.942 263.606 348.912 249.204 349.214 247.156C349.414 245.595 348.771 242.02 348.439 240.416C348.337 239.908 348.263 239.601 348.263 239.601C348.262 239.598 348.259 239.588 348.252 239.57C348.09 239.113 346.253 233.946 346.605 232.149C346.971 230.281 344.016 225.248 344.016 225.248C344.016 225.248 342.728 223.195 343.279 220.961C343.83 218.728 340.875 212.388 340.875 212.388C340.875 212.388 340.319 206.803 339.212 207.164C338.105 207.525 337.344 204.741 337.178 203.624C337.012 202.507 333.111 195.045 333.111 195.045L327.405 188.056C326.892 189.534 330.521 196.167 330.521 196.167L331.633 220.776C331.633 220.776 336.422 228.979 333.096 230.842C330.682 232.194 331.384 235.608 331.88 238.021C332.067 238.933 332.225 239.702 332.174 240.162C332.15 240.308 332.089 240.445 331.999 240.562C332.016 240.608 332.034 240.654 332.051 240.699C332.097 240.817 332.142 240.933 332.184 241.05C332.686 242.472 333.116 243.919 333.472 245.385C333.472 245.385 332.911 265.337 334.023 268.878C335.135 272.418 334.759 274.281 334.759 274.281C334.759 274.281 333.462 281.358 334.388 283.787C335.315 286.215 335.315 290.873 335.315 290.873C335.789 290.791 336.268 290.752 336.749 290.756L336.949 290.658C337.443 288.926 338.953 287.677 340.748 287.517C342.967 287.322 345.357 287.859 346.82 290.444C348.122 292.789 348.658 295.291 349.039 297.618C349.136 297.725 349.185 297.788 349.185 297.788L349.292 299.251C349.707 301.934 350.068 304.241 351.531 305.553C354.443 308.21 355.696 316.892 353.613 318.135C353.169 318.401 352.506 318.89 351.732 319.461C348.878 321.566 344.511 324.787 344.001 322.037C343.352 318.54 340.558 310.434 340.558 310.434C340.45 310.171 340.329 309.903 340.192 309.63C339.897 309.021 339.558 308.434 339.178 307.874C339.075 307.718 338.963 307.567 338.846 307.416C338.724 307.708 338.597 307.952 338.461 308.196C335.871 312.858 323.488 311.371 323.488 311.371C313.695 304.84 305.195 277.437 305.195 277.437L303.898 311.927C303.898 311.927 307.029 315.097 306.302 317.145C305.575 319.193 306.794 322.88 306.794 322.88C306.794 322.88 309.56 353.644 308.823 355.507C308.087 357.37 311.413 361.847 311.413 361.847C311.413 361.847 309.867 362.34 307.653 362.979C307.702 363.21 307.748 363.443 307.795 363.679C307.819 363.798 307.843 363.917 307.867 364.037C308.579 367.495 309.487 371.543 310.013 373.835L310.16 374.479L312.661 382.96C312.661 382.96 315.305 394.309 314.612 396.128C313.92 397.947 297.011 396.406 295.07 394.309C293.129 392.212 296.182 387.598 296.182 387.598C296.182 387.598 299.089 379.336 298.396 376.41C298.128 375.274 298.913 374.542 299.967 374.055L299.967 374.054C299.932 373.883 299.898 373.713 299.855 373.542C299.239 371.177 298.364 368.888 297.245 366.715C297.209 366.642 297.173 366.57 297.137 366.498C296.996 366.215 296.86 365.942 296.723 365.681C294.446 366.061 292.69 366.134 292.203 365.608C290.539 363.754 292.203 361.706 292.203 361.706V357.975C286.364 345.852 284.927 333.843 284.32 328.772C284.143 327.291 284.036 326.402 283.912 326.275C283.475 325.831 283.14 323.64 282.932 322.283C282.877 321.926 282.831 321.627 282.795 321.432C282.619 320.496 282.795 317.326 282.795 317.326C282.795 317.326 283.009 314.716 281.902 313.224C280.795 311.732 282.795 307.259 282.795 307.259C282.478 303.769 281.549 300.361 280.049 297.193C277.65 292.346 274.592 273.701 274.592 273.701C274.592 273.701 273.768 270.906 274.509 269.414C275.25 267.922 270.812 259.348 270.812 259.348C270.812 259.348 271.919 253.203 272.105 251.706C272.29 250.209 267.486 247.136 267.486 247.136L269.729 241.128L270.105 240.108L269.515 239.957C267.818 235.573 265.651 231.385 263.053 227.467C258.981 221.503 264.345 210.5 264.345 210.5C264.345 210.5 263.058 203.419 260.283 201.366C257.508 199.312 253.806 179.926 252.884 174.147C251.963 168.368 240.131 176.2 240.131 176.2C240.131 176.2 225.164 177.132 222.028 176.2C222.028 176.2 214.473 176.956 215.029 165.198C215.585 153.44 224.827 149.538 224.827 149.538L228.519 143.388C228.519 143.388 234.401 142.252 236.434 137.585C238.468 132.917 244.008 131.81 244.008 131.81L249.373 128.455C249.277 128.696 249.237 128.956 249.256 129.216L249.802 128.611C251.948 126.221 255.157 122.52 255.611 121.232C256.206 119.564 264.779 115.823 267.535 116.843C268.577 114.001 268.936 110.954 268.583 107.947C268.58 107.919 268.576 107.89 268.573 107.861C268.492 107.198 268.406 106.493 268.715 105.909C269.174 105.217 269.958 104.811 270.788 104.836C271.156 104.816 271.524 104.838 271.891 104.86C272.337 104.886 272.782 104.913 273.226 104.865C274.879 104.689 276.154 103.579 277.447 102.453C278.414 101.611 279.39 100.761 280.542 100.285C282.69 99.3901 284.977 99.9427 287.299 100.504C288.935 100.899 290.589 101.298 292.222 101.197C293.075 101.146 293.912 100.957 294.749 100.768C295.654 100.564 296.559 100.36 297.484 100.329C298.92 100.315 300.337 100.65 301.615 101.305L301.874 101.436C301.973 101.482 302.069 101.535 302.161 101.585C302.178 101.594 302.194 101.603 302.21 101.612L302.551 101.807L302.805 101.963C303.005 102.085 303.205 102.217 303.395 102.353L303.449 102.391C305.353 103.722 308.508 105.928 308.219 108.469C307.955 110.582 306.682 112.435 304.805 113.439C304.951 113.643 305.092 113.848 305.229 114.063C309.933 121.544 308.447 131.342 301.737 137.092L301.747 137.145C301.777 137.299 301.804 137.439 301.839 137.58C302.082 138.516 302.382 139.436 302.737 140.335C302.759 140.391 302.782 140.446 302.805 140.501C302.828 140.556 302.851 140.611 302.873 140.667C302.873 140.667 316.066 141.535 325.307 147.495C334.549 153.454 343.972 170.797 343.972 170.797L347.112 181.038C347.112 181.038 351.185 189.612 353.584 194.089C355.984 198.566 356.91 205.648 356.91 205.648C356.91 205.648 357.466 209.008 358.573 210.125C359.68 211.242 358.573 214.787 358.573 214.787C358.573 214.787 359.861 218.884 360.973 220.376C362.085 221.868 360.973 228.769 360.973 228.769L361.46 231.564C361.46 231.564 363.377 234.563 362.265 234.734C361.153 234.905 361.524 238.636 361.524 238.636C361.524 238.636 360.978 238.577 360.11 238.509C360.275 238.879 360.436 239.27 360.597 239.665C361.514 241.879 362.631 244.273 362.631 244.273C362.633 244.303 362.633 244.332 362.631 244.361C364.489 243.552 366.718 242.41 368.522 241.435L369.19 241.079C368.532 240.021 368.181 239.089 368.43 238.557C369.4 236.46 376.467 233.807 376.467 233.807C376.467 233.807 391.454 222.337 392.561 221.639C393.668 220.942 394.775 219.264 394.775 219.264L396.165 218.289C396.165 218.289 397.136 217.313 399.769 216.192C402.403 215.07 408.626 207.12 408.626 207.12C408.626 207.12 415.136 200.127 415.97 196.772C416.626 194.453 417.612 192.241 418.897 190.202L419.131 190.168C419.432 187.986 420.429 185.959 421.974 184.389C422.68 183.661 423.461 183.003 424.241 182.347C425.483 181.303 426.722 180.26 427.651 178.936C429.445 176.312 429.822 172.969 428.655 170.012C428.413 169.416 428.112 168.846 427.812 168.275C427.743 168.145 427.675 168.015 427.607 167.885C425.407 165.544 425.134 162.204 425.407 158.229C425.681 154.254 430.24 152.952 433.996 152.557C434.381 152.42 435.127 152.211 436.142 151.933C436.186 151.777 436.244 151.577 436.317 151.328C437.013 148.775 437.573 146.186 437.995 143.573C438.717 138.818 449.446 137.609 449.446 137.609C454.967 137.107 460.287 139.814 463.131 144.573L464.36 152.64L464.457 153.288C465.191 153.93 465.831 154.67 466.359 155.488C467.179 155.425 468.091 155.425 469.017 155.425C472.646 155.366 477.001 155.912 476.947 158.838C476.899 161.443 474.28 164.452 471.763 166.754C471.812 166.905 471.861 167.051 471.919 167.198C472.456 168.523 473.473 169.561 474.484 170.592C474.741 170.854 474.997 171.116 475.245 171.382C476.665 172.909 477.848 174.64 478.757 176.517C478.791 176.596 478.825 176.674 478.864 176.752C482.488 177.02 486.984 177.478 488.476 178.278C490.832 179.536 497.348 177.156 497.348 177.156C497.348 177.156 500.81 174.357 504.829 173.66C508.848 172.962 515.641 170.304 515.641 170.304C515.641 170.304 519.382 166.251 521.879 166.949C522.325 167.148 522.691 167.491 522.918 167.924C523.044 167.841 523.166 167.754 523.288 167.661C524.015 167.12 524.649 166.486 524.649 165.93ZM256.035 143.008H260.468C262.131 143.008 261.395 140.408 261.395 140.408C261.395 140.408 264.726 140.784 266.569 139.106C268.413 137.428 277.474 141.423 277.474 141.423C277.479 141.361 277.488 141.3 277.496 141.24C277.509 141.137 277.523 141.036 277.523 140.935C277.664 139.379 277.733 137.843 277.757 136.409V136.278L276.708 135.731C275.372 135.039 274.05 134.322 272.758 133.551C272.21 133.279 271.738 132.873 271.388 132.371C270.97 131.664 271.072 130.827 271.175 129.984C271.266 129.233 271.359 128.477 271.085 127.801C270.816 127.126 270.243 126.664 269.668 126.201C269.442 126.019 269.216 125.837 269.008 125.641C268.627 125.286 268.346 124.837 268.193 124.339C267.885 124.076 267.599 123.787 267.34 123.475C266.672 125.427 265.906 127.343 265.043 129.216C265.043 129.216 261.024 135.79 259.22 135.79C258.345 135.855 257.489 136.078 256.693 136.448C256.418 136.56 256.156 136.681 255.912 136.794L255.879 136.809C256.527 137.307 256.957 137.599 256.957 137.599L253.445 141.291C253.445 141.291 252.875 143.149 252.299 145.1C252.772 144.802 253.221 144.549 253.64 144.315C255.059 143.495 256.035 143.008 256.035 143.008Z" fill="url(#paint0_linear)"/>
<path d="M310.549 155.356L290.412 167.183C290.412 167.183 266.193 160.901 272.855 155.536C275.82 153.152 277.064 148.055 277.522 143.129C277.664 141.588 277.732 140.062 277.756 138.643C277.797 136.139 277.703 133.635 277.473 131.142C277.473 131.142 305.56 126.343 302.048 133.551C301.195 135.302 301.263 137.487 301.844 139.798C302.086 140.727 302.386 141.639 302.741 142.53C305.282 148.953 310.549 155.356 310.549 155.356Z" fill="#FFCCD0"/>
<path opacity="0.1" d="M302.044 133.551C301.19 135.302 301.259 137.487 301.839 139.799C298.662 142.541 294.604 144.047 290.407 144.042C285.789 144.042 284.019 140.111 280.883 137.214C280.639 136.985 279.137 137.609 278.932 137.37C279 133.151 277.469 131.157 277.469 131.157C277.469 131.157 305.57 126.343 302.044 133.551Z" fill="black"/>
<path d="M307.968 125.928C307.963 134.668 301.531 142.073 292.879 143.301C284.226 144.529 275.988 139.207 273.551 130.814C271.114 122.421 275.22 113.514 283.185 109.917C291.15 106.32 300.548 109.129 305.232 116.506C307.021 119.323 307.97 122.591 307.968 125.928V125.928Z" fill="#FFCCD0"/>
<path opacity="0.1" d="M305.232 116.506C304.92 116.661 304.593 116.782 304.256 116.867C302.871 117.218 301.423 117.067 300.004 116.93C299.779 116.883 299.546 116.913 299.34 117.013C299.092 117.174 299.028 117.501 298.936 117.794C298.55 118.93 297.375 119.593 296.243 119.983C293.933 120.764 291.441 120.827 289.094 120.164C288.782 120.047 288.45 119.996 288.118 120.013C287.353 120.105 286.899 120.929 286.777 121.69C286.655 122.451 286.728 123.261 286.441 123.968C285.953 125.207 284.558 125.772 283.349 126.319C282.139 126.865 280.808 127.738 280.749 129.069C280.71 129.835 281.115 130.532 281.237 131.293C281.425 132.663 280.768 134.011 279.574 134.707C279.299 136.086 278.933 137.445 278.477 138.774C273.457 134.146 271.576 127.029 273.653 120.525C275.73 114.022 281.389 109.312 288.161 108.45C294.934 107.588 301.592 110.73 305.232 116.506V116.506Z" fill="black"/>
<path d="M303.411 104.899C301.703 103.623 299.631 102.927 297.5 102.914C295.72 102.972 294.013 103.665 292.237 103.772C288.287 104.016 284.22 101.373 280.557 102.87C277.865 103.972 276.129 107.103 273.242 107.411C272.432 107.493 271.618 107.337 270.803 107.376C269.989 107.415 269.116 107.723 268.73 108.44C268.483 109.085 268.437 109.791 268.599 110.464C268.963 113.56 268.556 116.698 267.414 119.598C266.863 120.988 266.131 122.432 266.39 123.904C266.649 125.012 267.287 125.993 268.194 126.679C268.348 127.174 268.629 127.62 269.008 127.972C269.745 128.655 270.711 129.176 271.086 130.108C271.666 131.537 270.598 133.317 271.388 134.644C271.74 135.141 272.211 135.542 272.759 135.809C274.407 136.785 276.091 137.695 277.811 138.54C278.308 137.106 278.707 135.639 279.006 134.151C280.201 133.455 280.857 132.107 280.669 130.737C280.533 129.986 280.128 129.274 280.182 128.513C280.245 127.182 281.567 126.304 282.781 125.758C283.995 125.212 285.38 124.646 285.878 123.412C286.166 122.7 286.088 121.895 286.21 121.134C286.331 120.374 286.785 119.544 287.551 119.452C287.883 119.437 288.215 119.49 288.526 119.608C290.874 120.267 293.365 120.202 295.676 119.423C296.812 119.037 297.987 118.369 298.368 117.233C298.461 116.945 298.524 116.613 298.778 116.452C298.981 116.351 299.213 116.322 299.436 116.37C300.855 116.506 302.308 116.652 303.689 116.311C306.147 115.6 307.942 113.487 308.249 110.946C308.527 108.41 305.298 106.216 303.411 104.899Z" fill="#E3787D"/>
<path opacity="0.1" d="M303.408 104.899C302.727 104.422 302 104.014 301.238 103.68C301.599 103.885 301.96 104.104 302.301 104.343C304.189 105.66 307.417 107.864 307.12 110.405C306.817 112.946 305.023 115.059 302.565 115.77C301.18 116.116 299.731 115.965 298.312 115.828C298.088 115.783 297.855 115.813 297.649 115.911C297.395 116.072 297.337 116.399 297.239 116.691C296.864 117.833 295.688 118.496 294.552 118.881C292.241 119.666 289.746 119.73 287.397 119.067C287.086 118.95 286.754 118.897 286.422 118.91C285.656 119.003 285.203 119.832 285.081 120.593C284.959 121.354 285.037 122.159 284.749 122.871C284.261 124.104 282.862 124.675 281.647 125.221C280.433 125.768 279.116 126.64 279.053 127.972C279.014 128.733 279.414 129.435 279.541 130.196C279.729 131.566 279.072 132.913 277.877 133.61C277.577 135.086 277.179 136.541 276.688 137.965C277.058 138.155 277.419 138.355 277.79 138.535C278.286 137.101 278.686 135.634 278.985 134.146C280.179 133.45 280.836 132.102 280.648 130.732C280.511 129.981 280.106 129.269 280.16 128.508C280.223 127.177 281.545 126.299 282.759 125.753C283.974 125.207 285.359 124.641 285.856 123.407C286.144 122.695 286.066 121.89 286.188 121.13C286.31 120.369 286.763 119.54 287.529 119.447C287.861 119.432 288.193 119.485 288.504 119.603C290.852 120.262 293.344 120.197 295.654 119.418C296.79 119.032 297.966 118.364 298.346 117.228C298.439 116.94 298.502 116.609 298.756 116.448C298.96 116.347 299.192 116.317 299.414 116.365C300.833 116.501 302.287 116.648 303.667 116.306C306.126 115.595 307.921 113.483 308.227 110.942C308.524 108.41 305.296 106.216 303.408 104.899Z" fill="black"/>
<path d="M265.038 131.513C265.038 131.513 261.019 138.028 259.215 138.028C258.341 138.093 257.485 138.315 256.689 138.682C255.891 139.013 255.115 139.395 254.367 139.828L247.852 133.039C247.852 133.039 248.681 132.161 249.802 130.927C251.948 128.562 255.167 124.89 255.611 123.612C256.303 121.661 267.803 116.955 268.364 120.144C268.925 123.334 265.038 131.513 265.038 131.513Z" fill="#FFCCD0"/>
<path d="M376.06 246.653C376.06 246.653 375.201 247.682 373.85 249.189C370.11 253.364 362.585 261.172 359.054 260.694C354.255 260.045 356.835 247.297 359.702 246.741C361.443 246.405 365.555 244.337 368.53 242.757C370.48 241.732 371.9 240.918 371.9 240.918L376.06 246.653Z" fill="#CE828D"/>
<path d="M355.406 261.665C347.92 264.718 348.891 250.448 349.193 248.404C349.418 246.858 348.749 243.313 348.418 241.723C348.315 241.235 348.242 240.918 348.242 240.918L350.139 236.119C350.139 236.119 359.406 236.3 359.406 237.548C359.406 238.06 359.947 239.499 360.581 241.021C361.498 243.215 362.615 245.59 362.615 245.59C362.615 245.59 362.893 258.622 355.406 261.665Z" fill="#FFCCD0"/>
<path d="M310.504 375.879C310.504 375.879 298.999 382.253 300.106 377.542C300.325 376.271 300.255 374.968 299.902 373.728C299.285 371.379 298.41 369.105 297.292 366.949C296.156 364.657 295.117 362.989 295.117 362.989C295.117 362.989 306.759 355.639 306.9 358.414C307.141 360.402 307.485 362.377 307.929 364.33C308.641 367.773 309.548 371.767 310.075 374.04L310.504 375.879Z" fill="#FF748E"/>
<path opacity="0.1" d="M310.501 375.878C310.501 375.878 298.996 382.253 300.103 377.542C300.322 376.271 300.252 374.967 299.898 373.728C301.213 373.203 302.606 372.898 304.019 372.825C305.536 371.714 309.296 373.62 310.072 374.04L310.501 375.878Z" fill="black"/>
<path d="M304.02 373.381C304.02 373.381 297.748 373.659 298.441 376.571C299.133 379.482 296.227 387.656 296.227 387.656C296.227 387.656 293.174 392.231 295.115 394.313C297.056 396.396 313.964 397.917 314.657 396.113C315.349 394.308 312.706 383.086 312.706 383.086L310.219 374.693C310.219 374.693 305.717 372.133 304.02 373.381Z" fill="#4D507F"/>
<path d="M350.144 311.473L341.502 313.911C341.188 312.68 340.748 311.483 340.19 310.342C339.895 309.737 339.556 309.155 339.175 308.6C337.805 306.62 335.762 305.04 332.865 305.928C326.525 307.879 332.865 293.384 332.865 293.384C332.865 293.384 334.581 292.653 336.313 291.833L336.717 291.633C338.117 290.946 339.449 290.224 339.775 289.805C340.4 289.014 346.164 295.247 348.354 297.666C348.871 298.237 349.183 298.598 349.183 298.598L349.588 304.036L350.144 311.473Z" fill="#FF748E"/>
<path opacity="0.1" d="M350.144 311.473L341.502 313.911C341.188 312.68 340.749 311.483 340.19 310.342C340.541 309.186 341.483 307.24 343.77 307.532C346.403 307.874 346.033 298.666 342.336 296.447C338.639 294.228 336.42 294.091 336.42 294.091C336.184 293.362 336.147 292.582 336.313 291.833L336.718 291.633C338.117 290.946 339.449 290.224 339.776 289.805C340.4 289.014 346.164 295.247 348.354 297.666C348.788 300.056 348.978 302.304 349.588 304.036L350.144 311.473Z" fill="black"/>
<path d="M336.978 294.101C336.568 292.838 336.758 291.457 337.492 290.351C338.226 289.244 339.425 288.533 340.748 288.42C342.967 288.229 345.381 288.766 346.819 291.346C350.009 297.032 348.619 303.689 351.531 306.323C354.442 308.957 355.691 317.54 353.613 318.793C351.536 320.047 344.649 326.138 344.001 322.671C343.352 319.203 340.557 311.171 340.557 311.171C340.557 311.171 341.113 307.147 344.322 307.562C346.961 307.903 346.59 298.695 342.894 296.476C339.197 294.257 336.978 294.121 336.978 294.121V294.101Z" fill="#4D507F"/>
<path opacity="0.1" d="M307.929 364.33C304.954 365.188 300.653 366.354 297.292 366.949C296.156 364.657 295.117 362.989 295.117 362.989C295.117 362.989 306.759 355.639 306.9 358.414C307.141 360.402 307.485 362.377 307.929 364.33V364.33Z" fill="black"/>
<path opacity="0.1" d="M339.175 308.61C337.805 306.63 335.762 305.05 332.865 305.938C326.525 307.889 332.865 293.394 332.865 293.394C332.865 293.394 334.859 292.546 336.717 291.643C337.864 291.565 339.849 291.682 340.487 293.224C341.39 295.394 341.585 303.914 339.175 308.61Z" fill="black"/>
<path d="M338.457 308.932C335.867 313.551 323.485 312.073 323.485 312.073C313.692 305.606 305.191 278.422 305.191 278.422L303.894 312.614C303.894 312.614 307.035 315.75 306.298 317.789C305.562 319.828 306.854 323.515 306.854 323.515C306.854 323.515 309.624 354.005 308.883 355.859C308.142 357.712 311.473 362.14 311.473 362.14C311.473 362.14 293.916 367.685 292.248 365.837C290.58 363.989 292.248 361.935 292.248 361.935V358.234C284.679 342.71 284.488 327.372 283.957 326.816C283.425 326.26 283.035 322.915 282.84 322.017C282.645 321.12 282.84 317.945 282.84 317.945C282.84 317.945 283.055 315.36 281.948 313.882C280.841 312.405 282.84 307.967 282.84 307.967C282.523 304.504 281.593 301.126 280.094 297.988C277.695 293.185 274.637 274.701 274.637 274.701C274.637 274.701 273.813 271.926 274.554 270.453C275.295 268.98 270.857 260.475 270.857 260.475C270.857 260.475 271.969 254.374 272.15 252.896C272.33 251.418 267.531 248.365 267.531 248.365L269.775 242.41L272.15 236.07C272.15 236.07 327.221 237.177 329.44 237.914C330.513 238.27 331.493 240.299 332.224 242.303C332.727 243.712 333.157 245.146 333.512 246.6C333.512 246.6 332.956 266.371 334.063 269.882C335.17 273.394 334.799 275.247 334.799 275.247C334.799 275.247 333.512 282.27 334.429 284.669C335.346 287.069 335.355 291.697 335.355 291.697C335.355 291.697 339.052 290.956 339.974 293.16C340.896 295.365 341.037 304.314 338.457 308.932Z" fill="#AACAF5"/>
<path d="M449.147 389.227C448.509 389.139 445.456 378.692 445.641 375.083C445.753 372.913 446.475 369.192 447.036 366.578C447.406 364.866 447.704 363.652 447.704 363.652L459.501 364.939C459.501 364.939 459.657 366.227 459.848 368.031C460.228 371.577 460.73 377.112 460.428 378.702C459.94 381.111 463.198 381.663 465.227 387.944C467.256 394.226 449.796 389.324 449.147 389.227Z" fill="#4D507F"/>
<path d="M433.628 330.181C432.999 331.205 432.725 333.493 432.608 335.419C432.496 337.15 432.521 338.594 432.521 338.594C432.521 338.594 432.799 346.173 429.287 350.416C425.776 354.659 421.065 350.694 419.124 343.398C417.777 338.326 421.338 332.776 423.635 329.859C424.644 328.582 425.405 327.811 425.405 327.811C425.405 327.811 434.813 328.24 433.628 330.181Z" fill="#4D507F"/>
<path d="M438.939 154.522C438.939 154.522 425.868 153.508 425.405 160.252C424.942 166.997 426.093 172.191 436.1 173.016C446.108 173.84 442.499 154.654 442.499 154.654L438.939 154.522Z" fill="#575A89"/>
<path d="M463.125 157.907C463.125 157.907 475.947 155.907 475.854 160.901C475.761 165.895 466.066 172.386 466.066 172.386L463.125 157.907Z" fill="#575A89"/>
<path opacity="0.15" d="M439.418 154.522C439.418 154.522 426.353 153.508 425.89 160.252C425.426 166.997 426.572 172.191 436.58 173.016C446.588 173.84 442.983 154.654 442.983 154.654L439.418 154.522Z" fill="black"/>
<path opacity="0.15" d="M464.211 157.907C464.211 157.907 477.033 155.907 476.94 160.901C476.847 165.895 467.147 172.386 467.147 172.386L464.211 157.907Z" fill="black"/>
<path d="M442.616 152.611C439.027 154.052 435.652 155.977 432.584 158.331C432.15 158.596 431.823 159.005 431.662 159.487C431.636 159.876 431.644 160.266 431.686 160.653C431.608 162.603 428.658 162.769 427.331 164.218C426.39 165.242 426.405 166.851 426.844 168.168C427.283 169.485 428.117 170.646 428.643 171.933C429.81 174.864 429.433 178.185 427.639 180.78C426.127 182.921 423.791 184.316 421.962 186.189C419.523 188.71 418.026 192.811 419.967 195.757C421.152 197.562 423.322 198.503 424.59 200.244C425.956 202.131 426.054 204.663 425.727 206.969C425.4 209.276 424.703 211.544 424.683 213.875C424.639 218.43 427.283 222.751 430.965 225.438C434.647 228.126 439.256 229.34 443.796 229.584C445.41 229.677 447.088 229.647 448.556 228.974C450.024 228.301 451.175 227.023 452.18 225.726C455.208 221.828 457.534 217.431 459.051 212.734C459.71 210.7 460.256 208.54 461.67 206.94C462.705 205.897 463.909 205.037 465.23 204.394L471.726 200.756C473.858 199.561 476.194 198.108 476.755 195.733C477.389 193.041 475.516 189.91 477.037 187.598C477.525 186.847 478.325 186.335 478.886 185.647C480.461 183.657 479.861 180.721 478.744 178.444C477.834 176.58 476.651 174.862 475.233 173.347C474.009 172.05 472.58 170.855 471.907 169.202C471.39 167.934 471.37 166.505 470.907 165.218C469.932 162.535 467.288 160.901 465.513 158.673C464.05 156.824 463.158 154.527 461.446 152.913C458.671 150.289 455.593 151.128 452.18 151.23C450.492 151.284 448.922 150.66 447.259 150.631C445.308 150.577 444.454 151.874 442.616 152.611Z" fill="#663D5C"/>
<path d="M464.745 157.282L436.039 154.356C436.039 154.356 436.141 154.015 436.317 153.381C437.007 150.857 437.562 148.298 437.98 145.714C438.717 141.032 449.446 139.833 449.446 139.833C454.964 139.324 460.286 142.017 463.145 146.763L464.36 154.742L464.745 157.282Z" fill="#FF748E"/>
<path d="M470.176 188.344L465.743 199.707L447.03 202.897C447.03 202.897 425.132 198.186 435.247 188.344C436.424 187.214 437.513 185.996 438.505 184.701C439.494 183.426 440.288 182.011 440.86 180.502C442.479 175.986 439.963 173.791 439.963 173.791C439.963 173.791 458.393 165.334 458.671 174.898C458.732 177.05 459.376 179.145 460.534 180.96C461.177 181.964 461.935 182.888 462.792 183.716C464.927 185.726 467.436 187.299 470.176 188.344V188.344Z" fill="#CE828D"/>
<path d="M530.654 176.147C530.166 176.147 528.264 177.61 526.669 178.917C525.372 179.985 524.275 180.951 524.275 180.951L521.227 170.88C521.943 170.513 522.63 170.094 523.285 169.626C524.011 169.09 524.645 168.456 524.645 167.91C524.645 166.627 527.513 155.815 529.639 159.975C531.766 164.135 531.576 176.147 530.654 176.147Z" fill="#CE828D"/>
<path opacity="0.1" d="M310.549 155.356L290.412 167.183C290.412 167.183 266.193 160.901 272.855 155.537C275.82 153.152 277.064 148.055 277.522 143.13C281.56 150.021 288.183 150.445 291.212 150.206C292.124 150.143 293.041 150.148 293.953 150.123C298.147 150.006 302 143.808 302.731 142.53C305.282 148.953 310.549 155.356 310.549 155.356Z" fill="black"/>
<path opacity="0.1" d="M332.182 242.357C332.182 242.44 332.182 242.518 332.182 242.581C331.997 244.244 324.233 247.019 324.233 247.019C324.233 247.019 288.567 251.452 285.427 248.482C282.5 245.751 271.41 242.864 269.742 242.435L272.117 236.095C272.117 236.095 327.188 237.202 329.407 237.938C330.47 238.319 331.451 240.347 332.182 242.357Z" fill="black"/>
<path d="M331.614 222.259C331.614 222.259 336.418 230.384 333.078 232.237C329.737 234.09 332.341 239.811 332.156 241.474C331.97 243.137 324.206 245.907 324.206 245.907C324.206 245.907 288.541 250.345 285.4 247.37C282.259 244.395 269.501 241.269 269.501 241.269C267.803 236.921 265.636 232.771 263.039 228.891C258.972 222.976 264.332 212.071 264.332 212.071C264.332 212.071 263.039 205.053 260.269 203.014C257.499 200.976 253.812 181.785 252.9 176.054C251.988 170.324 240.147 178.088 240.147 178.088C240.147 178.088 225.179 179.015 222.043 178.088C221.981 178.07 221.921 178.042 221.868 178.005C219.537 176.43 234.236 159.419 234.236 159.419C234.236 159.419 245.326 157.39 245.136 154.054C245.009 151.723 250.398 148.309 253.646 146.471C255.046 145.676 256.046 145.178 256.046 145.178H260.479C262.142 145.178 261.405 142.593 261.405 142.593C261.405 142.593 264.732 142.964 266.58 141.301C268.428 139.638 277.485 143.598 277.485 143.598C281.518 150.562 288.185 150.972 291.223 150.748C292.135 150.689 293.052 150.694 293.964 150.665C298.641 150.538 302.889 142.862 302.889 142.862C302.889 142.862 316.106 143.715 325.323 149.631C334.541 155.547 343.987 172.728 343.987 172.728C343.987 172.728 330.127 189.92 327.893 189.554C325.66 189.188 330.473 197.869 330.473 197.869L331.614 222.259Z" fill="#DCE6F2"/>
<path opacity="0.1" d="M253.632 146.48C253.115 148.221 252.524 150.24 252.329 151.103C251.964 152.766 248.086 154.434 248.086 154.434C248.086 154.434 244.385 159.419 244.755 160.345C245.126 161.272 241.615 164.778 240.132 168.104C238.649 171.431 223.15 178.088 223.15 178.088C222.721 178.112 222.29 178.084 221.868 178.005C219.537 176.429 234.236 159.419 234.236 159.419C234.236 159.419 245.326 157.39 245.136 154.054C244.994 151.732 250.383 148.319 253.632 146.48Z" fill="black"/>
<path opacity="0.1" d="M256.689 138.682C255.891 139.013 255.115 139.395 254.367 139.828L247.852 133.039C247.852 133.039 248.681 132.161 249.802 130.927C249.88 133.41 254.718 137.233 256.689 138.682Z" fill="black"/>
<path d="M249.378 130.776L244.013 134.102C244.013 134.102 238.468 135.2 236.434 139.823C234.401 144.447 228.519 145.558 228.519 145.558L224.827 151.66C224.827 151.66 215.585 155.561 215.029 167.183C214.473 178.805 222.052 178.088 222.052 178.088C222.052 178.088 237.575 171.436 239.053 168.105C240.531 164.774 244.047 161.277 243.677 160.345C243.306 159.414 247.003 154.435 247.003 154.435C247.003 154.435 250.904 152.767 251.25 151.104C251.597 149.441 253.469 143.486 253.469 143.486L256.981 139.823C256.981 139.823 248.085 133.732 249.378 130.776Z" fill="#DCE6F2"/>
<path opacity="0.1" d="M360.602 241.021C357.813 240.786 349.756 240.25 348.41 241.723C348.308 241.235 348.234 240.918 348.234 240.918L350.132 236.119C350.132 236.119 359.398 236.3 359.398 237.548C359.427 238.06 359.968 239.499 360.602 241.021Z" fill="black"/>
<path d="M337.162 167.183L343.989 172.728L347.13 182.891C347.13 182.891 351.198 191.392 353.602 195.83C356.006 200.268 356.928 207.286 356.928 207.286C356.928 207.286 357.479 210.612 358.591 211.719C359.703 212.826 358.591 216.343 358.591 216.343C358.591 216.343 359.883 220.405 360.991 221.888C362.098 223.37 360.991 230.203 360.991 230.203L361.478 232.973C361.478 232.973 363.39 235.933 362.283 236.114C361.176 236.294 361.542 240.015 361.542 240.015C361.542 240.015 348.788 238.723 348.237 240.942C348.237 240.942 346.204 235.397 346.574 233.549C346.945 231.7 343.985 226.721 343.985 226.721C343.985 226.721 342.692 224.687 343.248 222.468C343.804 220.249 340.844 213.967 340.844 213.967C340.844 213.967 340.288 208.422 339.181 208.793C338.074 209.164 337.332 206.394 337.147 205.282C336.962 204.17 333.08 196.781 333.08 196.781L325.32 187.354L337.162 167.183Z" fill="#DCE6F2"/>
<path opacity="0.1" d="M460.532 180.96C454.68 185.445 446.495 185.254 440.858 180.502C442.477 175.986 439.961 173.791 439.961 173.791C439.961 173.791 458.391 165.334 458.669 174.898C458.73 177.05 459.374 179.145 460.532 180.96V180.96Z" fill="black"/>
<path d="M450.975 183.643C459.664 183.643 466.708 176.599 466.708 167.909C466.708 159.22 459.664 152.176 450.975 152.176C442.286 152.176 435.242 159.22 435.242 167.909C435.242 176.599 442.286 183.643 450.975 183.643Z" fill="#CE828D"/>
<path opacity="0.1" d="M470.176 188.344L465.743 199.707L447.03 202.897C447.03 202.897 425.132 198.186 435.247 188.344C436.424 187.214 437.513 185.996 438.505 184.701C443.294 196.684 451.394 195.552 451.394 195.552C462.611 193.431 462.968 185.935 462.811 183.716C464.941 185.724 467.443 187.297 470.176 188.344V188.344Z" fill="black"/>
<path opacity="0.1" d="M526.669 178.917C525.372 179.985 524.275 180.95 524.275 180.95L521.227 170.879C521.943 170.513 522.63 170.094 523.285 169.626C524.601 171.323 525.869 175.678 526.669 178.917Z" fill="black"/>
<path opacity="0.1" d="M376.061 246.653C376.061 246.653 375.203 247.682 373.852 249.189C372.272 247.565 369.755 244.829 368.531 242.757C370.482 241.732 371.901 240.918 371.901 240.918L376.061 246.653Z" fill="black"/>
<path d="M526.984 182.799L520.327 184.891C520.327 184.891 510.626 189.871 509.241 192.207C507.856 194.543 485.125 201.907 485.125 201.907C485.817 204.677 478.746 215.489 478.746 215.489C478.746 215.489 477.917 224.917 475.142 229.491C472.703 233.495 474.537 243.634 475.034 246.127C475.098 246.478 475.142 246.678 475.142 246.678C475.142 246.678 419.144 250.282 417.759 247.785C417.69 247.655 417.64 247.515 417.613 247.37C416.847 244.283 421.436 234.549 422.89 233.095C424.411 231.569 422.251 221.176 422.251 221.176C422.251 221.176 408.473 230.184 406.118 234.344C403.762 238.504 379.645 248.068 379.645 248.068L375.744 250.018C375.744 250.018 367.429 241.981 368.399 239.899C369.37 237.816 376.475 235.212 376.475 235.212C376.475 235.212 391.443 223.849 392.569 223.151C393.435 222.496 394.183 221.7 394.784 220.796L396.173 219.82C396.173 219.82 397.149 218.845 399.778 217.743C402.406 216.64 408.649 208.735 408.649 208.735C408.649 208.735 415.16 201.805 415.994 198.493C416.649 196.191 417.635 193.997 418.92 191.978C421.966 191.483 424.826 190.191 427.211 188.232C431.341 184.93 438.267 184.921 438.359 184.921C443.129 197.264 451.376 196.138 451.376 196.138C464.593 193.645 462.725 183.677 462.725 183.677C462.725 183.677 472.118 178.259 474.195 178.4C476.273 178.541 486.12 178.951 488.475 180.2C490.831 181.448 497.346 179.093 497.346 179.093C497.346 179.093 500.809 176.318 504.828 175.625C508.846 174.932 515.64 172.299 515.64 172.299C515.64 172.299 519.381 168.28 521.878 168.973C524.375 169.665 526.984 182.799 526.984 182.799Z" fill="#FF748E"/>
<path opacity="0.1" d="M475.162 246.697C475.162 246.697 419.164 250.301 417.779 247.804C417.71 247.674 417.66 247.534 417.633 247.389C417.677 247.339 417.726 247.293 417.779 247.253L426.792 248.126C426.792 248.126 430.874 241.43 432.571 237.548C432.571 237.548 438.57 227.013 438.57 223.551C438.57 223.551 465.32 222.995 469.343 221.054C469.343 221.054 470.09 244.951 472.27 246.321L475.045 246.146C475.118 246.497 475.162 246.697 475.162 246.697Z" fill="black"/>
<path opacity="0.1" d="M433.626 330.181C432.997 331.205 432.723 333.493 432.606 335.419C429.519 335.258 424.852 333.741 424.852 333.741C424.655 332.385 424.243 331.068 423.633 329.84C424.642 328.562 425.403 327.792 425.403 327.792C425.403 327.792 434.811 328.24 433.626 330.181Z" fill="black"/>
<path opacity="0.1" d="M459.851 368.022C456.437 368.022 450.516 367.827 447.039 366.559C447.41 364.847 447.707 363.632 447.707 363.632L459.505 364.939C459.505 364.939 459.685 366.217 459.851 368.022Z" fill="black"/>
<path d="M478.215 269.151C477.01 276.356 475.382 283.483 473.339 290.497C473.339 290.497 470.705 300.607 470.842 303.45C470.978 306.294 468.891 323.622 468.891 323.622C468.891 323.622 466.535 332.493 467.091 336.511C467.647 340.53 462.214 361.462 462.214 361.462L462.492 366.866C462.492 366.866 445.998 367.563 444.335 363.54L445.028 358.828L446.413 345.802C446.413 345.802 448.217 331.244 447.388 327.757C446.559 324.27 445.228 310.317 445.228 310.317L445.086 325.285C445.086 325.285 442.594 330.001 439.819 331.108C437.044 332.215 436.63 334.034 433.723 334.297C430.816 334.561 424.852 332.634 424.852 332.634C424.626 331.072 424.108 329.567 423.325 328.196C422.077 326.119 423.325 319.047 423.325 319.047C423.325 319.047 424.432 314.336 422.769 313.229C421.106 312.122 419.443 304.636 420.136 302.416C420.287 301.929 420.175 301.07 419.916 299.978C419.267 297.149 417.697 292.706 417.19 288.659C416.958 287.106 416.979 285.527 417.253 283.982C418.497 277.88 417.804 268.863 417.804 268.863C417.804 268.863 415.59 249.321 417.804 247.794L426.817 248.672C426.817 248.672 430.899 241.976 432.596 238.094C432.596 238.094 438.595 227.56 438.595 224.092C438.595 224.092 465.345 223.541 469.369 221.6C469.369 221.6 470.115 245.497 472.295 246.863L475.177 246.687C475.177 246.687 480.015 257.924 478.215 269.151Z" fill="#575A89"/>
<path d="M465.103 321.047C465.068 321.562 464.914 322.063 464.654 322.51C463.83 324.319 462.04 327.08 461.026 327.665C459.363 328.64 451.881 325.031 451.76 323.715C451.742 322.815 451.857 321.918 452.101 321.052C452.276 320.32 452.452 319.764 452.452 319.764C452.452 319.764 462.85 322.125 464.644 321.013H464.674C464.947 320.808 465.079 320.847 465.103 321.047Z" fill="#CE828D"/>
<path opacity="0.1" d="M445.255 211.754C445.211 213.597 445.255 217.845 445.255 220.844C445.255 222.717 445.289 224.102 445.289 224.102H438.018C438.018 224.102 437.949 222.834 437.876 220.844C437.793 218.547 437.705 215.299 437.72 211.934C437.72 211.081 437.72 210.222 437.749 209.364C437.798 206.877 437.92 204.448 438.154 202.414C439.051 194.509 431.453 185.832 431.453 185.832C433.204 183.755 437.793 184.857 437.793 184.857C437.793 184.857 440.368 192.255 442.373 197.732C443.676 201.378 444.611 205.146 445.162 208.979C445.263 209.614 445.306 210.257 445.289 210.9C445.279 211.081 445.27 211.363 445.255 211.754Z" fill="black"/>
<path d="M445.815 211.754C445.771 213.597 445.815 217.845 445.815 220.844C445.815 222.717 445.849 224.102 445.849 224.102H438.572C438.572 224.102 438.509 222.834 438.436 220.844C438.353 218.547 438.265 215.299 438.28 211.934C438.28 211.081 438.28 210.222 438.309 209.364C438.358 206.877 438.48 204.448 438.714 202.414C439.611 194.509 432.008 185.832 432.008 185.832C433.764 183.755 438.348 184.857 438.348 184.857C438.348 184.857 440.918 192.255 442.927 197.732C444.229 201.379 445.163 205.146 445.717 208.979C445.818 209.614 445.861 210.257 445.844 210.9C445.839 211.081 445.824 211.363 445.815 211.754Z" fill="#575A89"/>
<path opacity="0.1" d="M475.924 206.852C475.792 207.52 475.67 208.617 475.543 209.9C475.28 212.49 475.002 215.84 474.568 218.006C474.324 219.186 474.027 220.005 473.661 220.156L471.876 220.844L469.876 221.61L467.252 222.024L467.74 220.844C468.052 220.108 468.477 219.088 468.92 218.006C469.935 215.538 471.037 212.714 471.11 211.973C471.144 211.646 471.256 210.895 471.388 209.9C471.505 209.032 471.632 207.979 471.73 206.852C472.008 203.784 472.076 200.18 471.11 198.322C469.379 194.996 465.258 182.511 465.258 182.511C465.934 180.646 467.927 179.609 469.842 180.126C469.842 180.126 473.602 192.499 473.666 194.167C473.729 195.835 476.48 204.077 475.924 206.852Z" fill="black"/>
<path d="M475.37 206.852C475.238 207.52 475.117 208.617 474.99 209.9C474.731 212.49 474.453 215.84 474.014 218.006C473.77 219.186 473.473 220.005 473.107 220.156L471.361 220.844C470.649 221.142 469.982 221.539 469.381 222.024L466.489 222.473C466.489 222.473 466.938 221.566 467.24 220.844C467.543 220.122 467.977 219.088 468.42 218.006C469.435 215.538 470.542 212.714 470.61 211.973C470.644 211.646 470.756 210.895 470.888 209.9C471.005 209.032 471.132 207.979 471.234 206.852C471.512 203.784 471.576 200.18 470.61 198.322C468.884 194.996 464.758 182.511 464.758 182.511C465.434 180.646 467.427 179.609 469.342 180.126C469.342 180.126 473.102 192.499 473.171 194.167C473.239 195.835 475.926 204.077 475.37 206.852Z" fill="#575A89"/>
<path d="M445.855 210.934C445.855 211.081 445.826 211.363 445.816 211.754L438.281 211.934C438.281 211.081 438.281 210.222 438.311 209.364L445.728 209.013C445.83 209.648 445.872 210.291 445.855 210.934Z" fill="white"/>
<path d="M445.855 224.102H438.574C438.574 224.102 438.511 222.834 438.438 220.844H445.821C445.841 222.717 445.855 224.102 445.855 224.102Z" fill="white"/>
<path d="M475.369 206.852C475.237 207.52 475.115 208.618 474.988 209.9H470.867C470.984 209.032 471.111 207.979 471.213 206.852H475.369Z" fill="white"/>
<path d="M473.993 218.006C473.749 219.186 473.452 220.005 473.086 220.157L471.34 220.844H467.219C467.531 220.108 467.955 219.089 468.399 218.006L473.993 218.006Z" fill="white"/>
<path opacity="0.05" d="M314.234 167.183C314.234 167.183 315.936 182.165 321.282 183.642C326.627 185.12 323.954 178.097 323.954 178.097L319.428 172.386L314.234 167.183Z" fill="black"/>
<path opacity="0.05" d="M278.75 194.113C278.75 194.113 299.063 214.406 307.861 210.471C316.659 206.535 288.236 208.666 278.75 194.113Z" fill="black"/>
<path opacity="0.05" d="M301.844 221.61C301.844 221.61 315.392 222.424 319.43 218.006C323.468 213.587 301.844 221.61 301.844 221.61Z" fill="black"/>
<path opacity="0.05" d="M292.12 238.86C291.525 238.435 316.666 237.645 323.469 232.52C330.272 227.394 308.399 250.521 292.12 238.86Z" fill="black"/>
<path opacity="0.05" d="M249.352 159.028C249.352 159.028 254.716 164.471 255.204 168.86C255.692 173.25 249.352 159.028 249.352 159.028Z" fill="black"/>
<path opacity="0.05" d="M262.961 163.754C262.961 163.754 262.474 178.205 268.419 180.951C274.364 183.696 261.015 174.674 262.961 163.754Z" fill="black"/>
<path opacity="0.05" d="M340.555 202.536C340.555 202.536 351.172 198.147 352.874 201C354.576 203.853 351.411 204.336 351.411 204.336L340.555 202.536Z" fill="black"/>
<path opacity="0.05" d="M354.338 216.679C349.949 219.425 346.657 219.186 346.974 221.615C347.291 224.043 347.681 223.102 350.647 222.478C353.612 221.854 354.338 216.679 354.338 216.679Z" fill="black"/>
<path opacity="0.05" d="M357.576 227.984C357.576 227.984 352.294 232.539 350.641 232.783C348.988 233.027 357.576 227.984 357.576 227.984Z" fill="black"/>
<path opacity="0.1" d="M432.581 265.103C431.888 264.415 455.424 265.103 461.013 263.64C461.013 263.64 463.847 267.77 458.419 268.746C452.991 269.721 428.938 271.184 428.938 271.184C428.938 271.184 436.219 268.751 432.581 265.103Z" fill="black"/>
<path opacity="0.1" d="M426.285 294.262C425.427 295.725 422.564 298.018 419.945 299.954C419.296 297.125 417.726 292.682 417.219 288.634L422.301 286.245C422.135 286.245 427.987 291.346 426.285 294.262Z" fill="black"/>
<path opacity="0.1" d="M401.289 219.932C401.289 219.932 417.042 217.328 421.894 211.934C421.894 211.934 420.061 221.176 401.289 219.932Z" fill="black"/>
<path opacity="0.1" d="M397.344 229.14C397.344 229.14 399.782 230.115 403.908 229.14C408.034 228.165 397.344 229.14 397.344 229.14Z" fill="black"/>
<path opacity="0.1" d="M432.009 227.984C432.009 227.984 423.167 235.368 425.323 236.992C427.479 238.616 432.009 227.984 432.009 227.984Z" fill="black"/>
<path opacity="0.1" d="M432.005 214.314C432.005 214.314 424.353 214.163 426.28 218.006C428.206 221.849 432.005 214.314 432.005 214.314Z" fill="black"/>
<path opacity="0.1" d="M446.415 163.969C446.894 163.918 447.356 163.765 447.771 163.52C449.705 162.636 451.877 162.415 453.95 162.891C456.92 163.584 459.393 165.652 462.289 166.612C463.957 167.168 466.191 167.124 467.015 165.569C467.742 164.188 466.884 162.535 466.04 161.218C464.577 158.882 462.972 156.449 460.539 155.122C459.138 154.44 457.641 153.974 456.101 153.742C453.009 153.142 449.839 152.684 446.712 153.093C444.274 153.415 437.217 155.044 438.329 158.795C438.885 160.672 440.845 160.409 442.313 161.048C443.708 161.662 444.859 164.008 446.415 163.969Z" fill="black"/>
<path d="M446.415 162.862C446.893 162.806 447.354 162.654 447.771 162.413C449.704 161.527 451.877 161.306 453.95 161.784C456.92 162.477 459.393 164.54 462.289 165.505C463.957 166.061 466.191 166.017 467.015 164.462C467.742 163.077 466.884 161.428 466.04 160.111C464.577 157.775 462.972 155.342 460.539 154.015C459.139 153.33 457.642 152.865 456.101 152.635C453.009 152.035 449.839 151.577 446.712 151.982C444.274 152.303 437.217 153.932 438.329 157.688C438.885 159.565 440.845 159.297 442.313 159.941C443.708 160.55 444.859 162.886 446.415 162.862Z" fill="#663D5C"/>
<path opacity="0.1" d="M464.745 157.283L436.039 154.357C436.039 154.357 436.141 154.015 436.317 153.381C442.34 151.786 457.23 148.685 464.36 154.722L464.745 157.283Z" fill="black"/>
<path d="M433.695 154.742C433.695 154.742 459.972 146.114 466.717 158.19C466.717 158.156 452.75 160.209 433.695 154.742Z" fill="#575A89"/>
<path opacity="0.1" d="M446.108 301.641C445.626 301.88 445.041 301.684 444.801 301.202C444.593 300.724 444.524 300.196 444.601 299.68L444.733 297.369C444.933 293.848 445.138 290.278 446.23 286.922C447.462 283.374 449.46 280.14 452.083 277.451" fill="black"/>
<path opacity="0.1" d="M442.125 231.798C442.125 231.798 455.293 228.384 458.399 229.574C461.506 230.764 460.458 232.612 458.399 232.798C456.341 232.983 442.125 231.798 442.125 231.798Z" fill="black"/>
<path opacity="0.1" d="M438.281 240.923C441.207 242.957 464.744 242.957 464.744 242.957L438.281 240.923Z" fill="black"/>
<path opacity="0.1" d="M330.041 247.019C330.041 247.019 331.017 249.423 324.74 251.823C318.463 254.222 330.041 247.019 330.041 247.019Z" fill="black"/>
<path opacity="0.1" d="M325.33 265.317C325.33 265.317 317.117 265.132 319.931 269.014C322.745 272.896 325.33 265.317 325.33 265.317Z" fill="black"/>
<path opacity="0.1" d="M274.883 249.102C274.883 249.102 287.817 256.076 293.176 256.817C298.536 257.558 283.383 259.875 274.883 249.102Z" fill="black"/>
<path opacity="0.1" d="M285.969 306.157C285.969 306.157 286.613 309.483 292.114 311.146C297.615 312.809 301.824 311.517 301.868 311.146C301.912 310.776 285.969 306.157 285.969 306.157Z" fill="black"/>
<path opacity="0.1" d="M300.664 379.278C300.664 379.278 307.458 382.692 308.979 379.278Z" fill="black"/>
<path opacity="0.1" d="M347.369 311.976C347.369 311.976 346.248 315.594 344.18 315.721Z" fill="black"/>
<path opacity="0.1" d="M467.002 163.35C466.183 164.91 463.944 164.949 462.276 164.393C459.379 163.418 456.912 161.369 453.937 160.672C451.864 160.196 449.692 160.417 447.758 161.301C447.343 161.546 446.881 161.699 446.402 161.75C444.846 161.774 443.695 159.443 442.305 158.824C440.842 158.18 438.891 158.443 438.321 156.566C438.298 156.494 438.28 156.42 438.267 156.346C438.166 156.787 438.185 157.246 438.321 157.678C438.877 159.555 440.837 159.287 442.305 159.931C443.695 160.54 444.846 162.857 446.402 162.857C446.88 162.802 447.341 162.649 447.758 162.408C449.691 161.522 451.864 161.3 453.937 161.779C456.907 162.472 459.379 164.535 462.276 165.5C463.944 166.051 466.178 166.012 467.002 164.457C467.27 163.925 467.348 163.317 467.222 162.735C467.179 162.95 467.105 163.157 467.002 163.35V163.35Z" fill="black"/>
<path opacity="0.1" d="M465.1 321.047C465.064 321.562 464.911 322.063 464.651 322.51L452.078 321.047C452.254 320.315 452.429 319.759 452.429 319.759C452.429 319.759 462.827 322.12 464.622 321.008H464.651L465.1 321.047Z" fill="black"/>
<path d="M451.975 318.54C451.927 318.681 451.727 320.437 451.727 320.437L465.694 322.051V320.588L451.975 318.54Z" fill="#575A89"/>
<path opacity="0.1" d="M60.2917 333.98C68.5472 333.98 75.2396 333.061 75.2396 331.927C75.2396 330.793 68.5472 329.874 60.2917 329.874C52.0362 329.874 45.3438 330.793 45.3438 331.927C45.3438 333.061 52.0362 333.98 60.2917 333.98Z" fill="#2644FF"/>
<path opacity="0.1" d="M117.557 339.789C125.813 339.789 132.505 338.87 132.505 337.736C132.505 336.602 125.813 335.683 117.557 335.683C109.302 335.683 102.609 336.602 102.609 337.736C102.609 338.87 109.302 339.789 117.557 339.789Z" fill="#2644FF"/>
<path opacity="0.1" d="M184.995 331.927C193.25 331.927 199.943 331.008 199.943 329.874C199.943 328.74 193.25 327.821 184.995 327.821C176.739 327.821 170.047 328.74 170.047 329.874C170.047 331.008 176.739 331.927 184.995 331.927Z" fill="#2644FF"/>
<path opacity="0.1" d="M94.6347 355.722C100.504 355.722 105.262 355.069 105.262 354.264C105.262 353.459 100.504 352.806 94.6347 352.806C88.7657 352.806 84.0078 353.459 84.0078 354.264C84.0078 355.069 88.7657 355.722 94.6347 355.722Z" fill="#2644FF"/>
<path opacity="0.1" d="M154.064 354.264C159.934 354.264 164.691 353.611 164.691 352.805C164.691 352 159.934 351.347 154.064 351.347C148.195 351.347 143.438 352 143.438 352.805C143.438 353.611 148.195 354.264 154.064 354.264Z" fill="#2644FF"/>
<path d="M117.872 337.272C117.872 337.272 96.9012 268.546 121.154 241.02C139.292 220.43 159.878 222.892 169.1 225.438C173.93 226.723 177.951 230.065 180.098 234.578C183.321 241.532 182.736 252.822 159.985 265.995C121.886 288.054 119.506 318.311 119.506 318.311L117.872 337.272Z" fill="#181A82"/>
<path d="M165.82 235.212C165.82 235.212 104.024 254.535 117.875 337.297" stroke="#565987"/>
<path d="M129.719 242.113C129.719 242.113 138.229 247.848 135.522 256.466" stroke="#565987"/>
<path d="M159.62 247.219C159.62 247.219 154.416 241.927 148.086 244.844" stroke="#565987"/>
<path d="M135.19 273.832C135.19 273.832 126.056 269.194 123.695 275.003" stroke="#565987"/>
<path d="M112.586 283.494C112.586 283.494 119.448 282.948 119.57 286.23" stroke="#565987"/>
<path d="M117.031 337.819C117.031 337.819 141.582 287.883 148.327 288.961C151.531 289.483 153.009 292.633 153.691 295.789C154.521 299.882 154.054 304.132 152.355 307.947C148.854 315.95 139.495 331.132 117.031 337.819Z" fill="#181A82"/>
<path d="M148.145 298.442C148.145 298.442 122.37 335.814 117.391 337.458" stroke="#565987"/>
<path d="M150.51 304.279H144.492" stroke="#565987"/>
<path d="M143.302 317.95L133.875 318.365" stroke="#565987"/>
<path d="M137.57 307.011L138.594 311.922" stroke="#565987"/>
<path d="M127.539 321.958L127.724 326.426" stroke="#565987"/>
<path d="M117.754 337.819C117.754 337.819 93.2036 287.883 86.4587 288.961C83.2545 289.483 81.7768 292.633 81.094 295.789C80.2668 299.882 80.7338 304.131 82.4303 307.947C85.932 315.95 95.2909 331.132 117.754 337.819Z" fill="#181A82"/>
<path d="M86.6406 298.442C86.6406 298.442 112.411 335.814 117.366 337.458" stroke="#565987"/>
<path d="M84.2656 304.279H90.2838" stroke="#565987"/>
<path d="M91.4766 317.95L100.904 318.365" stroke="#565987"/>
<path d="M97.2117 307.011L96.1875 311.922" stroke="#565987"/>
<path d="M107.248 321.958L107.062 326.426" stroke="#565987"/>
<path d="M159.911 349.484C160.579 348.941 161.067 348.209 161.311 347.382C161.531 346.527 161.125 345.633 160.335 345.237C159.438 344.895 158.477 345.515 157.75 346.144C157.024 346.773 156.195 347.485 155.244 347.353C156.239 346.452 156.687 345.095 156.424 343.778C156.382 343.511 156.269 343.26 156.097 343.052C155.609 342.52 154.692 342.749 154.097 343.169C152.2 344.5 151.659 347.07 151.659 349.392C151.469 348.558 151.63 347.685 151.625 346.826C151.62 345.968 151.386 345.022 150.649 344.559C150.2 344.318 149.696 344.198 149.186 344.212C148.333 344.183 147.387 344.266 146.802 344.89C146.08 345.666 146.265 346.963 146.894 347.817C147.523 348.67 148.484 349.206 149.362 349.767C150.069 350.189 150.672 350.764 151.127 351.45C151.178 351.548 151.222 351.649 151.259 351.752H156.599C157.801 351.15 158.915 350.387 159.911 349.484V349.484Z" fill="#181A82"/>
<path d="M66.3589 329.367C67.025 328.821 67.511 328.086 67.7538 327.26C67.9766 326.403 67.5701 325.506 66.7784 325.109C65.881 324.768 64.9251 325.387 64.1984 326.016C63.4718 326.645 62.6378 327.362 61.6868 327.226C62.6827 326.325 63.1311 324.967 62.867 323.651C62.8255 323.384 62.7126 323.133 62.5403 322.924C62.0526 322.393 61.1406 322.622 60.5407 323.041C58.6484 324.373 58.1022 326.943 58.1022 329.264C57.912 328.43 58.073 327.557 58.0681 326.704C58.0632 325.85 57.8291 324.895 57.0927 324.431C56.6435 324.19 56.1391 324.071 55.6296 324.085C54.7761 324.056 53.83 324.144 53.2448 324.763C52.523 325.538 52.7132 326.84 53.3423 327.689C53.9714 328.538 54.9273 329.079 55.7808 329.669C56.4877 330.089 57.0911 330.662 57.5462 331.347C57.5989 331.444 57.6429 331.545 57.6779 331.649H63.0182C64.2307 331.044 65.3547 330.276 66.3589 329.367V329.367Z" fill="#181A82"/>
<path d="M97.5358 349.484C98.2042 348.941 98.6923 348.209 98.9355 347.382C99.1558 346.527 98.7497 345.633 97.9601 345.237C97.0628 344.895 96.102 345.515 95.3753 346.144C94.6486 346.773 93.8147 347.485 92.8637 347.353C93.858 346.452 94.3077 345.095 94.0488 343.778C94.0056 343.511 93.891 343.26 93.7171 343.052C93.2294 342.52 92.3175 342.749 91.7225 343.169C89.8253 344.5 89.284 347.07 89.284 349.392C89.0889 348.558 89.2498 347.685 89.2498 346.826C89.2498 345.968 89.006 345.022 88.2744 344.559C87.8252 344.318 87.3209 344.198 86.8113 344.212C85.9579 344.183 85.0069 344.266 84.4265 344.89C83.7047 345.666 83.89 346.963 84.5192 347.817C85.1483 348.67 86.1042 349.206 86.9869 349.767C87.6941 350.189 88.2974 350.764 88.7524 351.45C88.8034 351.547 88.8458 351.648 88.8792 351.752H94.2439C95.4386 351.148 96.5459 350.386 97.5358 349.484V349.484Z" fill="#181A82"/>
<path d="M185.972 308.82C185.972 308.82 187.972 311.439 185.046 315.394C182.12 319.349 179.706 322.709 180.681 325.148C180.681 325.148 185.099 317.832 188.694 317.706C192.288 317.579 189.923 313.243 185.972 308.82Z" fill="#181A82"/>
<path opacity="0.1" d="M185.967 308.82C186.141 309.072 186.277 309.348 186.372 309.639C189.883 313.76 191.737 317.608 188.381 317.706C185.241 317.793 181.471 323.407 180.578 324.826C180.606 324.936 180.642 325.043 180.685 325.148C180.685 325.148 185.104 317.832 188.698 317.706C192.293 317.579 189.918 313.243 185.967 308.82Z" fill="black"/>
<path d="M189.702 312.156C189.702 313.077 189.597 313.829 189.467 313.829C189.337 313.829 189.227 313.077 189.227 312.156C189.227 311.234 189.362 311.668 189.492 311.668C189.622 311.668 189.702 311.234 189.702 312.156Z" fill="#FFD037"/>
<path d="M190.962 313.243C190.152 313.682 189.445 313.95 189.387 313.838C189.328 313.726 189.933 313.277 190.743 312.863C191.552 312.448 191.23 312.741 191.294 312.863C191.357 312.985 191.776 312.819 190.962 313.243Z" fill="#FEB762"/>
<path d="M175.385 308.82C175.385 308.82 173.385 311.439 176.312 315.394C179.238 319.349 181.676 322.709 180.701 325.148C180.701 325.148 176.282 317.832 172.688 317.706C169.094 317.579 171.454 313.243 175.385 308.82Z" fill="#181A82"/>
<path opacity="0.1" d="M175.386 308.82C175.212 309.072 175.074 309.348 174.977 309.639C171.47 313.76 169.612 317.608 172.972 317.706C176.113 317.793 179.883 323.407 180.775 324.826C180.748 324.936 180.712 325.043 180.668 325.148C180.668 325.148 176.249 317.832 172.655 317.706C169.061 317.579 171.455 313.243 175.386 308.82Z" fill="black"/>
<path d="M171.664 312.156C171.664 313.077 171.769 313.829 171.899 313.829C172.029 313.829 172.139 313.077 172.139 312.156C172.139 311.234 172.004 311.668 171.874 311.668C171.744 311.668 171.664 311.234 171.664 312.156Z" fill="#FFD037"/>
<path d="M170.385 313.243C171.194 313.682 171.901 313.95 171.96 313.838C172.018 313.726 171.414 313.277 170.604 312.863C169.794 312.448 170.116 312.741 170.053 312.863C169.989 312.985 169.575 312.819 170.385 313.243Z" fill="#FFD037"/>
<path d="M172.305 324.807C172.305 324.807 177.903 324.636 179.591 323.432C181.278 322.227 188.204 320.798 188.623 322.724C189.042 324.651 197.041 332.308 190.715 332.361C184.39 332.415 176.026 331.386 174.343 330.352C172.661 329.318 172.305 324.807 172.305 324.807Z" fill="#A8A8A8"/>
<path opacity="0.2" d="M190.828 331.688C184.488 331.742 176.139 330.713 174.456 329.679C173.174 328.898 172.662 326.094 172.506 324.802H172.32C172.32 324.802 172.671 329.318 174.359 330.347C176.046 331.376 184.41 332.405 190.731 332.356C192.555 332.356 193.169 331.693 193.169 330.732C192.887 331.317 192.189 331.678 190.828 331.688Z" fill="black"/>
<defs>
<linearGradient id="paint0_linear" x1="531.292" y1="396.947" x2="531.292" y2="99.8563" gradientUnits="userSpaceOnUse">
<stop stop-color="#808080" stop-opacity="0.25"/>
<stop offset="0.54" stop-color="#808080" stop-opacity="0.12"/>
<stop offset="1" stop-color="#808080" stop-opacity="0.1"/>
</linearGradient>
</defs>
</svg>
