<svg width="203" height="60" viewBox="0 0 203 60" fill="none" xmlns="http://www.w3.org/2000/svg">
<mask id="mask0" mask-type="alpha" maskUnits="userSpaceOnUse" x="0" y="0" width="203" height="60">
<path fill-rule="evenodd" clip-rule="evenodd" d="M0 6.10352e-05H202.5V60H0V6.10352e-05Z" fill="white"/>
</mask>
<g mask="url(#mask0)">
<path fill-rule="evenodd" clip-rule="evenodd" d="M195 60.0001H7.5C3.3 60.0001 0 56.7001 0 52.5001V7.50006C0 3.30006 3.3 6.10352e-05 7.5 6.10352e-05H195C199.2 6.10352e-05 202.5 3.30006 202.5 7.50006V52.5001C202.5 56.7001 199.2 60.0001 195 60.0001Z" fill="black"/>
</g>
<path fill-rule="evenodd" clip-rule="evenodd" d="M113.4 19.5001V10.5001H114.75L119.1 17.5501V10.5001H120.3V19.5001H119.1L114.45 12.1501V19.5001H113.4ZM104.7 17.5501C105.3 18.1501 106.2 18.6001 107.1 18.6001C108 18.6001 108.9 18.3001 109.5 17.5501C110.1 16.9501 110.55 16.0501 110.55 15.0001C110.55 13.9501 110.25 13.0501 109.5 12.4501C108.9 11.8501 108 11.4001 107.1 11.4001C106.2 11.4001 105.3 11.7001 104.7 12.4501C104.1 13.0501 103.65 13.9501 103.65 15.0001C103.65 16.0501 103.95 16.9501 104.7 17.5501ZM110.4 18.3001C109.5 19.2001 108.45 19.6501 107.1 19.6501C105.75 19.6501 104.7 19.2001 103.8 18.3001C102.9 17.4001 102.45 16.3501 102.45 15.0001C102.45 13.6501 102.9 12.6001 103.8 11.7001C104.7 10.8001 105.75 10.3501 107.1 10.3501C108.45 10.3501 109.5 10.8001 110.4 11.7001C111.3 12.6001 111.75 13.6501 111.75 15.0001C111.75 16.3501 111.3 17.4001 110.4 18.3001ZM96.1501 19.5001H94.9501V11.5501H92.4001V10.5001H98.5501V11.5501H96.0001V19.5001H96.1501ZM89.8501 19.5001H91.0501V10.5001H89.8501V19.5001ZM82.9501 19.5001H81.7501V11.5501H79.2001V10.5001H85.5001V11.5501H82.9501V19.5001ZM78.0001 11.5501H73.9501V14.4001H77.7001V15.4501H73.9501V18.3001H78.0001V19.5001H72.7501V10.5001H78.0001V11.5501ZM71.1001 15.3001C71.1001 16.5001 70.8001 17.5501 70.0501 18.3001C69.1501 19.2001 68.1001 19.6501 66.7501 19.6501C65.4001 19.6501 64.3501 19.2001 63.4501 18.3001C62.5501 17.4001 62.1001 16.3501 62.1001 15.0001C62.1001 13.6501 62.5501 12.6001 63.4501 11.7001C64.3501 10.8001 65.4001 10.3501 66.7501 10.3501C67.3501 10.3501 67.9501 10.5001 68.5501 10.8001C69.1501 11.1001 69.6001 11.4001 69.9001 11.8501L69.1501 12.6001C68.5501 11.8501 67.8001 11.5501 66.7501 11.5501C65.8501 11.5501 64.9501 11.8501 64.3501 12.6001C63.6001 13.2001 63.3001 14.1001 63.3001 15.1501C63.3001 16.2001 63.6001 17.1001 64.3501 17.7001C65.1001 18.3001 65.8501 18.7501 66.7501 18.7501C67.8001 18.7501 68.5501 18.4501 69.3001 17.7001C69.7501 17.2501 70.0501 16.6501 70.0501 15.9001H66.7501V14.7001H71.1001V15.3001Z" fill="white"/>
<path d="M113.4 19.5001H113.373V19.5271H113.4V19.5001ZM113.4 10.5001V10.4731H113.373V10.5001H113.4ZM114.75 10.5001L114.773 10.4859L114.765 10.4731H114.75V10.5001ZM119.1 17.5501L119.077 17.5642L119.127 17.6452V17.5501H119.1ZM119.1 10.5001V10.4731H119.073V10.5001H119.1ZM120.3 10.5001H120.327V10.4731H120.3V10.5001ZM120.3 19.5001V19.5271H120.327V19.5001H120.3ZM119.1 19.5001L119.077 19.5145L119.085 19.5271H119.1V19.5001ZM114.45 12.1501L114.473 12.1356L114.423 12.0569V12.1501H114.45ZM114.45 19.5001V19.5271H114.477V19.5001H114.45ZM104.7 17.5501L104.719 17.5309L104.717 17.529L104.7 17.5501ZM109.5 17.5501L109.481 17.5309L109.479 17.5332L109.5 17.5501ZM109.5 12.4501L109.481 12.4693L109.483 12.4712L109.5 12.4501ZM104.7 12.4501L104.719 12.4693L104.721 12.4669L104.7 12.4501ZM94.9501 19.5001H94.9231V19.5271H94.9501V19.5001ZM94.9501 11.5501H94.9771V11.5231H94.9501V11.5501ZM92.4001 11.5501H92.3731V11.5771H92.4001V11.5501ZM92.4001 10.5001V10.4731H92.3731V10.5001H92.4001ZM98.5501 10.5001H98.5771V10.4731H98.5501V10.5001ZM98.5501 11.5501V11.5771H98.5771V11.5501H98.5501ZM96.0001 11.5501V11.5231H95.9731V11.5501H96.0001ZM96.0001 19.5001H95.9731V19.5271H96.0001V19.5001ZM89.8501 19.5001H89.8231V19.5271H89.8501V19.5001ZM91.0501 19.5001V19.5271H91.0771V19.5001H91.0501ZM91.0501 10.5001H91.0771V10.4731H91.0501V10.5001ZM89.8501 10.5001V10.4731H89.8231V10.5001H89.8501ZM82.9501 19.5001V19.5271H82.9771V19.5001H82.9501ZM81.7501 19.5001H81.7231V19.5271H81.7501V19.5001ZM81.7501 11.5501H81.7771V11.5231H81.7501V11.5501ZM79.2001 11.5501H79.1731V11.5771H79.2001V11.5501ZM79.2001 10.5001V10.4731H79.1731V10.5001H79.2001ZM85.5001 10.5001H85.5271V10.4731H85.5001V10.5001ZM85.5001 11.5501V11.5771H85.5271V11.5501H85.5001ZM82.9501 11.5501V11.5231H82.9231V11.5501H82.9501ZM78.0001 11.5501V11.5771H78.0271V11.5501H78.0001ZM73.9501 11.5501V11.5231H73.9231V11.5501H73.9501ZM73.9501 14.4001H73.9231V14.4271H73.9501V14.4001ZM77.7001 14.4001H77.7271V14.3731H77.7001V14.4001ZM77.7001 15.4501V15.4771H77.7271V15.4501H77.7001ZM73.9501 15.4501V15.4231H73.9231V15.4501H73.9501ZM73.9501 18.3001H73.9231V18.3271H73.9501V18.3001ZM78.0001 18.3001H78.0271V18.2731H78.0001V18.3001ZM78.0001 19.5001V19.5271H78.0271V19.5001H78.0001ZM72.7501 19.5001H72.7231V19.5271H72.7501V19.5001ZM72.7501 10.5001V10.4731H72.7231V10.5001H72.7501ZM78.0001 10.5001H78.0271V10.4731H78.0001V10.5001ZM69.9001 11.8501L69.9192 11.8692L69.9348 11.8535L69.9226 11.8351L69.9001 11.8501ZM69.1501 12.6001L69.129 12.6169L69.1479 12.6405L69.1692 12.6192L69.1501 12.6001ZM64.3501 12.6001L64.3674 12.6217L64.3712 12.6169L64.3501 12.6001ZM70.0501 15.9001H70.0771V15.8731H70.0501V15.9001ZM66.7501 15.9001H66.7231V15.9271H66.7501V15.9001ZM66.7501 14.7001V14.6731H66.7231V14.7001H66.7501ZM71.1001 14.7001H71.1271V14.6731H71.1001V14.7001ZM113.427 19.5001V10.5001H113.373V19.5001H113.427ZM113.4 10.5271H114.75V10.4731H113.4V10.5271ZM114.727 10.5142L119.077 17.5642L119.123 17.5359L114.773 10.4859L114.727 10.5142ZM119.127 17.5501V10.5001H119.073V17.5501H119.127ZM119.1 10.5271H120.3V10.4731H119.1V10.5271ZM120.273 10.5001V19.5001H120.327V10.5001H120.273ZM120.3 19.4731H119.1V19.5271H120.3V19.4731ZM119.123 19.4856L114.473 12.1356L114.427 12.1645L119.077 19.5145L119.123 19.4856ZM114.423 12.1501V19.5001H114.477V12.1501H114.423ZM114.45 19.4731H113.4V19.5271H114.45V19.4731ZM104.681 17.5692C105.285 18.1732 106.192 18.6271 107.1 18.6271V18.5731C106.209 18.5731 105.315 18.1269 104.719 17.531L104.681 17.5692ZM107.1 18.6271C108.006 18.6271 108.915 18.3251 109.521 17.5669L109.479 17.5332C108.886 18.2751 107.994 18.5731 107.1 18.5731V18.6271ZM109.519 17.5692C110.124 16.9646 110.577 16.0579 110.577 15.0001H110.523C110.523 16.0422 110.076 16.9355 109.481 17.531L109.519 17.5692ZM110.577 15.0001C110.577 13.9451 110.276 13.0358 109.517 12.429L109.483 12.4712C110.225 13.0643 110.523 13.955 110.523 15.0001H110.577ZM109.519 12.431C108.915 11.8269 108.009 11.3731 107.1 11.3731V11.4271C107.992 11.4271 108.885 11.8732 109.481 12.4692L109.519 12.431ZM107.1 11.3731C106.194 11.3731 105.286 11.675 104.679 12.4332L104.721 12.4669C105.315 11.7251 106.206 11.4271 107.1 11.4271V11.3731ZM104.681 12.431C104.076 13.0355 103.623 13.9422 103.623 15.0001H103.677C103.677 13.9579 104.124 13.0646 104.719 12.4692L104.681 12.431ZM103.623 15.0001C103.623 16.055 103.925 16.9643 104.683 17.5712L104.717 17.529C103.976 16.9358 103.677 16.0451 103.677 15.0001H103.623ZM110.381 18.281C109.486 19.1759 108.443 19.6231 107.1 19.6231V19.6771C108.457 19.6771 109.514 19.2242 110.419 18.3192L110.381 18.281ZM107.1 19.6231C105.757 19.6231 104.714 19.1759 103.819 18.281L103.781 18.3192C104.686 19.2242 105.743 19.6771 107.1 19.6771V19.6231ZM103.819 18.281C102.924 17.386 102.477 16.3429 102.477 15.0001H102.423C102.423 16.3572 102.876 17.4141 103.781 18.3192L103.819 18.281ZM102.477 15.0001C102.477 13.6572 102.924 12.6141 103.819 11.7192L103.781 11.681C102.876 12.586 102.423 13.6429 102.423 15.0001H102.477ZM103.819 11.7192C104.714 10.8242 105.757 10.3771 107.1 10.3771V10.3231C105.743 10.3231 104.686 10.7759 103.781 11.681L103.819 11.7192ZM107.1 10.3771C108.443 10.3771 109.486 10.8242 110.381 11.7192L110.419 11.681C109.514 10.7759 108.457 10.3231 107.1 10.3231V10.3771ZM110.381 11.7192C111.276 12.6141 111.723 13.6572 111.723 15.0001H111.777C111.777 13.6429 111.324 12.586 110.419 11.681L110.381 11.7192ZM111.723 15.0001C111.723 16.3429 111.276 17.386 110.381 18.281L110.419 18.3192C111.324 17.4141 111.777 16.3572 111.777 15.0001H111.723ZM96.1501 19.4731H94.9501V19.5271H96.1501V19.4731ZM94.9771 19.5001V11.5501H94.9231V19.5001H94.9771ZM94.9501 11.5231H92.4001V11.5771H94.9501V11.5231ZM92.4271 11.5501V10.5001H92.3731V11.5501H92.4271ZM92.4001 10.5271H98.5501V10.4731H92.4001V10.5271ZM98.5231 10.5001V11.5501H98.5771V10.5001H98.5231ZM98.5501 11.5231H96.0001V11.5771H98.5501V11.5231ZM95.9731 11.5501V19.5001H96.0271V11.5501H95.9731ZM96.0001 19.5271H96.1501V19.4731H96.0001V19.5271ZM89.8501 19.5271H91.0501V19.4731H89.8501V19.5271ZM91.0771 19.5001V10.5001H91.0231V19.5001H91.0771ZM91.0501 10.4731H89.8501V10.5271H91.0501V10.4731ZM89.8231 10.5001V19.5001H89.8771V10.5001H89.8231ZM82.9501 19.4731H81.7501V19.5271H82.9501V19.4731ZM81.7771 19.5001V11.5501H81.7231V19.5001H81.7771ZM81.7501 11.5231H79.2001V11.5771H81.7501V11.5231ZM79.2271 11.5501V10.5001H79.1731V11.5501H79.2271ZM79.2001 10.5271H85.5001V10.4731H79.2001V10.5271ZM85.4731 10.5001V11.5501H85.5271V10.5001H85.4731ZM85.5001 11.5231H82.9501V11.5771H85.5001V11.5231ZM82.9231 11.5501V19.5001H82.9771V11.5501H82.9231ZM78.0001 11.5231H73.9501V11.5771H78.0001V11.5231ZM73.9231 11.5501V14.4001H73.9771V11.5501H73.9231ZM73.9501 14.4271H77.7001V14.3731H73.9501V14.4271ZM77.6731 14.4001V15.4501H77.7271V14.4001H77.6731ZM77.7001 15.4231H73.9501V15.4771H77.7001V15.4231ZM73.9231 15.4501V18.3001H73.9771V15.4501H73.9231ZM73.9501 18.3271H78.0001V18.2731H73.9501V18.3271ZM77.9731 18.3001V19.5001H78.0271V18.3001H77.9731ZM78.0001 19.4731H72.7501V19.5271H78.0001V19.4731ZM72.7771 19.5001V10.5001H72.7231V19.5001H72.7771ZM72.7501 10.5271H78.0001V10.4731H72.7501V10.5271ZM77.9731 10.5001V11.5501H78.0271V10.5001H77.9731ZM71.0731 15.3001C71.0731 16.4959 70.7742 17.5378 70.031 18.281L70.0692 18.3192C70.826 17.5623 71.1271 16.5042 71.1271 15.3001H71.0731ZM70.031 18.281C69.1361 19.1759 68.093 19.6231 66.7501 19.6231V19.6771C68.1072 19.6771 69.1641 19.2242 70.0692 18.3192L70.031 18.281ZM66.7501 19.6231C65.4072 19.6231 64.3641 19.1759 63.4692 18.281L63.431 18.3192C64.3361 19.2242 65.393 19.6771 66.7501 19.6771V19.6231ZM63.4692 18.281C62.5743 17.386 62.1271 16.3429 62.1271 15.0001H62.0731C62.0731 16.3572 62.5259 17.4141 63.431 18.3192L63.4692 18.281ZM62.1271 15.0001C62.1271 13.6572 62.5743 12.6141 63.4692 11.7192L63.431 11.681C62.5259 12.586 62.0731 13.6429 62.0731 15.0001H62.1271ZM63.4692 11.7192C64.3641 10.8242 65.4072 10.3771 66.7501 10.3771V10.3231C65.393 10.3231 64.3361 10.7759 63.431 11.681L63.4692 11.7192ZM66.7501 10.3771C67.3454 10.3771 67.9413 10.5259 68.538 10.8242L68.5622 10.7759C67.9589 10.4743 67.3548 10.3231 66.7501 10.3231V10.3771ZM68.538 10.8242C69.1369 11.1236 69.5816 11.4211 69.8776 11.865L69.9226 11.8351C69.6186 11.3791 69.1633 11.0765 68.5622 10.7759L68.538 10.8242ZM69.881 11.831L69.131 12.581L69.1692 12.6192L69.9192 11.8692L69.881 11.831ZM69.1712 12.5832C68.565 11.8255 67.8065 11.5231 66.7501 11.5231V11.5771C67.7937 11.5771 68.5352 11.8746 69.129 12.6169L69.1712 12.5832ZM66.7501 11.5231C65.8444 11.5231 64.9355 11.825 64.329 12.5832L64.3712 12.6169C64.9647 11.8751 65.8558 11.5771 66.7501 11.5771V11.5231ZM64.3332 12.579C63.5747 13.1858 63.2731 14.0951 63.2731 15.1501H63.3271C63.3271 14.105 63.6255 13.2143 64.367 12.6212L64.3332 12.579ZM63.2731 15.1501C63.2731 16.205 63.5747 17.1143 64.3332 17.7212L64.367 17.679C63.6255 17.0858 63.3271 16.1951 63.3271 15.1501H63.2731ZM64.3332 17.7212C65.0843 18.322 65.8405 18.7771 66.7501 18.7771V18.7231C65.8597 18.7231 65.1158 18.2781 64.367 17.679L64.3332 17.7212ZM66.7501 18.7771C67.2777 18.7771 67.7314 18.7017 68.1478 18.5313C68.5643 18.3609 68.9422 18.0961 69.3192 17.7192L69.281 17.681C68.908 18.054 68.5359 18.3142 68.1274 18.4813C67.7188 18.6485 67.2725 18.7231 66.7501 18.7231V18.7771ZM69.3192 17.7192C69.7737 17.2647 70.0771 16.658 70.0771 15.9001H70.0231C70.0231 16.6422 69.7265 17.2355 69.281 17.681L69.3192 17.7192ZM70.0501 15.8731H66.7501V15.9271H70.0501V15.8731ZM66.7771 15.9001V14.7001H66.7231V15.9001H66.7771ZM66.7501 14.7271H71.1001V14.6731H66.7501V14.7271ZM71.0731 14.7001V15.3001H71.1271V14.7001H71.0731Z" fill="white"/>
<mask id="mask1" mask-type="alpha" maskUnits="userSpaceOnUse" x="0" y="0" width="203" height="60">
<path fill-rule="evenodd" clip-rule="evenodd" d="M0 60H202.5V0H0V60Z" fill="white"/>
</mask>
<g mask="url(#mask1)">
<path fill-rule="evenodd" clip-rule="evenodd" d="M160.35 45H163.2V26.25H160.35V45ZM185.55 33L182.4 41.1H182.25L178.95 33H175.95L180.9 44.4L178.05 50.7H180.9L188.55 33H185.55ZM169.8 42.9C168.9 42.9 167.55 42.45 167.55 41.25C167.55 39.75 169.2 39.3 170.55 39.3C171.75 39.3 172.35 39.6 173.1 39.9C172.8 41.7 171.3 42.9 169.8 42.9ZM170.1 32.55C168 32.55 165.9 33.45 165.15 35.4L167.7 36.45C168.3 35.4 169.2 35.1 170.25 35.1C171.75 35.1 173.1 36 173.25 37.5V37.65C172.8 37.35 171.6 36.9 170.4 36.9C167.7 36.9 165 38.4 165 41.1C165 43.65 167.25 45.3 169.65 45.3C171.6 45.3 172.5 44.4 173.25 43.5H173.4V45H176.1V37.8C175.8 34.5 173.25 32.55 170.1 32.55ZM152.85 35.25H148.8V28.8H152.85C154.95 28.8 156.15 30.6 156.15 31.95C156 33.6 154.8 35.25 152.85 35.25ZM152.7 26.25H145.95V45H148.8V37.95H152.7C155.85 37.95 158.85 35.7 158.85 32.1C158.85 28.5 155.85 26.25 152.7 26.25ZM116.1 42.9C114.15 42.9 112.5 41.25 112.5 39C112.5 36.75 114.15 35.1 116.1 35.1C118.05 35.1 119.55 36.75 119.55 39C119.55 41.25 118.05 42.9 116.1 42.9ZM119.4 34.05C118.65 33.3 117.45 32.55 115.95 32.55C112.8 32.55 109.8 35.4 109.8 39C109.8 42.6 112.65 45.3 115.95 45.3C117.45 45.3 118.65 44.55 119.25 43.8H119.4V44.7C119.4 47.1 118.05 48.45 115.95 48.45C114.3 48.45 113.1 47.25 112.8 46.2L110.4 47.25C111.15 48.9 112.95 51 116.1 51C119.4 51 122.1 49.05 122.1 44.4V33H119.4V34.05ZM123.9 45H126.75V26.25H123.9V45ZM130.95 38.85C130.95 36.45 132.9 35.1 134.25 35.1C135.3 35.1 136.35 35.7 136.65 36.45L130.95 38.85ZM139.65 36.75C139.05 35.25 137.55 32.7 134.25 32.7C130.95 32.7 128.25 35.25 128.25 39.15C128.25 42.75 130.95 45.6 134.55 45.6C137.4 45.6 139.2 43.8 139.8 42.75L137.7 41.25C136.95 42.3 136.05 43.05 134.55 43.05C133.05 43.05 132.15 42.45 131.4 41.1L139.95 37.5L139.65 36.75ZM71.5499 34.65V37.35H77.9999C77.8499 38.85 77.2499 40.05 76.4999 40.8C75.5999 41.7 74.0999 42.75 71.5499 42.75C67.4999 42.75 64.4999 39.6 64.4999 35.55C64.4999 31.5 67.6499 28.35 71.5499 28.35C73.6499 28.35 75.2999 29.25 76.4999 30.3L78.4499 28.35C76.7999 26.85 74.6999 25.65 71.6999 25.65C66.2999 25.65 61.6499 30.15 61.6499 35.55C61.6499 40.95 66.2999 45.45 71.6999 45.45C74.6999 45.45 76.7999 44.55 78.5999 42.6C80.3999 40.8 80.9999 38.25 80.9999 36.3C80.9999 35.7 80.9999 35.1 80.8499 34.65H71.5499ZM88.1999 42.9C86.2499 42.9 84.5999 41.25 84.5999 39C84.5999 36.75 86.2499 35.1 88.1999 35.1C90.1499 35.1 91.7999 36.6 91.7999 39C91.7999 41.25 90.1499 42.9 88.1999 42.9ZM88.1999 32.7C84.5999 32.7 81.7499 35.4 81.7499 39.15C81.7499 42.75 84.5999 45.6 88.1999 45.6C91.7999 45.6 94.6499 42.9 94.6499 39.15C94.6499 35.25 91.7999 32.7 88.1999 32.7ZM102.15 42.9C100.2 42.9 98.5499 41.25 98.5499 39C98.5499 36.75 100.2 35.1 102.15 35.1C104.1 35.1 105.75 36.6 105.75 39C105.75 41.25 104.1 42.9 102.15 42.9ZM102.15 32.7C98.5499 32.7 95.6999 35.4 95.6999 39.15C95.6999 42.75 98.5499 45.6 102.15 45.6C105.75 45.6 108.6 42.9 108.6 39.15C108.6 35.25 105.75 32.7 102.15 32.7Z" fill="white"/>
</g>
<mask id="mask2" mask-type="alpha" maskUnits="userSpaceOnUse" x="15" y="11" width="20" height="38">
<path fill-rule="evenodd" clip-rule="evenodd" d="M15 13.35V46.5C15 47.4003 15.3 48.15 15.75 48.6L15.9 48.7503L34.5 30.1503V29.85L15.6 11.2503C15.15 11.7 15 12.45 15 13.35Z" fill="white"/>
</mask>
<g mask="url(#mask2)">
<path fill-rule="evenodd" clip-rule="evenodd" d="M15 13.35V46.5C15 47.4003 15.3 48.15 15.75 48.6L15.9 48.7503L34.5 30.1503V29.85L15.6 11.2503C15.15 11.7 15 12.45 15 13.35Z" fill="#32BBFF"/>
</g>
<mask id="mask3" mask-type="alpha" maskUnits="userSpaceOnUse" x="34" y="23" width="16" height="14">
<path fill-rule="evenodd" clip-rule="evenodd" d="M34.3501 29.85V30.3L40.5001 36.45L48.0001 32.4C50.1001 31.2 50.1001 29.25 48.0001 28.0497L40.6501 23.85L40.5001 23.6997L34.3501 29.85Z" fill="white"/>
</mask>
<g mask="url(#mask3)">
<path fill-rule="evenodd" clip-rule="evenodd" d="M34.3501 29.85V30.3L40.5001 36.45L48.0001 32.4C50.1001 31.2 50.1001 29.25 48.0001 28.0497L40.6501 23.85L40.5001 23.6997L34.3501 29.85Z" fill="#FFD500"/>
</g>
<mask id="mask4" mask-type="alpha" maskUnits="userSpaceOnUse" x="15" y="30" width="26" height="20">
<path fill-rule="evenodd" clip-rule="evenodd" d="M15.6001 48.7503C16.3501 49.5 17.4001 49.5 18.7501 48.9L40.6501 36.3L34.3501 30L15.6001 48.7503Z" fill="white"/>
</mask>
<g mask="url(#mask4)">
<path fill-rule="evenodd" clip-rule="evenodd" d="M15.6001 48.7503C16.3501 49.5 17.4001 49.5 18.7501 48.9L40.6501 36.3L34.3501 30L15.6001 48.7503Z" fill="url(#paint0_linear)"/>
</g>
<mask id="mask5" mask-type="alpha" maskUnits="userSpaceOnUse" x="15" y="10" width="26" height="20">
<path fill-rule="evenodd" clip-rule="evenodd" d="M15.6001 11.4L34.3501 30L40.6501 23.7L18.7501 11.2503C18.1417 10.9122 17.5945 10.7571 17.1082 10.7571C16.5148 10.7568 16.0123 10.9878 15.6001 11.4Z" fill="white"/>
</mask>
<g mask="url(#mask5)">
<path fill-rule="evenodd" clip-rule="evenodd" d="M15.6001 11.4L34.3501 30L40.6501 23.7L18.7501 11.2503C18.1417 10.9122 17.5945 10.7571 17.1082 10.7571C16.5148 10.7568 16.0123 10.9878 15.6001 11.4Z" fill="#29CC5E"/>
</g>
<path fill-rule="evenodd" clip-rule="evenodd" d="M40.5001 36.1501L18.7501 48.4501C17.5501 49.2001 16.5001 49.0501 15.7501 48.4501L15.6001 48.6001L15.7501 48.7501C16.5001 49.3501 17.5501 49.5001 18.7501 48.7501L40.5001 36.1501Z" fill="black"/>
<path fill-rule="evenodd" clip-rule="evenodd" d="M48 31.9499L40.5 36.1499L40.65 36.2999L48 32.0999C49.05 31.4999 49.5 30.7499 49.5 29.9999C49.5 30.7499 48.9 31.3499 48 31.9499ZM15.6 48.4499C15.15 47.9999 15 47.2499 15 46.3499V46.4999C15 47.3999 15.3 48.1499 15.75 48.5999V48.4499H15.6Z" fill="black"/>
<path fill-rule="evenodd" clip-rule="evenodd" d="M18.75 11.3999L48 28.0499C48.9 28.6499 49.5 29.2499 49.5 29.9999C49.5 29.2499 49.05 28.4999 48 27.8999L18.75 11.2499C16.65 10.0499 15 10.9499 15 13.3499V13.4999C15 11.2499 16.65 10.1999 18.75 11.3999Z" fill="white"/>
<defs>
<linearGradient id="paint0_linear" x1="15.1073" y1="20.2538" x2="-8.84054" y2="60.4597" gradientUnits="userSpaceOnUse">
<stop stop-color="#FF3A44"/>
<stop offset="1" stop-color="#C31162"/>
</linearGradient>
</defs>
</svg>
