<svg width="205" height="61" viewBox="0 0 205 61" fill="none" xmlns="http://www.w3.org/2000/svg">
<rect x="1" y="1" width="203" height="60" rx="8" fill="white" stroke="#CFCFCF"/>
<path fill-rule="evenodd" clip-rule="evenodd" d="M52.4259 29.6321C52.3899 25.3361 55.9419 23.2481 56.0979 23.1521C54.0819 20.2241 50.9619 19.8161 49.8699 19.7801C47.2539 19.5041 44.7099 21.3521 43.3779 21.3521C42.0219 21.3521 39.9579 19.8161 37.7499 19.8521C34.9059 19.9001 32.2299 21.5441 30.7779 24.1121C27.7659 29.3321 30.0099 37.0121 32.9019 41.2361C34.3539 43.3001 36.0339 45.6161 38.2539 45.5321C40.4139 45.4481 41.2299 44.1521 43.8339 44.1521C46.4259 44.1521 47.1819 45.5321 49.4379 45.4841C51.7659 45.4481 53.2179 43.4081 54.6219 41.3201C56.2899 38.9561 56.9619 36.6161 56.9859 36.4961C56.9259 36.4721 52.4739 34.7681 52.4259 29.6321Z" fill="black"/>
<path fill-rule="evenodd" clip-rule="evenodd" d="M48.1658 17.008C49.3298 15.556 50.1218 13.576 49.9058 11.56C48.2258 11.632 46.1138 12.724 44.9018 14.152C43.8338 15.412 42.8738 17.464 43.1138 19.396C45.0098 19.54 46.9538 18.436 48.1658 17.008Z" fill="black"/>
<path fill-rule="evenodd" clip-rule="evenodd" d="M78.5979 37.84L77.0979 33.22C76.9419 32.74 76.6419 31.636 76.2099 29.884H76.1499C75.9699 30.64 75.6939 31.756 75.3099 33.22L73.8339 37.84H78.5979ZM83.7699 45.232H80.7459L79.0899 40.024H73.3299L71.7579 45.232H68.8179L74.5179 27.508H78.0459L83.7699 45.232Z" fill="black"/>
<path fill-rule="evenodd" clip-rule="evenodd" d="M95.5299 38.788C95.5299 37.54 95.2539 36.52 94.6899 35.716C94.0779 34.876 93.2499 34.456 92.2179 34.456C91.5219 34.456 90.8859 34.696 90.3099 35.152C89.7459 35.62 89.3619 36.22 89.1939 36.976C89.1099 37.324 89.0619 37.612 89.0619 37.84V39.976C89.0619 40.9 89.3499 41.692 89.9139 42.328C90.4779 42.964 91.2219 43.288 92.1339 43.288C93.2019 43.288 94.0299 42.868 94.6299 42.052C95.2299 41.224 95.5299 40.144 95.5299 38.788ZM98.4219 38.692C98.4219 40.864 97.8339 42.58 96.6459 43.84C95.5899 44.9681 94.2699 45.52 92.7099 45.52C91.0179 45.52 89.8059 44.92 89.0619 43.708V50.416H86.2179V36.652C86.2179 35.284 86.1819 33.892 86.1099 32.452H88.6059L88.7619 34.48H88.8099C89.7579 32.956 91.1979 32.188 93.1179 32.188C94.6299 32.188 95.8779 32.788 96.8859 33.976C97.9179 35.176 98.4219 36.736 98.4219 38.692Z" fill="black"/>
<path fill-rule="evenodd" clip-rule="evenodd" d="M110.218 38.788C110.218 37.54 109.942 36.52 109.378 35.716C108.766 34.876 107.938 34.456 106.906 34.456C106.21 34.456 105.574 34.696 104.998 35.152C104.434 35.62 104.062 36.22 103.882 36.976C103.798 37.324 103.75 37.612 103.75 37.84V39.976C103.75 40.9 104.038 41.692 104.602 42.328C105.166 42.964 105.91 43.288 106.822 43.288C107.89 43.288 108.73 42.868 109.318 42.052C109.93 41.224 110.218 40.144 110.218 38.788ZM113.11 38.692C113.11 40.864 112.522 42.58 111.334 43.84C110.278 44.9681 108.958 45.52 107.398 45.52C105.706 45.52 104.494 44.92 103.75 43.708V50.416H100.906V36.652C100.906 35.284 100.87 33.892 100.798 32.452H103.294L103.45 34.48H103.498C104.446 32.956 105.886 32.188 107.806 32.188C109.318 32.188 110.566 32.788 111.574 33.976C112.606 35.176 113.11 36.736 113.11 38.692Z" fill="black"/>
<path fill-rule="evenodd" clip-rule="evenodd" d="M129.55 40.264C129.55 41.776 129.022 43 127.978 43.948C126.826 44.98 125.218 45.496 123.154 45.496C121.246 45.496 119.722 45.124 118.57 44.392L119.23 42.028C120.478 42.76 121.846 43.132 123.334 43.132C124.402 43.132 125.242 42.892 125.83 42.412C126.43 41.932 126.73 41.284 126.73 40.48C126.73 39.76 126.478 39.16 125.998 38.668C125.506 38.176 124.69 37.72 123.55 37.3C120.418 36.136 118.87 34.444 118.87 32.224C118.87 30.772 119.422 29.584 120.514 28.648C121.606 27.724 123.058 27.256 124.87 27.256C126.478 27.256 127.822 27.532 128.89 28.096L128.17 30.4C127.162 29.86 126.034 29.584 124.762 29.584C123.766 29.584 122.974 29.836 122.41 30.316C121.942 30.76 121.702 31.288 121.702 31.924C121.702 32.62 121.978 33.208 122.518 33.652C122.986 34.072 123.85 34.528 125.098 35.02C126.622 35.632 127.738 36.352 128.458 37.18C129.19 38.008 129.55 39.04 129.55 40.264Z" fill="black"/>
<path fill-rule="evenodd" clip-rule="evenodd" d="M138.958 34.5881H135.826V40.7921C135.826 42.3641 136.378 43.1561 137.482 43.1561C137.986 43.1561 138.406 43.1081 138.742 43.0241L138.826 45.1841C138.262 45.3881 137.53 45.4961 136.618 45.4961C135.49 45.4961 134.626 45.1481 133.99 44.4641C133.354 43.7801 133.042 42.6281 133.042 41.0201V34.5761H131.182V32.4521H133.042V30.1121L135.826 29.2721V32.4521H138.958V34.5881Z" fill="black"/>
<path fill-rule="evenodd" clip-rule="evenodd" d="M150.106 38.8C150.106 37.624 149.854 36.628 149.35 35.788C148.75 34.768 147.898 34.264 146.794 34.264C145.654 34.264 144.778 34.768 144.19 35.788C143.674 36.628 143.434 37.648 143.434 38.86C143.434 40.036 143.686 41.044 144.19 41.872C144.802 42.892 145.666 43.396 146.77 43.396C147.85 43.396 148.702 42.88 149.326 41.848C149.842 40.984 150.106 39.976 150.106 38.8ZM153.046 38.74C153.046 40.708 152.482 42.316 151.366 43.576C150.19 44.872 148.63 45.52 146.686 45.52C144.814 45.52 143.314 44.896 142.198 43.66C141.082 42.424 140.53 40.852 140.53 38.956C140.53 36.976 141.106 35.356 142.246 34.096C143.398 32.836 144.946 32.2 146.89 32.2C148.762 32.2 150.274 32.824 151.414 34.072C152.506 35.272 153.046 36.832 153.046 38.74Z" fill="black"/>
<path fill-rule="evenodd" clip-rule="evenodd" d="M162.286 34.948C162.01 34.9 161.71 34.876 161.386 34.876C160.39 34.876 159.61 35.248 159.07 36.004C158.602 36.664 158.362 37.516 158.362 38.524V45.232H155.518V36.472C155.518 34.996 155.494 33.652 155.434 32.452H157.906L158.014 34.9H158.098C158.398 34.06 158.866 33.376 159.514 32.872C160.15 32.416 160.834 32.188 161.566 32.188C161.83 32.188 162.07 32.212 162.274 32.236L162.286 34.948Z" fill="black"/>
<path fill-rule="evenodd" clip-rule="evenodd" d="M172.27 37.504C172.294 36.664 172.102 35.932 171.718 35.32C171.226 34.528 170.47 34.132 169.462 34.132C168.538 34.132 167.782 34.516 167.206 35.284C166.738 35.896 166.45 36.64 166.366 37.492L172.27 37.504ZM174.982 38.236C174.982 38.74 174.946 39.172 174.874 39.52H166.354C166.39 40.78 166.798 41.752 167.59 42.412C168.31 43 169.234 43.3 170.374 43.3C171.634 43.3 172.786 43.096 173.818 42.7L174.262 44.668C173.05 45.196 171.622 45.46 169.978 45.46C167.998 45.46 166.438 44.872 165.31 43.708C164.182 42.544 163.618 40.972 163.618 39.016C163.618 37.096 164.146 35.488 165.202 34.204C166.306 32.836 167.794 32.152 169.666 32.152C171.502 32.152 172.906 32.836 173.842 34.204C174.598 35.308 174.982 36.64 174.982 38.236Z" fill="black"/>
<path fill-rule="evenodd" clip-rule="evenodd" d="M74.674 17.536L73.942 15.256C73.87 15.028 73.726 14.476 73.498 13.612H73.474C73.378 13.984 73.258 14.524 73.054 15.256L72.334 17.536H74.674ZM77.23 21.172H75.742L74.926 18.616H72.094L71.314 21.172H69.874L72.67 12.46H74.398L77.23 21.172Z" fill="black"/>
<path fill-rule="evenodd" clip-rule="evenodd" d="M84.2381 14.884L81.8621 21.172H80.5061L78.2021 14.884H79.7021L80.7701 18.208C80.9501 18.76 81.1061 19.288 81.2261 19.792H81.2621C81.3701 19.336 81.5261 18.808 81.7181 18.208L82.7741 14.884H84.2381Z" fill="black"/>
<path fill-rule="evenodd" clip-rule="evenodd" d="M89.1099 18.04C87.5619 18.04 86.7819 18.412 86.7819 19.312C86.7819 19.972 87.1779 20.296 87.7419 20.296C88.4499 20.296 89.1099 19.756 89.1099 19.012V18.04ZM89.3019 21.172L89.1939 20.452H89.1579C88.7259 21.028 88.1139 21.316 87.3219 21.316C86.1939 21.316 85.4019 20.524 85.4019 19.468C85.4019 17.92 86.7459 17.116 89.0739 17.116V16.996C89.0739 16.168 88.6299 15.76 87.7659 15.76C87.1419 15.76 86.6019 15.916 86.1219 16.228L85.8339 15.316C86.4099 14.956 87.1419 14.776 87.9939 14.776C89.6379 14.776 90.4659 15.64 90.4659 17.38V19.696C90.4659 20.332 90.4899 20.824 90.5619 21.196L89.3019 21.172Z" fill="black"/>
<mask id="mask0" mask-type="alpha" maskUnits="userSpaceOnUse" x="1" y="1" width="203" height="60">
<path fill-rule="evenodd" clip-rule="evenodd" d="M1 61H203.5V1H1V61Z" fill="white"/>
</mask>
<g mask="url(#mask0)">
<path fill-rule="evenodd" clip-rule="evenodd" d="M92.9021 21.16H94.2941V14.884H92.9021V21.16ZM93.5741 13.852C93.1061 13.852 92.7461 13.492 92.7461 13.012C92.7461 12.532 93.1181 12.184 93.5981 12.184C94.0781 12.184 94.4621 12.532 94.4501 13.012C94.4501 13.516 94.0901 13.852 93.5741 13.852Z" fill="black"/>
<path fill-rule="evenodd" clip-rule="evenodd" d="M96.7778 21.16H98.1698V12.004H96.7778V21.16Z" fill="black"/>
<path fill-rule="evenodd" clip-rule="evenodd" d="M103.906 18.04C102.358 18.04 101.578 18.412 101.578 19.312C101.578 19.972 101.974 20.296 102.538 20.296C103.246 20.296 103.906 19.756 103.906 19.012V18.04ZM104.098 21.172L103.99 20.452H103.954C103.522 21.028 102.91 21.316 102.118 21.316C100.99 21.316 100.198 20.524 100.198 19.468C100.198 17.92 101.542 17.116 103.87 17.116V16.996C103.87 16.168 103.426 15.76 102.562 15.76C101.938 15.76 101.398 15.916 100.918 16.228L100.63 15.304C101.206 14.944 101.938 14.764 102.79 14.764C104.434 14.764 105.262 15.628 105.262 17.368V19.684C105.262 20.32 105.286 20.812 105.346 21.184H104.098V21.172Z" fill="black"/>
<path fill-rule="evenodd" clip-rule="evenodd" d="M110.638 15.8559C109.834 15.8559 109.102 16.5519 109.102 17.5239V18.6279C109.102 19.4919 109.762 20.1999 110.614 20.1999C111.658 20.1999 112.282 19.3479 112.282 17.9919C112.282 16.7199 111.634 15.8559 110.638 15.8559ZM110.926 21.3159C110.038 21.3159 109.378 20.9439 108.946 20.1999H108.922L108.838 21.1719H107.65C107.686 20.6679 107.698 20.1039 107.698 19.4799V12.0039H109.102V15.8079H109.126C109.546 15.1119 110.206 14.7639 111.13 14.7639C112.642 14.7639 113.698 16.0599 113.698 17.9439C113.698 19.8879 112.522 21.3159 110.926 21.3159Z" fill="black"/>
<path fill-rule="evenodd" clip-rule="evenodd" d="M115.762 21.16H117.154V12.004H115.762V21.16Z" fill="black"/>
<path fill-rule="evenodd" clip-rule="evenodd" d="M123.478 17.3679C123.478 16.3959 122.986 15.7119 122.098 15.7119C121.294 15.7119 120.67 16.4079 120.574 17.3679H123.478ZM124.75 18.3639H120.562C120.586 19.5519 121.378 20.2239 122.542 20.2239C123.166 20.2239 123.73 20.1159 124.234 19.9239L124.45 20.8959C123.862 21.1599 123.166 21.2799 122.35 21.2799C120.382 21.2799 119.218 20.0439 119.218 18.1119C119.218 16.1919 120.406 14.7399 122.194 14.7399C123.79 14.7399 124.81 15.9279 124.81 17.7279C124.81 17.9799 124.798 18.1959 124.75 18.3639Z" fill="black"/>
<path fill-rule="evenodd" clip-rule="evenodd" d="M133.27 15.784C132.262 15.784 131.614 16.732 131.614 18.04C131.614 19.336 132.274 20.272 133.258 20.272C134.242 20.272 134.902 19.264 134.902 18.004C134.89 16.732 134.254 15.784 133.27 15.784ZM133.21 21.316C131.374 21.316 130.186 19.948 130.186 18.088C130.186 16.144 131.398 14.764 133.318 14.764C135.13 14.764 136.342 16.072 136.342 17.98C136.342 19.936 135.094 21.316 133.21 21.316Z" fill="black"/>
<path fill-rule="evenodd" clip-rule="evenodd" d="M143.842 21.172H142.45V17.56C142.45 16.444 142.018 15.892 141.178 15.892C140.35 15.892 139.786 16.6 139.786 17.428V21.16H138.394V16.684C138.394 16.132 138.382 15.532 138.346 14.884H139.57L139.63 15.856H139.666C140.038 15.184 140.806 14.752 141.658 14.752C142.978 14.752 143.842 15.76 143.842 17.404V21.172Z" fill="black"/>
<path fill-rule="evenodd" clip-rule="evenodd" d="M152.974 15.94H151.438V18.988C151.438 19.768 151.714 20.152 152.254 20.152C152.494 20.152 152.71 20.128 152.878 20.092L152.914 21.148C152.638 21.256 152.278 21.304 151.834 21.304C150.73 21.304 150.082 20.692 150.082 19.108V15.94H149.17V14.896H150.082V13.744L151.45 13.324V14.884H152.986V15.94" fill="black"/>
<path fill-rule="evenodd" clip-rule="evenodd" d="M160.366 21.172H158.974V17.584C158.974 16.456 158.542 15.892 157.702 15.892C156.982 15.892 156.31 16.384 156.31 17.38V21.16H154.918V12.004H156.31V15.772H156.334C156.778 15.088 157.402 14.752 158.218 14.752C159.55 14.752 160.366 15.784 160.366 17.428V21.172Z" fill="black"/>
<path fill-rule="evenodd" clip-rule="evenodd" d="M166.222 17.3679C166.222 16.3959 165.73 15.7119 164.842 15.7119C164.038 15.7119 163.402 16.4079 163.318 17.3679H166.222ZM167.494 18.3639H163.306C163.33 19.5519 164.122 20.2239 165.286 20.2239C165.91 20.2239 166.474 20.1159 166.978 19.9239L167.194 20.8959C166.606 21.1599 165.91 21.2799 165.094 21.2799C163.126 21.2799 161.962 20.0439 161.962 18.1119C161.962 16.1919 163.15 14.7399 164.938 14.7399C166.534 14.7399 167.554 15.9279 167.554 17.7279C167.554 17.9799 167.542 18.1959 167.494 18.3639Z" fill="black"/>
</g>
</svg>
