<?xml version="1.0" encoding="utf-8"?>
<!-- Generator: Adobe Illustrator 17.0.0, SVG Export Plug-In . SVG Version: 6.00 Build 0)  -->
<!DOCTYPE svg PUBLIC "-//W3C//DTD SVG 1.1//EN" "http://www.w3.org/Graphics/SVG/1.1/DTD/svg11.dtd">
<svg version="1.1" id="Layer_1" xmlns="http://www.w3.org/2000/svg" xmlns:xlink="http://www.w3.org/1999/xlink" x="0px" y="0px"
	 width="250px" height="45px" viewBox="0 0 250 45" enable-background="new 0 0 250 45" xml:space="preserve">
<g>
	<path fill="#5D5E5E" d="M76.713,34.954c0,0.989,0.503,1.483,1.511,1.483c1.007,0,1.853-0.19,2.538-0.57l-0.285,6.444
		c-1.825,1.483-3.877,2.223-6.159,2.223c-4.296,0-6.634-1.653-7.013-4.961c-2.281,3.308-5.352,4.961-9.21,4.961
		c-3.859,0-6.358-0.875-7.498-2.622c-0.761-1.102-1.141-2.356-1.141-3.764c0-1.406,0.114-2.698,0.342-3.877l3.194-17.961h9.693
		l-2.68,15.168c-0.113,0.685-0.171,1.368-0.171,2.053c0,1.824,1.026,2.737,3.079,2.737c1.71,0,3.079-0.589,4.105-1.767l3.25-18.19
		h9.694L76.77,34.27C76.732,34.498,76.713,34.726,76.713,34.954z"/>
	<path fill="#5D5E5E" d="M94.902,34.954c0,0.989,0.503,1.483,1.511,1.483c1.007,0,1.853-0.19,2.538-0.57l-0.286,6.444
		c-1.824,1.483-3.877,2.223-6.158,2.223c-3.46,0-5.703-0.798-6.729-2.395c-0.646-1.026-0.969-2.147-0.969-3.364
		c0-1.216,0.076-2.281,0.228-3.193l6.215-35.126h9.693L94.96,34.27C94.921,34.498,94.902,34.726,94.902,34.954z"/>
	<path fill="#5D5E5E" d="M114.688,44.534c-4.411,0-7.584-0.989-9.523-2.965c-1.445-1.444-2.167-3.383-2.167-5.816
		c0-0.798,0.076-1.653,0.228-2.565l3.877-22.067l10.435-4.334l-1.654,9.523h15.738l-1.425,8.04H114.46l-1.141,6.443
		c-0.152,0.723-0.228,1.369-0.228,1.939c0,2.396,1.14,3.593,3.421,3.593c1.216,0,2.232-0.513,3.051-1.54
		c0.817-1.026,1.377-2.395,1.682-4.105h9.466C129.115,39.915,123.773,44.534,114.688,44.534z"/>
	<path fill="#5D5E5E" d="M145.822,36.437c0.873,0,1.653-0.19,2.337-0.57l-0.284,6.444c-1.789,1.483-3.822,2.223-6.102,2.223
		c-3.46,0-5.702-0.798-6.728-2.395c-0.685-1.064-1.026-2.195-1.026-3.393c0-1.197,0.075-2.252,0.228-3.164l3.42-19.274h9.693
		l-3.194,17.961c-0.038,0.228-0.057,0.437-0.057,0.627C144.111,35.924,144.682,36.437,145.822,36.437z M138.809,7.014
		c0-2.432,0.542-4.209,1.625-5.331C141.518,0.561,143.198,0,145.48,0c3.194,0,4.79,1.407,4.79,4.22c0,2.395-0.542,4.143-1.625,5.246
		c-1.084,1.103-2.784,1.654-5.103,1.654C140.385,11.12,138.809,9.751,138.809,7.014z"/>
	<path fill="#5D5E5E" d="M208.943,34.954c0,0.989,0.504,1.483,1.511,1.483s1.854-0.19,2.538-0.57l-0.284,6.444
		c-1.826,1.483-3.877,2.223-6.159,2.223c-4.183,0-6.5-1.519-6.957-4.561c-1.901,3.042-4.695,4.561-8.381,4.561
		c-6.235,0-9.352-2.68-9.352-8.04c0-0.912,0.095-1.919,0.286-3.022l1.198-6.671c0.607-3.421,2.004-6.149,4.191-8.183
		c2.185-2.033,5.036-3.051,8.553-3.051c3.515,0,5.903,0.818,7.156,2.452l0.286-1.71h8.667L209,34.27
		C208.962,34.498,208.943,34.726,208.943,34.954z M192.065,32.218c-0.077,0.342-0.114,0.818-0.114,1.425
		c0,0.608,0.284,1.207,0.855,1.796c0.57,0.59,1.529,0.884,2.879,0.884s2.518-0.532,3.507-1.597l1.712-9.579
		c-0.419-0.95-1.407-1.425-2.965-1.425c-2.928,0-4.639,1.407-5.132,4.219L192.065,32.218z"/>
	<path fill="#5D5E5E" d="M234.85,22.888c0-1.634-0.79-2.452-2.366-2.452c-1.578,0-2.88,0.59-3.907,1.767l-3.192,18.19h-9.693
		l4.847-27.427h9.008l-0.627,3.364c2.242-2.774,5.075-4.162,8.496-4.162c3.422,0,5.646,0.836,6.673,2.508
		c0.645,1.065,0.969,2.281,0.969,3.65c0,1.368-0.096,2.643-0.286,3.82l-1.541,8.781c-0.038,0.228-0.057,0.437-0.057,0.627
		c0,1.026,0.571,1.54,1.712,1.54c0.873,0,1.653-0.19,2.337-0.57l-0.284,6.444c-1.789,1.483-3.82,2.223-6.102,2.223
		c-5.17,0-7.755-2.166-7.755-6.5c0-0.76,0.075-1.577,0.228-2.452l1.368-7.584C234.793,23.972,234.85,23.383,234.85,22.888z"/>
	<g>
		<polygon fill="#5D5E5E" points="37.865,2.68 34.699,20.658 34.746,20.585 30.641,43.736 40.962,43.736 48.203,2.68 		"/>
		<polygon fill="#5D5E5E" points="37.373,2.761 24.311,22.353 18.21,2.68 7.49,2.68 0.248,43.736 10.512,43.736 14.617,20.585 
			18.495,34.384 25.965,34.384 32.415,24.247 		"/>
	</g>
	<g>
		<polygon fill="#5D5E5E" points="168.973,2.68 158.71,2.68 151.467,43.736 161.417,43.736 166.049,19.339 		"/>
		<polygon fill="#5D5E5E" points="161.417,43.736 177.468,43.736 179.066,34.84 164.572,34.84 		"/>
	</g>
</g>
</svg>
