<?xml version="1.0" encoding="utf-8"?>
<!-- Generator: Adobe Illustrator 17.0.0, SVG Export Plug-In . SVG Version: 6.00 Build 0)  -->
<!DOCTYPE svg PUBLIC "-//W3C//DTD SVG 1.1//EN" "http://www.w3.org/Graphics/SVG/1.1/DTD/svg11.dtd">
<svg version="1.1" id="Layer_1" xmlns="http://www.w3.org/2000/svg" xmlns:xlink="http://www.w3.org/1999/xlink" x="0px" y="0px"
	 width="170px" height="30px" viewBox="0 0 170 30" enable-background="new 0 0 170 30" xml:space="preserve">
<g>
	<path fill="#5D5E5E" d="M52.31,23.572c0,0.664,0.338,0.995,1.014,0.995c0.676,0,1.243-0.128,1.703-0.383l-0.191,4.324
		C53.611,29.503,52.234,30,50.703,30c-2.883,0-4.451-1.109-4.706-3.329C44.466,28.891,42.406,30,39.817,30
		c-2.589,0-4.266-0.587-5.031-1.76c-0.511-0.74-0.765-1.581-0.765-2.526c0-0.943,0.077-1.811,0.229-2.602l2.143-12.053h6.505
		l-1.799,10.178c-0.076,0.459-0.114,0.918-0.114,1.378c0,1.224,0.689,1.836,2.066,1.836c1.148,0,2.066-0.395,2.755-1.186
		l2.181-12.206h6.505l-2.143,12.053C52.323,23.266,52.31,23.419,52.31,23.572z"/>
	<path fill="#5D5E5E" d="M64.516,23.572c0,0.664,0.338,0.995,1.014,0.995c0.676,0,1.243-0.128,1.703-0.383l-0.192,4.324
		C65.817,29.503,64.439,30,62.909,30c-2.322,0-3.827-0.535-4.515-1.607c-0.434-0.689-0.65-1.441-0.65-2.257
		c0-0.816,0.051-1.53,0.153-2.142l4.171-23.57h6.505l-4.017,22.69C64.528,23.266,64.516,23.419,64.516,23.572z"/>
	<path fill="#5D5E5E" d="M77.793,30c-2.96,0-5.089-0.664-6.39-1.99c-0.97-0.969-1.454-2.27-1.454-3.903
		c0-0.535,0.051-1.109,0.153-1.721l2.602-14.808l7.002-2.908l-1.11,6.39h10.561l-0.956,5.395H77.639l-0.765,4.323
		c-0.102,0.485-0.153,0.919-0.153,1.301c0,1.608,0.765,2.411,2.296,2.411c0.816,0,1.498-0.344,2.047-1.033
		c0.548-0.689,0.924-1.607,1.128-2.755h6.352C87.473,26.901,83.889,30,77.793,30z"/>
	<path fill="#5D5E5E" d="M98.685,24.567c0.586,0,1.109-0.128,1.568-0.383l-0.191,4.324C98.862,29.503,97.498,30,95.968,30
		c-2.322,0-3.826-0.535-4.515-1.607c-0.46-0.714-0.689-1.473-0.689-2.277c0-0.803,0.05-1.511,0.153-2.123l2.295-12.933h6.505
		l-2.143,12.053c-0.025,0.153-0.038,0.293-0.038,0.421C97.536,24.223,97.919,24.567,98.685,24.567z M93.978,4.823
		c0-1.632,0.364-2.825,1.091-3.578c0.727-0.752,1.855-1.129,3.386-1.129c2.143,0,3.214,0.944,3.214,2.832
		c0,1.607-0.364,2.78-1.091,3.52c-0.727,0.74-1.868,1.11-3.424,1.11C95.036,7.578,93.978,6.66,93.978,4.823z"/>
	<path fill="#5D5E5E" d="M141.04,23.572c0,0.664,0.338,0.995,1.014,0.995c0.676,0,1.244-0.128,1.703-0.383l-0.191,4.324
		c-1.225,0.995-2.602,1.492-4.133,1.492c-2.807,0-4.362-1.019-4.668-3.061c-1.276,2.041-3.15,3.061-5.624,3.061
		c-4.184,0-6.276-1.798-6.276-5.395c0-0.612,0.064-1.288,0.192-2.028l0.804-4.477c0.407-2.296,1.345-4.126,2.812-5.491
		c1.466-1.364,3.379-2.047,5.739-2.047c2.359,0,3.961,0.549,4.802,1.645l0.192-1.148h5.816l-2.143,12.053
		C141.053,23.266,141.04,23.419,141.04,23.572z M129.715,21.736c-0.051,0.229-0.077,0.549-0.077,0.957s0.191,0.81,0.574,1.205
		c0.382,0.396,1.026,0.593,1.932,0.593c0.906,0,1.69-0.357,2.353-1.072l1.149-6.428c-0.281-0.637-0.944-0.957-1.99-0.957
		c-1.965,0-3.113,0.944-3.444,2.831L129.715,21.736z"/>
	<path fill="#5D5E5E" d="M158.425,15.475c0-1.097-0.53-1.645-1.588-1.645c-1.059,0-1.933,0.396-2.622,1.186l-2.142,12.206h-6.505
		l3.252-18.405h6.045l-0.421,2.257c1.505-1.862,3.406-2.793,5.701-2.793c2.296,0,3.789,0.561,4.478,1.683
		c0.433,0.715,0.65,1.531,0.65,2.449c0,0.918-0.065,1.773-0.192,2.564l-1.034,5.892c-0.025,0.153-0.038,0.293-0.038,0.421
		c0,0.689,0.383,1.033,1.149,1.033c0.586,0,1.109-0.128,1.568-0.383l-0.191,4.324c-1.2,0.995-2.564,1.492-4.094,1.492
		c-3.469,0-5.204-1.454-5.204-4.362c0-0.51,0.05-1.058,0.153-1.645l0.918-5.089C158.386,16.202,158.425,15.807,158.425,15.475z"/>
	<g>
		<polygon fill="#5D5E5E" points="26.242,1.915 24.117,13.979 24.149,13.93 21.394,29.465 28.32,29.465 33.179,1.915 		"/>
		<polygon fill="#5D5E5E" points="25.912,1.969 17.147,15.116 13.053,1.915 5.859,1.915 1,29.465 7.887,29.465 10.642,13.93 
			13.244,23.189 18.256,23.189 22.585,16.387 		"/>
	</g>
	<g>
		<polygon fill="#5D5E5E" points="114.219,1.915 107.332,1.915 102.472,29.465 109.149,29.465 112.257,13.094 		"/>
		<polygon fill="#5D5E5E" points="109.149,29.465 119.92,29.465 120.992,23.495 111.266,23.495 		"/>
	</g>
</g>
</svg>
