<svg width="29" height="28" viewBox="0 0 29 28" fill="none" xmlns="http://www.w3.org/2000/svg">
<mask id="mask0" mask-type="alpha" maskUnits="userSpaceOnUse" x="1" y="0" width="26" height="28">
<path fill-rule="evenodd" clip-rule="evenodd" d="M25.7555 10.2751C26.1935 10.2751 26.592 10.5285 26.7778 10.9252C26.9636 11.3218 26.9031 11.7902 26.6228 12.1267L13.779 27.5393C13.5594 27.8027 13.239 27.9454 12.9114 27.9454C12.7601 27.9454 12.6074 27.9151 12.4622 27.8521C12.0026 27.6525 11.7295 27.1737 11.7916 26.6765L12.9173 17.6703H2.6367C2.19869 17.6703 1.80019 17.4169 1.6144 17.0203C1.42861 16.6237 1.48908 16.1553 1.76946 15.8188L14.6132 0.406271C14.934 0.0213122 15.4701 -0.106189 15.9299 0.0934681C16.3897 0.293016 16.6627 0.771745 16.6006 1.26898L15.4748 10.2751H25.7555ZM15.3162 16.6815L14.5094 23.1359L23.3453 12.5328H14.1961C13.8723 12.5328 13.5641 12.3938 13.3498 12.151C13.1355 11.9083 13.0358 11.5853 13.0759 11.264L13.8828 4.80953L5.04683 15.4127H14.1961C14.5199 15.4127 14.8281 15.5517 15.0424 15.7944C15.2567 16.0371 15.3564 16.3602 15.3162 16.6815Z" fill="white"/>
</mask>
<g mask="url(#mask0)">
<rect x="0.195312" width="28" height="28" fill="white"/>
</g>
</svg>
