<svg width="28" height="28" viewBox="0 0 28 28" fill="none" xmlns="http://www.w3.org/2000/svg">
<mask id="mask0" mask-type="alpha" maskUnits="userSpaceOnUse" x="0" y="0" width="28" height="28">
<path fill-rule="evenodd" clip-rule="evenodd" d="M13.4643 0.134646C13.6238 0.0487462 13.8062 0 14 0C14.1778 0 14.3461 0.0410416 14.4958 0.114169C14.1704 -0.0445086 13.7846 -0.0376821 13.4643 0.134646ZM13.4643 0.134646C13.4111 0.163319 13.3596 0.196573 13.3105 0.23441C13.3588 0.197183 13.4103 0.163778 13.4643 0.134646ZM13.1921 0.339488C13.2291 0.30179 13.2686 0.266665 13.3105 0.23441C13.2722 0.263934 13.2354 0.296248 13.2002 0.331352L13.1921 0.339488ZM12.869 3.8617L10.9391 5.79152C10.4975 6.23323 9.7813 6.23323 9.33964 5.79152C8.89793 5.34981 8.89793 4.63367 9.33964 4.19202L13.1921 0.339488C12.9922 0.543489 12.869 0.822879 12.869 1.13105V3.8617ZM15.131 3.8617L14 2.73066L12.869 3.8617V12.8689H3.86168L5.79152 10.9391C6.23323 10.4974 6.23323 9.78129 5.79152 9.33958C5.34986 8.89787 4.63367 8.89787 4.19202 9.33958L0.331297 13.2002C0.221985 13.3095 0.139726 13.4356 0.0845174 13.5702C0.0300418 13.7027 0 13.8479 0 14C0 14.1668 0.0361059 14.3252 0.100928 14.4677C0.143571 14.5617 0.199729 14.651 0.269401 14.7327C0.291078 14.7582 0.313865 14.7827 0.337685 14.8061L4.19196 18.6604C4.41279 18.8813 4.7023 18.9917 4.99177 18.9917C5.28123 18.9917 5.57069 18.8813 5.79157 18.6604C6.23328 18.2188 6.23328 17.5026 5.79152 17.0609L3.86169 15.131H12.869V24.1384L10.9391 22.2085C10.4974 21.7668 9.78124 21.7668 9.33959 22.2085C8.89787 22.6502 8.89787 23.3663 9.33959 23.808L13.2002 27.6687C13.3164 27.785 13.4517 27.8706 13.5959 27.9257C13.1708 27.763 12.869 27.3512 12.869 26.869V24.1384L14 25.2695L15.131 24.1384V26.869C15.131 27.1798 15.0057 27.4613 14.8028 27.6657L14.7998 27.6687C14.7923 27.6762 14.7848 27.6835 14.7772 27.6907C14.7858 27.6825 14.7944 27.6742 14.8028 27.6657L18.6605 23.808C19.1021 23.3663 19.1021 22.6502 18.6605 22.2085C18.2188 21.7668 17.5026 21.7668 17.0609 22.2085L15.131 24.1384V15.131H24.1384L22.2085 17.0609C21.7668 17.5026 21.7668 18.2188 22.2085 18.6605C22.4293 18.8813 22.7188 18.9918 23.0083 18.9918C23.2978 18.9918 23.5873 18.8813 23.8081 18.6605L27.6688 14.7998C27.7803 14.6883 27.8636 14.5592 27.9188 14.4215C27.7517 14.8374 27.3447 15.131 26.869 15.131H24.1384L25.2695 14L24.1384 12.8689H26.869C27.3439 12.8689 27.7505 13.1617 27.9181 13.5766C27.8629 13.4396 27.7798 13.3112 27.6688 13.2002L23.8081 9.33958C23.3664 8.89787 22.6503 8.89787 22.2085 9.33958C21.7669 9.78124 21.7669 10.4974 22.2085 10.9391L24.1384 12.8689H15.131V3.8617ZM14.8059 0.337487L18.6605 4.19202C19.1021 4.63373 19.1021 5.34986 18.6605 5.79157C18.4396 6.01245 18.1502 6.12287 17.8607 6.12287C17.5713 6.12287 17.2817 6.0124 17.0609 5.79157L15.131 3.8617V1.13105C15.131 0.82187 15.007 0.54166 14.8059 0.337487ZM14.8059 0.337487L14.7998 0.331352C14.7764 0.307968 14.7523 0.285823 14.7274 0.264915C14.7547 0.287869 14.7809 0.31209 14.8059 0.337487ZM15.131 12.8689H12.869V15.131H15.131V12.8689ZM3.86169 15.131H1.13105C0.82197 15.131 0.541841 15.0071 0.337685 14.8061L0.331297 14.7997C0.309599 14.778 0.288967 14.7557 0.269401 14.7327C0.20165 14.6531 0.144732 14.564 0.100928 14.4677C-0.0279117 14.1838 -0.0333818 13.8577 0.0845174 13.5702C0.2537 13.1587 0.658547 12.8689 1.13105 12.8689H3.86168L2.73066 14L3.86169 15.131ZM14.7274 0.264915C14.657 0.205721 14.5793 0.154955 14.4958 0.114169C14.5775 0.153993 14.6553 0.204242 14.7274 0.264915Z" fill="white"/>
</mask>
<g mask="url(#mask0)">
<rect width="28" height="28" fill="white"/>
</g>
</svg>
