<svg width="28" height="28" viewBox="0 0 28 28" fill="none" xmlns="http://www.w3.org/2000/svg">
<mask id="mask0" mask-type="alpha" maskUnits="userSpaceOnUse" x="0" y="2" width="28" height="24">
<path fill-rule="evenodd" clip-rule="evenodd" d="M17.4587 7.27279C17.2744 6.03051 16.7076 4.90444 15.8196 4.01642C14.9315 3.1283 13.8055 2.56157 12.5631 2.37733C11.9976 2.29349 11.4241 2.29349 10.8585 2.37733C7.68917 2.84737 5.49303 5.80815 5.96302 8.97751C6.19068 10.5128 7.00262 11.8675 8.24923 12.7922C9.26122 13.5429 10.4613 13.937 11.6985 13.937C11.9853 13.937 12.2742 13.9158 12.5631 13.873C15.7325 13.4029 17.9286 10.4421 17.4587 7.27279ZM19.6687 18.2608C17.5187 17.0633 14.6745 16.4039 11.6603 16.4039C8.64588 16.4039 5.8018 17.0634 3.65181 18.2608C1.29691 19.5722 0 21.3919 0 23.3845V24.5544C0 25.1791 0.506406 25.6854 1.13105 25.6854C1.75569 25.6854 2.26209 25.1791 2.26209 24.5544V23.3845C2.26209 22.2656 3.16974 21.1184 4.75234 20.2371C6.57141 19.224 9.02459 18.6661 11.6601 18.6661C14.2957 18.6661 16.7489 19.224 18.568 20.2371C20.1506 21.1184 21.0582 22.2656 21.0582 23.3845V24.5544C21.0582 25.1791 21.5646 25.6855 22.1893 25.6855C22.814 25.6855 23.3203 25.1791 23.3204 24.5544V23.3845C23.3204 21.3919 22.0235 19.5722 19.6687 18.2608ZM9.59678 10.9753C10.3581 11.5399 11.2937 11.7744 12.2313 11.6353C14.1667 11.3483 15.508 9.54013 15.221 7.60463C14.99 6.04735 13.7885 4.84592 12.2313 4.61498C12.0586 4.58938 11.8847 4.57659 11.7108 4.57659C11.5369 4.57659 11.363 4.58938 11.1903 4.61498C9.25482 4.90198 7.91361 6.71017 8.20066 8.64567C8.33968 9.58328 8.83548 10.4106 9.59678 10.9753ZM23.3592 8.21457C22.7345 8.21457 22.2282 8.72097 22.2282 9.34561V11.7243H19.8495C19.2248 11.7243 18.7184 12.2308 18.7184 12.8554C18.7184 13.48 19.2248 13.9864 19.8495 13.9864H22.2282V16.365C22.2282 16.9897 22.7345 17.4961 23.3592 17.4961C23.9839 17.4961 24.4903 16.9897 24.4903 16.365V13.9864H26.869C27.4936 13.9864 28 13.48 28 12.8554C28 12.2308 27.4936 11.7243 26.869 11.7243H24.4903V9.34567C24.4903 8.72103 23.9839 8.21457 23.3592 8.21457ZM24.4903 11.7243H22.2282V13.9864H24.4903V11.7243Z" fill="white"/>
</mask>
<g mask="url(#mask0)">
<rect width="28" height="28" fill="white"/>
</g>
</svg>
