<svg width="28" height="28" viewBox="0 0 28 28" fill="none" xmlns="http://www.w3.org/2000/svg">
<mask id="mask0" mask-type="alpha" maskUnits="userSpaceOnUse" x="0" y="0" width="28" height="28">
<path fill-rule="evenodd" clip-rule="evenodd" d="M24.5123 12.8677C24.5123 12.243 25.0187 11.7366 25.6434 11.7366C26.268 11.7366 26.7744 12.243 26.7744 12.8677V14.0075C26.7723 17.584 25.3779 20.945 22.8479 23.4721C20.32 25.9971 16.9601 27.3877 13.3874 27.3877H13.3795C9.80367 27.3856 6.44268 25.9912 3.91557 23.4612C1.38846 20.9313 -0.00202123 17.5686 2.20527e-06 13.9929C0.00208033 10.4169 1.3965 7.05591 3.92646 4.52891C6.45444 2.00388 9.81433 0.613281 13.387 0.613281H13.3949C15.2818 0.61432 17.1123 1.00424 18.8359 1.77222C19.4065 2.02652 19.6628 2.69513 19.4086 3.26568C19.1544 3.83623 18.4859 4.09277 17.9152 3.83848C16.4829 3.20033 14.9616 2.87625 13.3936 2.87538H13.3871C10.4179 2.87538 7.62606 4.03081 5.52513 6.12928C3.42262 8.22939 2.26379 11.0225 2.2621 13.9941C2.2586 20.1285 7.24642 25.122 13.3808 25.1255H13.3874C16.3566 25.1255 19.1484 23.97 21.2493 21.8716C23.3518 19.7716 24.5106 16.9785 24.5123 14.0069V12.8677ZM26.0692 2.17717C26.5109 1.73552 27.227 1.73552 27.6687 2.17717C28.1104 2.61888 28.1104 3.33502 27.6687 3.77673L14.1871 17.2585C13.9662 17.4793 13.6767 17.5898 13.3873 17.5898C13.0978 17.5898 12.8083 17.4793 12.5875 17.2585L8.91062 13.5816C8.46891 13.1399 8.46891 12.4238 8.91062 11.982C9.35228 11.5403 10.0685 11.5403 10.5101 11.982L13.3872 14.8591L26.0692 2.17717Z" fill="white"/>
</mask>
<g mask="url(#mask0)">
<rect width="28" height="28" fill="white"/>
</g>
</svg>
