<svg width="448" height="965" viewBox="0 0 448 965" fill="none" xmlns="http://www.w3.org/2000/svg">
<g opacity="0.570596" filter="url(#filter0_f)">
<rect x="49.0977" y="140.09" width="349.652" height="599.881" rx="35.75" fill="url(#paint0_linear)"/>
</g>
<rect x="86.293" y="152.388" width="279.721" height="554.787" rx="30.3875" fill="url(#paint1_linear)"/>
<mask id="mask0" mask-type="alpha" maskUnits="userSpaceOnUse" x="86" y="152" width="281" height="556">
<rect x="86.293" y="152.388" width="279.721" height="554.787" rx="30.3875" fill="white"/>
</mask>
<g mask="url(#mask0)">
</g>
<path d="M178.587 456.771C181.119 456.771 182.994 457.585 184.212 459.212C185.162 460.482 185.638 462.106 185.638 464.085C185.638 466.227 185.094 468.008 184.007 469.427C182.731 471.094 180.911 471.927 178.548 471.927C176.341 471.927 174.606 471.198 173.343 469.74C172.216 468.333 171.653 466.556 171.653 464.408C171.653 462.468 172.135 460.807 173.098 459.427C174.335 457.656 176.165 456.771 178.587 456.771ZM178.782 470.189C180.494 470.189 181.731 469.577 182.493 468.353C183.261 467.123 183.645 465.71 183.645 464.115C183.645 462.429 183.203 461.071 182.317 460.042C181.438 459.014 180.234 458.5 178.704 458.5C177.22 458.5 176.009 459.011 175.071 460.033C174.134 461.048 173.665 462.549 173.665 464.535C173.665 466.123 174.065 467.464 174.866 468.558C175.673 469.645 176.979 470.189 178.782 470.189ZM187.877 461.048H189.547V462.533C190.042 461.921 190.566 461.481 191.12 461.214C191.673 460.947 192.288 460.814 192.965 460.814C194.45 460.814 195.452 461.332 195.973 462.367C196.26 462.933 196.403 463.744 196.403 464.798V471.507H194.616V464.916C194.616 464.278 194.521 463.763 194.332 463.373C194.02 462.722 193.454 462.396 192.633 462.396C192.217 462.396 191.875 462.438 191.608 462.523C191.126 462.666 190.703 462.953 190.338 463.382C190.045 463.727 189.853 464.085 189.762 464.457C189.677 464.821 189.635 465.345 189.635 466.029V471.507H187.877V461.048ZM199.023 457.113H200.732V462.318C201.117 461.817 201.576 461.436 202.109 461.175C202.643 460.908 203.223 460.775 203.848 460.775C205.15 460.775 206.204 461.224 207.012 462.123C207.826 463.014 208.232 464.333 208.232 466.078C208.232 467.731 207.832 469.105 207.031 470.199C206.23 471.292 205.12 471.839 203.701 471.839C202.907 471.839 202.236 471.647 201.689 471.263C201.364 471.035 201.016 470.671 200.645 470.169V471.507H199.023V457.113ZM203.594 470.287C204.544 470.287 205.254 469.909 205.723 469.154C206.198 468.399 206.436 467.403 206.436 466.166C206.436 465.065 206.198 464.154 205.723 463.431C205.254 462.708 204.561 462.347 203.643 462.347C202.842 462.347 202.139 462.643 201.533 463.236C200.934 463.828 200.635 464.805 200.635 466.166C200.635 467.149 200.758 467.946 201.006 468.558C201.468 469.71 202.331 470.287 203.594 470.287ZM214.593 470.375C215.759 470.375 216.556 469.935 216.986 469.056C217.422 468.171 217.64 467.188 217.64 466.107C217.64 465.13 217.484 464.336 217.171 463.724C216.677 462.761 215.824 462.279 214.613 462.279C213.539 462.279 212.757 462.689 212.269 463.509C211.781 464.33 211.537 465.319 211.537 466.478C211.537 467.591 211.781 468.519 212.269 469.261C212.757 470.003 213.532 470.375 214.593 470.375ZM214.662 460.746C216.009 460.746 217.149 461.195 218.08 462.093C219.011 462.992 219.476 464.313 219.476 466.058C219.476 467.744 219.066 469.138 218.246 470.238C217.425 471.338 216.153 471.888 214.427 471.888C212.989 471.888 211.846 471.403 211 470.433C210.153 469.457 209.73 468.148 209.73 466.507C209.73 464.75 210.176 463.35 211.068 462.308C211.96 461.266 213.158 460.746 214.662 460.746ZM223.073 468.724C223.073 469.232 223.259 469.632 223.63 469.925C224.001 470.218 224.441 470.365 224.948 470.365C225.567 470.365 226.166 470.222 226.745 469.935C227.722 469.46 228.21 468.682 228.21 467.601V466.185C227.995 466.322 227.719 466.436 227.38 466.527C227.042 466.618 226.71 466.683 226.384 466.722L225.32 466.859C224.682 466.944 224.203 467.077 223.884 467.259C223.344 467.565 223.073 468.054 223.073 468.724ZM227.331 465.169C227.735 465.117 228.005 464.948 228.142 464.662C228.22 464.505 228.259 464.281 228.259 463.988C228.259 463.389 228.044 462.956 227.614 462.689C227.191 462.416 226.583 462.279 225.788 462.279C224.87 462.279 224.219 462.526 223.835 463.021C223.62 463.294 223.48 463.701 223.415 464.242H221.775C221.807 462.953 222.224 462.057 223.025 461.556C223.832 461.048 224.766 460.794 225.827 460.794C227.058 460.794 228.057 461.029 228.825 461.498C229.587 461.966 229.968 462.695 229.968 463.685V469.71C229.968 469.893 230.004 470.039 230.075 470.15C230.154 470.261 230.313 470.316 230.554 470.316C230.632 470.316 230.72 470.313 230.818 470.306C230.915 470.293 231.019 470.277 231.13 470.257V471.556C230.857 471.634 230.648 471.683 230.505 471.703C230.362 471.722 230.167 471.732 229.919 471.732C229.314 471.732 228.874 471.517 228.601 471.087C228.458 470.86 228.357 470.537 228.298 470.121C227.94 470.589 227.426 470.996 226.755 471.341C226.085 471.686 225.346 471.859 224.538 471.859C223.568 471.859 222.774 471.566 222.155 470.98C221.543 470.388 221.237 469.649 221.237 468.763C221.237 467.793 221.54 467.041 222.146 466.507C222.751 465.973 223.545 465.645 224.529 465.521L227.331 465.169ZM233.057 461.048H234.727V462.855C234.864 462.503 235.199 462.077 235.733 461.576C236.267 461.068 236.882 460.814 237.579 460.814C237.611 460.814 237.667 460.817 237.745 460.824C237.823 460.83 237.957 460.843 238.145 460.863V462.718C238.041 462.699 237.943 462.686 237.852 462.679C237.768 462.673 237.673 462.669 237.569 462.669C236.684 462.669 236.003 462.956 235.528 463.529C235.053 464.095 234.815 464.75 234.815 465.492V471.507H233.057V461.048ZM240.932 466.4C240.932 467.52 241.17 468.457 241.645 469.212C242.12 469.968 242.882 470.345 243.93 470.345C244.744 470.345 245.411 469.997 245.932 469.3C246.459 468.597 246.723 467.591 246.723 466.283C246.723 464.961 246.453 463.985 245.913 463.353C245.372 462.715 244.705 462.396 243.911 462.396C243.025 462.396 242.306 462.735 241.752 463.412C241.205 464.089 240.932 465.085 240.932 466.4ZM243.579 460.863C244.379 460.863 245.05 461.032 245.59 461.371C245.903 461.566 246.258 461.908 246.655 462.396V457.113H248.344V471.507H246.762V470.052C246.352 470.697 245.867 471.162 245.307 471.449C244.747 471.735 244.106 471.878 243.383 471.878C242.218 471.878 241.209 471.39 240.356 470.414C239.503 469.431 239.077 468.125 239.077 466.498C239.077 464.974 239.464 463.656 240.239 462.542C241.02 461.423 242.133 460.863 243.579 460.863ZM251.102 461.097H252.889V471.507H251.102V461.097ZM251.102 457.162H252.889V459.154H251.102V457.162ZM255.705 461.048H257.375V462.533C257.869 461.921 258.393 461.481 258.947 461.214C259.5 460.947 260.115 460.814 260.793 460.814C262.277 460.814 263.28 461.332 263.8 462.367C264.087 462.933 264.23 463.744 264.23 464.798V471.507H262.443V464.916C262.443 464.278 262.349 463.763 262.16 463.373C261.847 462.722 261.281 462.396 260.461 462.396C260.044 462.396 259.702 462.438 259.435 462.523C258.953 462.666 258.53 462.953 258.166 463.382C257.873 463.727 257.681 464.085 257.589 464.457C257.505 464.821 257.462 465.345 257.462 466.029V471.507H255.705V461.048ZM270.679 460.863C271.499 460.863 272.215 461.065 272.827 461.468C273.159 461.696 273.498 462.028 273.843 462.464V461.146H275.464V470.658C275.464 471.986 275.269 473.034 274.878 473.802C274.149 475.222 272.772 475.931 270.747 475.931C269.621 475.931 268.674 475.677 267.905 475.169C267.137 474.668 266.708 473.88 266.616 472.806H268.404C268.488 473.275 268.657 473.636 268.911 473.89C269.308 474.281 269.933 474.476 270.786 474.476C272.134 474.476 273.016 474.001 273.433 473.05C273.68 472.49 273.794 471.491 273.775 470.052C273.423 470.586 273 470.983 272.505 471.244C272.01 471.504 271.356 471.634 270.542 471.634C269.409 471.634 268.417 471.234 267.564 470.433C266.717 469.626 266.294 468.294 266.294 466.439C266.294 464.688 266.721 463.32 267.573 462.337C268.433 461.354 269.468 460.863 270.679 460.863ZM273.843 466.234C273.843 464.938 273.576 463.978 273.042 463.353C272.508 462.728 271.828 462.416 271.001 462.416C269.764 462.416 268.918 462.995 268.462 464.154C268.221 464.772 268.101 465.583 268.101 466.585C268.101 467.764 268.338 468.662 268.814 469.281C269.295 469.893 269.94 470.199 270.747 470.199C272.01 470.199 272.899 469.629 273.413 468.49C273.7 467.845 273.843 467.093 273.843 466.234Z" fill="white"/>
<path opacity="0.752846" d="M131.588 491.955H132.694V500.761H131.588V491.955ZM139.262 500.565C138.459 500.939 137.727 501.018 137.064 500.803C136.588 500.654 136.252 500.341 136.056 499.865C135.953 499.632 135.902 499.352 135.902 499.025V494.909H134.824V494.069H135.902V492.207H136.994V494.069H139.094V494.909H136.994V499.011C136.994 499.693 137.311 500.033 137.946 500.033C138.291 500.033 138.679 499.949 139.108 499.781L139.262 500.565ZM144.848 494.069L146.472 499.403L148.068 494.391H148.992L150.574 499.459L152.212 494.069H153.304L151.12 500.761H150.042L148.502 496.071L146.99 500.761H145.926L143.7 494.069H144.848ZM159.4 496.421C159.4 495.815 159.274 495.381 159.022 495.119C158.77 494.858 158.402 494.727 157.916 494.727C157.44 494.727 157.053 494.825 156.754 495.021C156.465 495.208 156.32 495.507 156.32 495.917H155.102C155.102 494.891 155.653 494.256 156.754 494.013C157.09 493.939 157.454 493.901 157.846 493.901C158.677 493.901 159.326 494.111 159.792 494.531C160.259 494.951 160.492 495.591 160.492 496.449V500.761H159.54L159.428 499.641C159.018 500.491 158.276 500.915 157.202 500.915C156.484 500.915 155.905 500.715 155.466 500.313C155.037 499.912 154.822 499.413 154.822 498.815C154.822 498.218 155.06 497.751 155.536 497.415C156.022 497.079 156.624 496.911 157.342 496.911C158.061 496.911 158.747 497.033 159.4 497.275V496.421ZM159.4 497.975C158.738 497.789 158.159 497.695 157.664 497.695C157.17 497.695 156.768 497.784 156.46 497.961C156.152 498.139 155.998 498.419 155.998 498.801C155.998 499.641 156.474 500.061 157.426 500.061C157.968 500.061 158.43 499.87 158.812 499.487C159.204 499.095 159.4 498.591 159.4 497.975ZM162.99 495.707C162.99 495.157 163.224 494.718 163.69 494.391C164.166 494.065 164.806 493.901 165.608 493.901C166.411 493.901 167.036 494.069 167.484 494.405C167.942 494.741 168.18 495.166 168.198 495.679H167.12C167.036 495.073 166.523 494.769 165.58 494.769C165.123 494.769 164.768 494.872 164.516 495.077C164.274 495.283 164.152 495.507 164.152 495.749C164.152 495.983 164.246 496.183 164.432 496.351C164.619 496.51 164.918 496.65 165.328 496.771L166.672 497.219C167.242 497.397 167.676 497.625 167.974 497.905C168.282 498.176 168.436 498.554 168.436 499.039C168.436 499.515 168.189 499.949 167.694 500.341C167.2 500.724 166.509 500.915 165.622 500.915C164.736 500.915 164.045 500.719 163.55 500.327C163.056 499.926 162.794 499.413 162.766 498.787H163.83C163.849 499.207 164.017 499.525 164.334 499.739C164.661 499.945 165.067 500.047 165.552 500.047C166.038 500.047 166.439 499.945 166.756 499.739C167.074 499.534 167.232 499.291 167.232 499.011C167.232 498.722 167.139 498.503 166.952 498.353C166.766 498.204 166.462 498.073 166.042 497.961L164.74 497.527C163.574 497.182 162.99 496.575 162.99 495.707ZM178.689 496.421C178.689 495.815 178.563 495.381 178.311 495.119C178.059 494.858 177.691 494.727 177.205 494.727C176.729 494.727 176.342 494.825 176.043 495.021C175.754 495.208 175.609 495.507 175.609 495.917H174.391C174.391 494.891 174.942 494.256 176.043 494.013C176.379 493.939 176.743 493.901 177.135 493.901C177.966 493.901 178.615 494.111 179.081 494.531C179.548 494.951 179.781 495.591 179.781 496.449V500.761H178.829L178.717 499.641C178.307 500.491 177.565 500.915 176.491 500.915C175.773 500.915 175.194 500.715 174.755 500.313C174.326 499.912 174.111 499.413 174.111 498.815C174.111 498.218 174.349 497.751 174.825 497.415C175.311 497.079 175.913 496.911 176.631 496.911C177.35 496.911 178.036 497.033 178.689 497.275V496.421ZM178.689 497.975C178.027 497.789 177.448 497.695 176.953 497.695C176.459 497.695 176.057 497.784 175.749 497.961C175.441 498.139 175.287 498.419 175.287 498.801C175.287 499.641 175.763 500.061 176.715 500.061C177.257 500.061 177.719 499.87 178.101 499.487C178.493 499.095 178.689 498.591 178.689 497.975ZM187.321 495.301C187.769 494.368 188.511 493.901 189.547 493.901C190.341 493.901 190.957 494.163 191.395 494.685C191.843 495.208 192.067 495.922 192.067 496.827V500.761H190.975V496.827C190.975 496.183 190.821 495.698 190.513 495.371C190.215 495.045 189.781 494.881 189.211 494.881C188.642 494.881 188.185 495.124 187.839 495.609C187.494 496.085 187.321 496.748 187.321 497.597V500.761H186.215V491.227H187.321V495.301ZM199.464 499.431C199.007 500.402 198.265 500.887 197.238 500.887C196.482 500.887 195.871 500.677 195.404 500.257C194.947 499.837 194.718 499.189 194.718 498.311V494.055H195.824V498.227C195.824 499.357 196.347 499.921 197.392 499.921C197.999 499.921 198.489 499.688 198.862 499.221C199.245 498.755 199.446 498.157 199.464 497.429V494.055H200.57V500.761H199.464V499.431ZM204.719 495.357C205.157 494.387 205.909 493.901 206.973 493.901C207.551 493.901 208.037 494.046 208.429 494.335C208.821 494.615 209.105 495.007 209.283 495.511C209.703 494.438 210.482 493.901 211.621 493.901C212.423 493.901 213.044 494.163 213.483 494.685C213.921 495.208 214.141 495.922 214.141 496.827V500.761H213.049V496.827C213.049 496.183 212.895 495.698 212.587 495.371C212.288 495.045 211.854 494.881 211.285 494.881C210.715 494.881 210.272 495.115 209.955 495.581C209.647 496.048 209.493 496.692 209.493 497.513V500.761H208.401V496.827C208.401 496.183 208.247 495.698 207.939 495.371C207.64 495.045 207.211 494.881 206.651 494.881C206.091 494.881 205.638 495.11 205.293 495.567C204.947 496.025 204.765 496.659 204.747 497.471V500.761H203.641V494.069H204.593L204.719 495.357ZM219.397 493.901C220.33 493.901 221.081 494.205 221.651 494.811C222.229 495.418 222.519 496.286 222.519 497.415C222.519 498.535 222.229 499.399 221.651 500.005C221.081 500.612 220.33 500.915 219.397 500.915C218.463 500.915 217.707 500.612 217.129 500.005C216.559 499.399 216.275 498.535 216.275 497.415C216.275 496.286 216.559 495.418 217.129 494.811C217.707 494.205 218.463 493.901 219.397 493.901ZM221.399 497.415C221.399 496.613 221.231 495.987 220.895 495.539C220.559 495.082 220.064 494.853 219.411 494.853C218.767 494.853 218.272 495.082 217.927 495.539C217.581 495.987 217.409 496.613 217.409 497.415C217.409 498.209 217.572 498.834 217.899 499.291C218.225 499.739 218.711 499.963 219.355 499.963C220.008 499.963 220.512 499.739 220.867 499.291C221.221 498.834 221.399 498.209 221.399 497.415ZM227.611 495.007C226.557 495.007 226.011 495.838 225.973 497.499V500.761H224.867V494.055H225.973V495.343C226.309 494.41 226.902 493.943 227.751 493.943C228.022 493.943 228.279 493.985 228.521 494.069L228.465 495.147C228.185 495.054 227.901 495.007 227.611 495.007ZM232.871 493.901C233.805 493.901 234.556 494.205 235.125 494.811C235.704 495.418 235.993 496.286 235.993 497.415C235.993 498.535 235.704 499.399 235.125 500.005C234.556 500.612 233.805 500.915 232.871 500.915C231.938 500.915 231.182 500.612 230.603 500.005C230.034 499.399 229.749 498.535 229.749 497.415C229.749 496.286 230.034 495.418 230.603 494.811C231.182 494.205 231.938 493.901 232.871 493.901ZM234.873 497.415C234.873 496.613 234.705 495.987 234.369 495.539C234.033 495.082 233.539 494.853 232.885 494.853C232.241 494.853 231.747 495.082 231.401 495.539C231.056 495.987 230.883 496.613 230.883 497.415C230.883 498.209 231.047 498.834 231.373 499.291C231.7 499.739 232.185 499.963 232.829 499.963C233.483 499.963 233.987 499.739 234.341 499.291C234.696 498.834 234.873 498.209 234.873 497.415ZM242.906 499.431C242.449 500.402 241.707 500.887 240.68 500.887C239.924 500.887 239.313 500.677 238.846 500.257C238.389 499.837 238.16 499.189 238.16 498.311V494.055H239.266V498.227C239.266 499.357 239.789 499.921 240.834 499.921C241.441 499.921 241.931 499.688 242.304 499.221C242.687 498.755 242.887 498.157 242.906 497.429V494.055H244.012V500.761H242.906V499.431ZM246.746 495.707C246.746 495.157 246.979 494.718 247.446 494.391C247.922 494.065 248.561 493.901 249.364 493.901C250.167 493.901 250.792 494.069 251.24 494.405C251.697 494.741 251.935 495.166 251.954 495.679H250.876C250.792 495.073 250.279 494.769 249.336 494.769C248.879 494.769 248.524 494.872 248.272 495.077C248.029 495.283 247.908 495.507 247.908 495.749C247.908 495.983 248.001 496.183 248.188 496.351C248.375 496.51 248.673 496.65 249.084 496.771L250.428 497.219C250.997 497.397 251.431 497.625 251.73 497.905C252.038 498.176 252.192 498.554 252.192 499.039C252.192 499.515 251.945 499.949 251.45 500.341C250.955 500.724 250.265 500.915 249.378 500.915C248.491 500.915 247.801 500.719 247.306 500.327C246.811 499.926 246.55 499.413 246.522 498.787H247.586C247.605 499.207 247.773 499.525 248.09 499.739C248.417 499.945 248.823 500.047 249.308 500.047C249.793 500.047 250.195 499.945 250.512 499.739C250.829 499.534 250.988 499.291 250.988 499.011C250.988 498.722 250.895 498.503 250.708 498.353C250.521 498.204 250.218 498.073 249.798 497.961L248.496 497.527C247.329 497.182 246.746 496.575 246.746 495.707ZM254.715 491.227H255.821V500.761H254.715V491.227ZM257.545 502.707C258.002 503.062 258.483 503.239 258.987 503.239C259.36 503.239 259.682 503.053 259.953 502.679C260.149 502.409 260.326 501.998 260.485 501.447L260.681 500.761L257.937 494.069H259.169L261.199 499.403L262.781 494.069H263.901L261.395 502.091C261.18 502.773 260.896 503.295 260.541 503.659C260.196 504.023 259.752 504.205 259.211 504.205C258.679 504.205 258.124 504.042 257.545 503.715V502.707ZM270.542 495.091C270.981 494.298 271.634 493.901 272.502 493.901C273.38 493.901 274.108 494.223 274.686 494.867C275.274 495.511 275.568 496.361 275.568 497.415C275.568 498.47 275.274 499.319 274.686 499.963C274.098 500.598 273.375 500.915 272.516 500.915C271.658 500.915 271.023 500.593 270.612 499.949V504.051H269.506V494.069H270.416L270.542 495.091ZM272.46 499.935C272.983 499.935 273.44 499.711 273.832 499.263C274.234 498.815 274.434 498.204 274.434 497.429C274.434 496.645 274.243 496.025 273.86 495.567C273.487 495.11 273.03 494.881 272.488 494.881C271.947 494.881 271.504 495.054 271.158 495.399C270.813 495.735 270.631 496.193 270.612 496.771V498.045C270.612 498.633 270.79 499.095 271.144 499.431C271.499 499.767 271.938 499.935 272.46 499.935ZM280.379 500.019C281.303 500.019 281.83 499.613 281.961 498.801H283.095C282.992 499.473 282.693 499.996 282.199 500.369C281.713 500.733 281.107 500.915 280.379 500.915C279.483 500.915 278.755 500.598 278.195 499.963C277.635 499.319 277.355 498.465 277.355 497.401C277.355 496.337 277.635 495.488 278.195 494.853C278.764 494.219 279.515 493.901 280.449 493.901C281.391 493.901 282.091 494.265 282.549 494.993C283.015 495.721 283.179 496.608 283.039 497.653H278.461C278.461 498.344 278.629 498.913 278.965 499.361C279.301 499.8 279.772 500.019 280.379 500.019ZM281.191 494.951C280.976 494.839 280.715 494.783 280.407 494.783C279.837 494.783 279.385 494.979 279.049 495.371C278.722 495.754 278.531 496.235 278.475 496.813H282.045C282.045 495.88 281.76 495.259 281.191 494.951ZM288.254 495.007C287.199 495.007 286.653 495.838 286.616 497.499V500.761H285.51V494.055H286.616V495.343C286.952 494.41 287.545 493.943 288.394 493.943C288.665 493.943 288.921 493.985 289.164 494.069L289.108 495.147C288.828 495.054 288.543 495.007 288.254 495.007ZM291.176 494.055H292.282V500.761H291.176V494.055ZM291.722 492.487C291.498 492.487 291.321 492.427 291.19 492.305C291.069 492.175 291.008 492.007 291.008 491.801C291.008 491.587 291.069 491.419 291.19 491.297C291.321 491.167 291.498 491.101 291.722 491.101C291.946 491.101 292.123 491.167 292.254 491.297C292.394 491.419 292.464 491.587 292.464 491.801C292.464 492.007 292.394 492.175 292.254 492.305C292.123 492.427 291.946 492.487 291.722 492.487ZM295.539 491.227H296.645V500.761H295.539V491.227ZM302.121 493.901C303.055 493.901 303.806 494.205 304.375 494.811C304.954 495.418 305.243 496.286 305.243 497.415C305.243 498.535 304.954 499.399 304.375 500.005C303.806 500.612 303.055 500.915 302.121 500.915C301.188 500.915 300.432 500.612 299.853 500.005C299.284 499.399 298.999 498.535 298.999 497.415C298.999 496.286 299.284 495.418 299.853 494.811C300.432 494.205 301.188 493.901 302.121 493.901ZM304.123 497.415C304.123 496.613 303.955 495.987 303.619 495.539C303.283 495.082 302.789 494.853 302.135 494.853C301.491 494.853 300.997 495.082 300.651 495.539C300.306 495.987 300.133 496.613 300.133 497.415C300.133 498.209 300.297 498.834 300.623 499.291C300.95 499.739 301.435 499.963 302.079 499.963C302.733 499.963 303.237 499.739 303.591 499.291C303.946 498.834 304.123 498.209 304.123 497.415ZM312.156 499.431C311.699 500.402 310.957 500.887 309.93 500.887C309.174 500.887 308.563 500.677 308.096 500.257C307.639 499.837 307.41 499.189 307.41 498.311V494.055H308.516V498.227C308.516 499.357 309.039 499.921 310.084 499.921C310.691 499.921 311.181 499.688 311.554 499.221C311.937 498.755 312.137 498.157 312.156 497.429V494.055H313.262V500.761H312.156V499.431ZM315.996 495.707C315.996 495.157 316.229 494.718 316.696 494.391C317.172 494.065 317.811 493.901 318.614 493.901C319.417 493.901 320.042 494.069 320.49 494.405C320.947 494.741 321.185 495.166 321.204 495.679H320.126C320.042 495.073 319.529 494.769 318.586 494.769C318.129 494.769 317.774 494.872 317.522 495.077C317.279 495.283 317.158 495.507 317.158 495.749C317.158 495.983 317.251 496.183 317.438 496.351C317.625 496.51 317.923 496.65 318.334 496.771L319.678 497.219C320.247 497.397 320.681 497.625 320.98 497.905C321.288 498.176 321.442 498.554 321.442 499.039C321.442 499.515 321.195 499.949 320.7 500.341C320.205 500.724 319.515 500.915 318.628 500.915C317.741 500.915 317.051 500.719 316.556 500.327C316.061 499.926 315.8 499.413 315.772 498.787H316.836C316.855 499.207 317.023 499.525 317.34 499.739C317.667 499.945 318.073 500.047 318.558 500.047C319.043 500.047 319.445 499.945 319.762 499.739C320.079 499.534 320.238 499.291 320.238 499.011C320.238 498.722 320.145 498.503 319.958 498.353C319.771 498.204 319.468 498.073 319.048 497.961L317.746 497.527C316.579 497.182 315.996 496.575 315.996 495.707ZM137.136 515.063C137.584 514.289 138.237 513.901 139.096 513.901C139.954 513.901 140.668 514.223 141.238 514.867C141.807 515.502 142.092 516.347 142.092 517.401C142.092 518.447 141.802 519.296 141.224 519.949C140.645 520.593 139.94 520.915 139.11 520.915C138.662 520.915 138.256 520.803 137.892 520.579C137.537 520.355 137.257 520.024 137.052 519.585L136.8 520.761H136.03V511.227H137.136V515.063ZM139.026 514.881C138.494 514.881 138.05 515.054 137.696 515.399C137.341 515.735 137.154 516.207 137.136 516.813V517.905C137.136 518.521 137.318 519.016 137.682 519.389C138.055 519.753 138.503 519.935 139.026 519.935C139.548 519.935 140.001 519.707 140.384 519.249C140.766 518.783 140.958 518.167 140.958 517.401C140.958 516.636 140.766 516.025 140.384 515.567C140.01 515.11 139.558 514.881 139.026 514.881ZM149.005 519.431C148.548 520.402 147.806 520.887 146.779 520.887C146.023 520.887 145.412 520.677 144.945 520.257C144.488 519.837 144.259 519.189 144.259 518.311V514.055H145.365V518.227C145.365 519.357 145.888 519.921 146.933 519.921C147.54 519.921 148.03 519.688 148.403 519.221C148.786 518.755 148.987 518.157 149.005 517.429V514.055H150.111V520.761H149.005V519.431ZM152.846 515.707C152.846 515.157 153.079 514.718 153.546 514.391C154.022 514.065 154.661 513.901 155.464 513.901C156.266 513.901 156.892 514.069 157.34 514.405C157.797 514.741 158.035 515.166 158.054 515.679H156.976C156.892 515.073 156.378 514.769 155.436 514.769C154.978 514.769 154.624 514.872 154.372 515.077C154.129 515.283 154.008 515.507 154.008 515.749C154.008 515.983 154.101 516.183 154.288 516.351C154.474 516.51 154.773 516.65 155.184 516.771L156.528 517.219C157.097 517.397 157.531 517.625 157.83 517.905C158.138 518.176 158.292 518.554 158.292 519.039C158.292 519.515 158.044 519.949 157.55 520.341C157.055 520.724 156.364 520.915 155.478 520.915C154.591 520.915 153.9 520.719 153.406 520.327C152.911 519.926 152.65 519.413 152.622 518.787H153.686C153.704 519.207 153.872 519.525 154.19 519.739C154.516 519.945 154.922 520.047 155.408 520.047C155.893 520.047 156.294 519.945 156.612 519.739C156.929 519.534 157.088 519.291 157.088 519.011C157.088 518.722 156.994 518.503 156.808 518.353C156.621 518.204 156.318 518.073 155.898 517.961L154.596 517.527C153.429 517.182 152.846 516.575 152.846 515.707ZM160.885 514.055H161.991V520.761H160.885V514.055ZM161.431 512.487C161.207 512.487 161.03 512.427 160.899 512.305C160.778 512.175 160.717 512.007 160.717 511.801C160.717 511.587 160.778 511.419 160.899 511.297C161.03 511.167 161.207 511.101 161.431 511.101C161.655 511.101 161.832 511.167 161.963 511.297C162.103 511.419 162.173 511.587 162.173 511.801C162.173 512.007 162.103 512.175 161.963 512.305C161.832 512.427 161.655 512.487 161.431 512.487ZM166.312 515.357C166.751 514.387 167.502 513.901 168.566 513.901C169.36 513.901 169.976 514.163 170.414 514.685C170.862 515.208 171.086 515.922 171.086 516.827V520.761H169.994V516.827C169.994 516.183 169.84 515.698 169.532 515.371C169.234 515.045 168.804 514.881 168.244 514.881C167.684 514.881 167.232 515.11 166.886 515.567C166.541 516.025 166.359 516.659 166.34 517.471V520.761H165.234V514.069H166.186L166.312 515.357ZM176.244 520.019C177.168 520.019 177.695 519.613 177.826 518.801H178.96C178.857 519.473 178.559 519.996 178.064 520.369C177.579 520.733 176.972 520.915 176.244 520.915C175.348 520.915 174.62 520.598 174.06 519.963C173.5 519.319 173.22 518.465 173.22 517.401C173.22 516.337 173.5 515.488 174.06 514.853C174.629 514.219 175.381 513.901 176.314 513.901C177.257 513.901 177.957 514.265 178.414 514.993C178.881 515.721 179.044 516.608 178.904 517.653H174.326C174.326 518.344 174.494 518.913 174.83 519.361C175.166 519.8 175.637 520.019 176.244 520.019ZM177.056 514.951C176.841 514.839 176.58 514.783 176.272 514.783C175.703 514.783 175.25 514.979 174.914 515.371C174.587 515.754 174.396 516.235 174.34 516.813H177.91C177.91 515.88 177.625 515.259 177.056 514.951ZM181.039 515.707C181.039 515.157 181.272 514.718 181.739 514.391C182.215 514.065 182.854 513.901 183.657 513.901C184.46 513.901 185.085 514.069 185.533 514.405C185.99 514.741 186.228 515.166 186.247 515.679H185.169C185.085 515.073 184.572 514.769 183.629 514.769C183.172 514.769 182.817 514.872 182.565 515.077C182.322 515.283 182.201 515.507 182.201 515.749C182.201 515.983 182.294 516.183 182.481 516.351C182.668 516.51 182.966 516.65 183.377 516.771L184.721 517.219C185.29 517.397 185.724 517.625 186.023 517.905C186.331 518.176 186.485 518.554 186.485 519.039C186.485 519.515 186.238 519.949 185.743 520.341C185.248 520.724 184.558 520.915 183.671 520.915C182.784 520.915 182.094 520.719 181.599 520.327C181.104 519.926 180.843 519.413 180.815 518.787H181.879C181.898 519.207 182.066 519.525 182.383 519.739C182.71 519.945 183.116 520.047 183.601 520.047C184.086 520.047 184.488 519.945 184.805 519.739C185.122 519.534 185.281 519.291 185.281 519.011C185.281 518.722 185.188 518.503 185.001 518.353C184.814 518.204 184.511 518.073 184.091 517.961L182.789 517.527C181.622 517.182 181.039 516.575 181.039 515.707ZM188.658 515.707C188.658 515.157 188.892 514.718 189.358 514.391C189.834 514.065 190.474 513.901 191.276 513.901C192.079 513.901 192.704 514.069 193.152 514.405C193.61 514.741 193.848 515.166 193.866 515.679H192.788C192.704 515.073 192.191 514.769 191.248 514.769C190.791 514.769 190.436 514.872 190.184 515.077C189.942 515.283 189.82 515.507 189.82 515.749C189.82 515.983 189.914 516.183 190.1 516.351C190.287 516.51 190.586 516.65 190.996 516.771L192.34 517.219C192.91 517.397 193.344 517.625 193.642 517.905C193.95 518.176 194.104 518.554 194.104 519.039C194.104 519.515 193.857 519.949 193.362 520.341C192.868 520.724 192.177 520.915 191.29 520.915C190.404 520.915 189.713 520.719 189.218 520.327C188.724 519.926 188.462 519.413 188.434 518.787H189.498C189.517 519.207 189.685 519.525 190.002 519.739C190.329 519.945 190.735 520.047 191.22 520.047C191.706 520.047 192.107 519.945 192.424 519.739C192.742 519.534 192.9 519.291 192.9 519.011C192.9 518.722 192.807 518.503 192.62 518.353C192.434 518.204 192.13 518.073 191.71 517.961L190.408 517.527C189.242 517.182 188.658 516.575 188.658 515.707ZM203.461 512.165C203.153 512.044 202.911 511.983 202.733 511.983C202.407 511.983 202.15 512.063 201.963 512.221C201.777 512.38 201.683 512.66 201.683 513.061V514.069H203.069V514.825H201.683V520.761H200.591V514.825H199.485V514.069H200.591V513.047C200.591 512.385 200.773 511.899 201.137 511.591C201.501 511.274 201.921 511.115 202.397 511.115C202.873 511.115 203.293 511.176 203.657 511.297L203.461 512.165ZM207.67 513.901C208.603 513.901 209.355 514.205 209.924 514.811C210.503 515.418 210.792 516.286 210.792 517.415C210.792 518.535 210.503 519.399 209.924 520.005C209.355 520.612 208.603 520.915 207.67 520.915C206.737 520.915 205.981 520.612 205.402 520.005C204.833 519.399 204.548 518.535 204.548 517.415C204.548 516.286 204.833 515.418 205.402 514.811C205.981 514.205 206.737 513.901 207.67 513.901ZM209.672 517.415C209.672 516.613 209.504 515.987 209.168 515.539C208.832 515.082 208.337 514.853 207.684 514.853C207.04 514.853 206.545 515.082 206.2 515.539C205.855 515.987 205.682 516.613 205.682 517.415C205.682 518.209 205.845 518.834 206.172 519.291C206.499 519.739 206.984 519.963 207.628 519.963C208.281 519.963 208.785 519.739 209.14 519.291C209.495 518.834 209.672 518.209 209.672 517.415ZM215.885 515.007C214.83 515.007 214.284 515.838 214.247 517.499V520.761H213.141V514.055H214.247V515.343C214.583 514.41 215.175 513.943 216.025 513.943C216.295 513.943 216.552 513.985 216.795 514.069L216.739 515.147C216.459 515.054 216.174 515.007 215.885 515.007ZM223.429 515.063C223.877 514.289 224.53 513.901 225.389 513.901C226.247 513.901 226.961 514.223 227.531 514.867C228.1 515.502 228.385 516.347 228.385 517.401C228.385 518.447 228.095 519.296 227.517 519.949C226.938 520.593 226.233 520.915 225.403 520.915C224.955 520.915 224.549 520.803 224.185 520.579C223.83 520.355 223.55 520.024 223.345 519.585L223.093 520.761H222.323V511.227H223.429V515.063ZM225.319 514.881C224.787 514.881 224.343 515.054 223.989 515.399C223.634 515.735 223.447 516.207 223.429 516.813V517.905C223.429 518.521 223.611 519.016 223.975 519.389C224.348 519.753 224.796 519.935 225.319 519.935C225.841 519.935 226.294 519.707 226.677 519.249C227.059 518.783 227.251 518.167 227.251 517.401C227.251 516.636 227.059 516.025 226.677 515.567C226.303 515.11 225.851 514.881 225.319 514.881ZM233.156 513.901C234.09 513.901 234.841 514.205 235.41 514.811C235.989 515.418 236.278 516.286 236.278 517.415C236.278 518.535 235.989 519.399 235.41 520.005C234.841 520.612 234.09 520.915 233.156 520.915C232.223 520.915 231.467 520.612 230.888 520.005C230.319 519.399 230.034 518.535 230.034 517.415C230.034 516.286 230.319 515.418 230.888 514.811C231.467 514.205 232.223 513.901 233.156 513.901ZM235.158 517.415C235.158 516.613 234.99 515.987 234.654 515.539C234.318 515.082 233.824 514.853 233.17 514.853C232.526 514.853 232.032 515.082 231.686 515.539C231.341 515.987 231.168 516.613 231.168 517.415C231.168 518.209 231.332 518.834 231.658 519.291C231.985 519.739 232.47 519.963 233.114 519.963C233.768 519.963 234.272 519.739 234.626 519.291C234.981 518.834 235.158 518.209 235.158 517.415ZM242.141 520.565C241.338 520.939 240.606 521.018 239.943 520.803C239.467 520.654 239.131 520.341 238.935 519.865C238.832 519.632 238.781 519.352 238.781 519.025V514.909H237.703V514.069H238.781V512.207H239.873V514.069H241.973V514.909H239.873V519.011C239.873 519.693 240.19 520.033 240.825 520.033C241.17 520.033 241.558 519.949 241.987 519.781L242.141 520.565ZM245.261 515.301C245.709 514.368 246.451 513.901 247.487 513.901C248.28 513.901 248.896 514.163 249.335 514.685C249.783 515.208 250.007 515.922 250.007 516.827V520.761H248.915V516.827C248.915 516.183 248.761 515.698 248.453 515.371C248.154 515.045 247.72 514.881 247.151 514.881C246.581 514.881 246.124 515.124 245.779 515.609C245.433 516.085 245.261 516.748 245.261 517.597V520.761H244.155V511.227H245.261V515.301ZM258.848 513.901C259.781 513.901 260.533 514.205 261.102 514.811C261.681 515.418 261.97 516.286 261.97 517.415C261.97 518.535 261.681 519.399 261.102 520.005C260.533 520.612 259.781 520.915 258.848 520.915C257.915 520.915 257.159 520.612 256.58 520.005C256.011 519.399 255.726 518.535 255.726 517.415C255.726 516.286 256.011 515.418 256.58 514.811C257.159 514.205 257.915 513.901 258.848 513.901ZM260.85 517.415C260.85 516.613 260.682 515.987 260.346 515.539C260.01 515.082 259.515 514.853 258.862 514.853C258.218 514.853 257.723 515.082 257.378 515.539C257.033 515.987 256.86 516.613 256.86 517.415C256.86 518.209 257.023 518.834 257.35 519.291C257.677 519.739 258.162 519.963 258.806 519.963C259.459 519.963 259.963 519.739 260.318 519.291C260.673 518.834 260.85 518.209 260.85 517.415ZM267.58 512.165C267.272 512.044 267.03 511.983 266.852 511.983C266.526 511.983 266.269 512.063 266.082 512.221C265.896 512.38 265.802 512.66 265.802 513.061V514.069H267.188V514.825H265.802V520.761H264.71V514.825H263.604V514.069H264.71V513.047C264.71 512.385 264.892 511.899 265.256 511.591C265.62 511.274 266.04 511.115 266.516 511.115C266.992 511.115 267.412 511.176 267.776 511.297L267.58 512.165ZM277.517 519.431C277.06 520.402 276.318 520.887 275.291 520.887C274.535 520.887 273.924 520.677 273.457 520.257C273 519.837 272.771 519.189 272.771 518.311V514.055H273.877V518.227C273.877 519.357 274.4 519.921 275.445 519.921C276.052 519.921 276.542 519.688 276.915 519.221C277.298 518.755 277.499 518.157 277.517 517.429V514.055H278.623V520.761H277.517V519.431ZM281.357 515.707C281.357 515.157 281.591 514.718 282.057 514.391C282.533 514.065 283.173 513.901 283.975 513.901C284.778 513.901 285.403 514.069 285.851 514.405C286.309 514.741 286.547 515.166 286.565 515.679H285.487C285.403 515.073 284.89 514.769 283.947 514.769C283.49 514.769 283.135 514.872 282.883 515.077C282.641 515.283 282.519 515.507 282.519 515.749C282.519 515.983 282.613 516.183 282.799 516.351C282.986 516.51 283.285 516.65 283.695 516.771L285.039 517.219C285.609 517.397 286.043 517.625 286.341 517.905C286.649 518.176 286.803 518.554 286.803 519.039C286.803 519.515 286.556 519.949 286.061 520.341C285.567 520.724 284.876 520.915 283.989 520.915C283.103 520.915 282.412 520.719 281.917 520.327C281.423 519.926 281.161 519.413 281.133 518.787H282.197C282.216 519.207 282.384 519.525 282.701 519.739C283.028 519.945 283.434 520.047 283.919 520.047C284.405 520.047 284.806 519.945 285.123 519.739C285.441 519.534 285.599 519.291 285.599 519.011C285.599 518.722 285.506 518.503 285.319 518.353C285.133 518.204 284.829 518.073 284.409 517.961L283.107 517.527C281.941 517.182 281.357 516.575 281.357 515.707ZM289.145 520.887C288.911 520.887 288.715 520.813 288.557 520.663C288.407 520.505 288.333 520.318 288.333 520.103C288.333 519.879 288.407 519.693 288.557 519.543C288.715 519.385 288.911 519.305 289.145 519.305C289.387 519.305 289.588 519.385 289.747 519.543C289.905 519.693 289.985 519.879 289.985 520.103C289.985 520.318 289.905 520.505 289.747 520.663C289.588 520.813 289.387 520.887 289.145 520.887ZM295.664 511.955H301.012V512.907H296.77V515.833H300.718V516.785H296.77V520.761H295.664V511.955ZM305.268 513.901C306.201 513.901 306.952 514.205 307.522 514.811C308.1 515.418 308.39 516.286 308.39 517.415C308.39 518.535 308.1 519.399 307.522 520.005C306.952 520.612 306.201 520.915 305.268 520.915C304.334 520.915 303.578 520.612 303 520.005C302.43 519.399 302.146 518.535 302.146 517.415C302.146 516.286 302.43 515.418 303 514.811C303.578 514.205 304.334 513.901 305.268 513.901ZM307.27 517.415C307.27 516.613 307.102 515.987 306.766 515.539C306.43 515.082 305.935 514.853 305.282 514.853C304.638 514.853 304.143 515.082 303.798 515.539C303.452 515.987 303.28 516.613 303.28 517.415C303.28 518.209 303.443 518.834 303.77 519.291C304.096 519.739 304.582 519.963 305.226 519.963C305.879 519.963 306.383 519.739 306.738 519.291C307.092 518.834 307.27 518.209 307.27 517.415ZM313.482 515.007C312.428 515.007 311.882 515.838 311.844 517.499V520.761H310.738V514.055H311.844V515.343C312.18 514.41 312.773 513.943 313.622 513.943C313.893 513.943 314.15 513.985 314.392 514.069L314.336 515.147C314.056 515.054 313.772 515.007 313.482 515.007ZM316.39 520.831C316.176 520.813 315.998 520.743 315.858 520.621C315.718 520.5 315.648 520.337 315.648 520.131C315.648 519.926 315.718 519.753 315.858 519.613C316.008 519.473 316.213 519.403 316.474 519.403C316.745 519.403 316.969 519.511 317.146 519.725C317.324 519.931 317.412 520.192 317.412 520.509C317.412 520.827 317.31 521.149 317.104 521.475C316.899 521.811 316.586 522.082 316.166 522.287L315.34 521.881C315.919 521.601 316.269 521.251 316.39 520.831ZM159.021 535.063C159.469 534.289 160.123 533.901 160.981 533.901C161.84 533.901 162.554 534.223 163.123 534.867C163.693 535.502 163.977 536.347 163.977 537.401C163.977 538.447 163.688 539.296 163.109 539.949C162.531 540.593 161.826 540.915 160.995 540.915C160.547 540.915 160.141 540.803 159.777 540.579C159.423 540.355 159.143 540.024 158.937 539.585L158.685 540.761H157.915V531.227H159.021V535.063ZM160.911 534.881C160.379 534.881 159.936 535.054 159.581 535.399C159.227 535.735 159.04 536.207 159.021 536.813V537.905C159.021 538.521 159.203 539.016 159.567 539.389C159.941 539.753 160.389 539.935 160.911 539.935C161.434 539.935 161.887 539.707 162.269 539.249C162.652 538.783 162.843 538.167 162.843 537.401C162.843 536.636 162.652 536.025 162.269 535.567C161.896 535.11 161.443 534.881 160.911 534.881ZM168.651 540.019C169.575 540.019 170.103 539.613 170.233 538.801H171.367C171.265 539.473 170.966 539.996 170.471 540.369C169.986 540.733 169.379 540.915 168.651 540.915C167.755 540.915 167.027 540.598 166.467 539.963C165.907 539.319 165.627 538.465 165.627 537.401C165.627 536.337 165.907 535.488 166.467 534.853C167.037 534.219 167.788 533.901 168.721 533.901C169.664 533.901 170.364 534.265 170.821 534.993C171.288 535.721 171.451 536.608 171.311 537.653H166.733C166.733 538.344 166.901 538.913 167.237 539.361C167.573 539.8 168.045 540.019 168.651 540.019ZM169.463 534.951C169.249 534.839 168.987 534.783 168.679 534.783C168.11 534.783 167.657 534.979 167.321 535.371C166.995 535.754 166.803 536.235 166.747 536.813H170.317C170.317 535.88 170.033 535.259 169.463 534.951ZM177.044 532.165C176.736 532.044 176.494 531.983 176.316 531.983C175.99 531.983 175.733 532.063 175.546 532.221C175.36 532.38 175.266 532.66 175.266 533.061V534.069H176.652V534.825H175.266V540.761H174.174V534.825H173.068V534.069H174.174V533.047C174.174 532.385 174.356 531.899 174.72 531.591C175.084 531.274 175.504 531.115 175.98 531.115C176.456 531.115 176.876 531.176 177.24 531.297L177.044 532.165ZM181.253 533.901C182.186 533.901 182.938 534.205 183.507 534.811C184.086 535.418 184.375 536.286 184.375 537.415C184.375 538.535 184.086 539.399 183.507 540.005C182.938 540.612 182.186 540.915 181.253 540.915C180.32 540.915 179.564 540.612 178.985 540.005C178.416 539.399 178.131 538.535 178.131 537.415C178.131 536.286 178.416 535.418 178.985 534.811C179.564 534.205 180.32 533.901 181.253 533.901ZM183.255 537.415C183.255 536.613 183.087 535.987 182.751 535.539C182.415 535.082 181.92 534.853 181.267 534.853C180.623 534.853 180.128 535.082 179.783 535.539C179.438 535.987 179.265 536.613 179.265 537.415C179.265 538.209 179.428 538.834 179.755 539.291C180.082 539.739 180.567 539.963 181.211 539.963C181.864 539.963 182.368 539.739 182.723 539.291C183.078 538.834 183.255 538.209 183.255 537.415ZM189.468 535.007C188.413 535.007 187.867 535.838 187.83 537.499V540.761H186.724V534.055H187.83V535.343C188.166 534.41 188.758 533.943 189.608 533.943C189.878 533.943 190.135 533.985 190.378 534.069L190.322 535.147C190.042 535.054 189.757 535.007 189.468 535.007ZM194.63 540.019C195.554 540.019 196.081 539.613 196.212 538.801H197.346C197.243 539.473 196.944 539.996 196.45 540.369C195.964 540.733 195.358 540.915 194.63 540.915C193.734 540.915 193.006 540.598 192.446 539.963C191.886 539.319 191.606 538.465 191.606 537.401C191.606 536.337 191.886 535.488 192.446 534.853C193.015 534.219 193.766 533.901 194.7 533.901C195.642 533.901 196.342 534.265 196.8 534.993C197.266 535.721 197.43 536.608 197.29 537.653H192.712C192.712 538.344 192.88 538.913 193.216 539.361C193.552 539.8 194.023 540.019 194.63 540.019ZM195.442 534.951C195.227 534.839 194.966 534.783 194.658 534.783C194.088 534.783 193.636 534.979 193.3 535.371C192.973 535.754 192.782 536.235 192.726 536.813H196.296C196.296 535.88 196.011 535.259 195.442 534.951ZM203.347 534.069L204.971 539.403L206.567 534.391H207.491L209.073 539.459L210.711 534.069H211.803L209.619 540.761H208.541L207.001 536.071L205.489 540.761H204.425L202.199 534.069H203.347ZM216.065 540.019C216.989 540.019 217.517 539.613 217.647 538.801H218.781C218.679 539.473 218.38 539.996 217.885 540.369C217.4 540.733 216.793 540.915 216.065 540.915C215.169 540.915 214.441 540.598 213.881 539.963C213.321 539.319 213.041 538.465 213.041 537.401C213.041 536.337 213.321 535.488 213.881 534.853C214.451 534.219 215.202 533.901 216.135 533.901C217.078 533.901 217.778 534.265 218.235 534.993C218.702 535.721 218.865 536.608 218.725 537.653H214.147C214.147 538.344 214.315 538.913 214.651 539.361C214.987 539.8 215.459 540.019 216.065 540.019ZM216.877 534.951C216.663 534.839 216.401 534.783 216.093 534.783C215.524 534.783 215.071 534.979 214.735 535.371C214.409 535.754 214.217 536.235 214.161 536.813H217.731C217.731 535.88 217.447 535.259 216.877 534.951ZM225.832 535.091C226.271 534.298 226.924 533.901 227.792 533.901C228.67 533.901 229.398 534.223 229.976 534.867C230.564 535.511 230.858 536.361 230.858 537.415C230.858 538.47 230.564 539.319 229.976 539.963C229.388 540.598 228.665 540.915 227.806 540.915C226.948 540.915 226.313 540.593 225.902 539.949V544.051H224.796V534.069H225.706L225.832 535.091ZM227.75 539.935C228.273 539.935 228.73 539.711 229.122 539.263C229.524 538.815 229.724 538.204 229.724 537.429C229.724 536.645 229.533 536.025 229.15 535.567C228.777 535.11 228.32 534.881 227.778 534.881C227.237 534.881 226.794 535.054 226.448 535.399C226.103 535.735 225.921 536.193 225.902 536.771V538.045C225.902 538.633 226.08 539.095 226.434 539.431C226.789 539.767 227.228 539.935 227.75 539.935ZM236.089 535.007C235.034 535.007 234.488 535.838 234.451 537.499V540.761H233.345V534.055H234.451V535.343C234.787 534.41 235.379 533.943 236.229 533.943C236.499 533.943 236.756 533.985 236.999 534.069L236.943 535.147C236.663 535.054 236.378 535.007 236.089 535.007ZM241.349 533.901C242.282 533.901 243.034 534.205 243.603 534.811C244.182 535.418 244.471 536.286 244.471 537.415C244.471 538.535 244.182 539.399 243.603 540.005C243.034 540.612 242.282 540.915 241.349 540.915C240.416 540.915 239.66 540.612 239.081 540.005C238.512 539.399 238.227 538.535 238.227 537.415C238.227 536.286 238.512 535.418 239.081 534.811C239.66 534.205 240.416 533.901 241.349 533.901ZM243.351 537.415C243.351 536.613 243.183 535.987 242.847 535.539C242.511 535.082 242.016 534.853 241.363 534.853C240.719 534.853 240.224 535.082 239.879 535.539C239.534 535.987 239.361 536.613 239.361 537.415C239.361 538.209 239.524 538.834 239.851 539.291C240.178 539.739 240.663 539.963 241.307 539.963C241.96 539.963 242.464 539.739 242.819 539.291C243.174 538.834 243.351 538.209 243.351 537.415ZM249.059 533.901C249.853 533.901 250.483 534.107 250.949 534.517C251.416 534.919 251.719 535.423 251.859 536.029L250.739 536.127C250.618 535.735 250.422 535.432 250.151 535.217C249.881 534.993 249.582 534.881 249.255 534.881C248.658 534.881 248.173 535.105 247.799 535.553C247.435 536.001 247.253 536.613 247.253 537.387C247.253 538.153 247.431 538.769 247.785 539.235C248.149 539.702 248.597 539.935 249.129 539.935C249.671 539.935 250.072 539.814 250.333 539.571C250.604 539.319 250.739 538.965 250.739 538.507H251.873C251.873 539.226 251.621 539.809 251.117 540.257C250.623 540.696 249.974 540.915 249.171 540.915C248.322 540.915 247.599 540.593 247.001 539.949C246.413 539.305 246.119 538.451 246.119 537.387C246.119 536.314 246.413 535.465 247.001 534.839C247.589 534.214 248.275 533.901 249.059 533.901ZM256.598 540.019C257.522 540.019 258.05 539.613 258.18 538.801H259.314C259.212 539.473 258.913 539.996 258.418 540.369C257.933 540.733 257.326 540.915 256.598 540.915C255.702 540.915 254.974 540.598 254.414 539.963C253.854 539.319 253.574 538.465 253.574 537.401C253.574 536.337 253.854 535.488 254.414 534.853C254.984 534.219 255.735 533.901 256.668 533.901C257.611 533.901 258.311 534.265 258.768 534.993C259.235 535.721 259.398 536.608 259.258 537.653H254.68C254.68 538.344 254.848 538.913 255.184 539.361C255.52 539.8 255.992 540.019 256.598 540.019ZM257.41 534.951C257.196 534.839 256.934 534.783 256.626 534.783C256.057 534.783 255.604 534.979 255.268 535.371C254.942 535.754 254.75 536.235 254.694 536.813H258.264C258.264 535.88 257.98 535.259 257.41 534.951ZM264.054 540.019C264.978 540.019 265.505 539.613 265.636 538.801H266.77C266.667 539.473 266.368 539.996 265.874 540.369C265.388 540.733 264.782 540.915 264.054 540.915C263.158 540.915 262.43 540.598 261.87 539.963C261.31 539.319 261.03 538.465 261.03 537.401C261.03 536.337 261.31 535.488 261.87 534.853C262.439 534.219 263.19 533.901 264.124 533.901C265.066 533.901 265.766 534.265 266.224 534.993C266.69 535.721 266.854 536.608 266.714 537.653H262.136C262.136 538.344 262.304 538.913 262.64 539.361C262.976 539.8 263.447 540.019 264.054 540.019ZM264.866 534.951C264.651 534.839 264.39 534.783 264.082 534.783C263.512 534.783 263.06 534.979 262.724 535.371C262.397 535.754 262.206 536.235 262.15 536.813H265.72C265.72 535.88 265.435 535.259 264.866 534.951ZM273.581 535.063V531.227H274.673V540.761H273.777L273.637 539.641C273.422 540.061 273.137 540.379 272.783 540.593C272.428 540.808 272.041 540.915 271.621 540.915C270.771 540.915 270.057 540.589 269.479 539.935C268.909 539.282 268.625 538.433 268.625 537.387C268.625 536.333 268.905 535.488 269.465 534.853C270.034 534.219 270.748 533.901 271.607 533.901C272.475 533.901 273.133 534.289 273.581 535.063ZM271.677 534.881C271.135 534.881 270.678 535.11 270.305 535.567C269.941 536.025 269.759 536.636 269.759 537.401C269.759 538.167 269.945 538.783 270.319 539.249C270.692 539.707 271.14 539.935 271.663 539.935C272.185 539.935 272.629 539.763 272.993 539.417C273.366 539.063 273.562 538.591 273.581 538.003V536.911C273.581 536.286 273.399 535.791 273.035 535.427C272.671 535.063 272.218 534.881 271.677 534.881ZM284.595 532.165C284.287 532.044 284.044 531.983 283.867 531.983C283.54 531.983 283.284 532.063 283.097 532.221C282.91 532.38 282.817 532.66 282.817 533.061V534.069H284.203V534.825H282.817V540.761H281.725V534.825H280.619V534.069H281.725V533.047C281.725 532.385 281.907 531.899 282.271 531.591C282.635 531.274 283.055 531.115 283.531 531.115C284.007 531.115 284.427 531.176 284.791 531.297L284.595 532.165ZM290.946 539.431C290.489 540.402 289.747 540.887 288.72 540.887C287.964 540.887 287.353 540.677 286.886 540.257C286.429 539.837 286.2 539.189 286.2 538.311V534.055H287.306V538.227C287.306 539.357 287.829 539.921 288.874 539.921C289.481 539.921 289.971 539.688 290.344 539.221C290.727 538.755 290.927 538.157 290.946 537.429V534.055H292.052V540.761H290.946V539.431ZM294.954 540.887C294.721 540.887 294.525 540.813 294.366 540.663C294.217 540.505 294.142 540.318 294.142 540.103C294.142 539.879 294.217 539.693 294.366 539.543C294.525 539.385 294.721 539.305 294.954 539.305C295.197 539.305 295.397 539.385 295.556 539.543C295.715 539.693 295.794 539.879 295.794 540.103C295.794 540.318 295.715 540.505 295.556 540.663C295.397 540.813 295.197 540.887 294.954 540.887Z" fill="white"/>
<path opacity="0.749989" d="M230.704 688.388C230.704 690.398 228.908 692.164 226.516 692.164C224.124 692.164 222.328 690.398 222.328 688.388C222.328 686.379 224.124 684.612 226.516 684.612C228.908 684.612 230.704 686.379 230.704 688.388Z" stroke="white" stroke-width="2"/>
<path opacity="0.749989" d="M253.532 688.388C253.532 690.398 251.736 692.164 249.344 692.164C246.952 692.164 245.156 690.398 245.156 688.388C245.156 686.379 246.952 684.612 249.344 684.612C251.736 684.612 253.532 686.379 253.532 688.388Z" stroke="white" stroke-width="2"/>
<path fill-rule="evenodd" clip-rule="evenodd" d="M203.692 693.164C206.557 693.164 208.879 691.026 208.879 688.388C208.879 685.751 206.557 683.612 203.692 683.612C200.827 683.612 198.504 685.751 198.504 688.388C198.504 691.026 200.827 693.164 203.692 693.164Z" fill="#FB7C6E"/>
<path d="M230.242 306.597C228.002 305.041 224.644 305.041 222.964 306.597C217.367 310.741 170.344 350.123 170.344 377.585C170.344 406.085 195.535 429.403 226.323 429.403C257.111 429.403 282.302 406.085 282.302 377.585C282.302 350.123 235.28 310.741 230.242 306.597Z" fill="white"/>
<path d="M257.672 368.258L229.683 347.532C227.444 345.977 224.645 345.977 222.965 347.532L194.976 368.258C191.058 371.367 193.297 377.585 198.335 377.585H203.933V393.13C203.933 396.24 206.172 398.312 209.53 398.312H243.118C246.476 398.312 248.715 396.24 248.715 393.13V377.585H254.313C259.351 377.585 261.59 371.367 257.672 368.258Z" fill="url(#paint2_linear)"/>
<mask id="path-11-outside-1" maskUnits="userSpaceOnUse" x="72.3906" y="140.823" width="308" height="580" fill="black">
<rect fill="white" x="72.3906" y="140.823" width="308" height="580"/>
<path fill-rule="evenodd" clip-rule="evenodd" d="M74.3906 200.023C74.3906 180.001 74.3906 169.99 78.2871 162.343C81.7146 155.616 87.1837 150.147 93.9105 146.719C101.558 142.823 111.569 142.823 131.591 142.823H320.718C340.74 142.823 350.751 142.823 358.398 146.719C365.125 150.147 370.594 155.616 374.022 162.343C377.918 169.99 377.918 180.001 377.918 200.023V660.907C377.918 680.929 377.918 690.94 374.022 698.587C370.594 705.314 365.125 710.783 358.398 714.21C350.751 718.107 340.74 718.107 320.718 718.107H131.591C111.569 718.107 101.558 718.107 93.9105 714.21C87.1837 710.783 81.7146 705.314 78.2871 698.587C74.3906 690.94 74.3906 680.929 74.3906 660.907V200.023ZM86.6656 183.129C86.6656 166.346 100.271 152.741 117.053 152.741H149.186C149.167 152.946 149.157 153.153 149.157 153.362V165.135C149.157 172.835 155.399 179.077 163.099 179.077H289.21C296.91 179.077 303.152 172.835 303.152 165.135V153.362C303.152 153.153 303.142 152.946 303.123 152.741H335.256C352.038 152.741 365.643 166.346 365.643 183.129V677.801C365.643 694.583 352.038 708.188 335.256 708.188H117.053C100.271 708.188 86.6656 694.583 86.6656 677.801V183.129Z"/>
</mask>
<path fill-rule="evenodd" clip-rule="evenodd" d="M74.3906 200.023C74.3906 180.001 74.3906 169.99 78.2871 162.343C81.7146 155.616 87.1837 150.147 93.9105 146.719C101.558 142.823 111.569 142.823 131.591 142.823H320.718C340.74 142.823 350.751 142.823 358.398 146.719C365.125 150.147 370.594 155.616 374.022 162.343C377.918 169.99 377.918 180.001 377.918 200.023V660.907C377.918 680.929 377.918 690.94 374.022 698.587C370.594 705.314 365.125 710.783 358.398 714.21C350.751 718.107 340.74 718.107 320.718 718.107H131.591C111.569 718.107 101.558 718.107 93.9105 714.21C87.1837 710.783 81.7146 705.314 78.2871 698.587C74.3906 690.94 74.3906 680.929 74.3906 660.907V200.023ZM86.6656 183.129C86.6656 166.346 100.271 152.741 117.053 152.741H149.186C149.167 152.946 149.157 153.153 149.157 153.362V165.135C149.157 172.835 155.399 179.077 163.099 179.077H289.21C296.91 179.077 303.152 172.835 303.152 165.135V153.362C303.152 153.153 303.142 152.946 303.123 152.741H335.256C352.038 152.741 365.643 166.346 365.643 183.129V677.801C365.643 694.583 352.038 708.188 335.256 708.188H117.053C100.271 708.188 86.6656 694.583 86.6656 677.801V183.129Z" fill="url(#paint3_linear)"/>
<path d="M78.2871 162.343L76.6945 161.531L76.6945 161.531L78.2871 162.343ZM93.9105 146.719L94.722 148.312L94.722 148.312L93.9105 146.719ZM358.398 146.719L359.21 145.127L359.21 145.127L358.398 146.719ZM374.022 162.343L375.614 161.531L375.614 161.531L374.022 162.343ZM374.022 698.587L375.614 699.398L375.614 699.398L374.022 698.587ZM358.398 714.21L359.21 715.803L359.21 715.803L358.398 714.21ZM93.9105 714.21L93.099 715.803L93.099 715.803L93.9105 714.21ZM78.2871 698.587L79.8798 697.775L79.8798 697.775L78.2871 698.587ZM149.186 152.741L150.966 152.912L151.153 150.954H149.186V152.741ZM303.123 152.741V150.954H301.156L301.343 152.912L303.123 152.741ZM76.6945 161.531C74.5964 165.649 73.5922 170.325 73.0961 176.397C72.6017 182.448 72.6031 190.041 72.6031 200.023H76.1781C76.1781 189.982 76.1795 182.56 76.6593 176.688C77.1373 170.837 78.0814 166.684 79.8798 163.154L76.6945 161.531ZM93.099 145.127C86.0358 148.725 80.2933 154.468 76.6945 161.531L79.8798 163.154C83.1359 156.764 88.3315 151.568 94.722 148.312L93.099 145.127ZM131.591 141.035C121.609 141.035 114.016 141.034 107.965 141.528C101.893 142.024 97.2166 143.029 93.099 145.127L94.722 148.312C98.2517 146.513 102.405 145.569 108.256 145.091C114.127 144.612 121.55 144.61 131.591 144.61V141.035ZM320.718 141.035H131.591V144.61H320.718V141.035ZM359.21 145.127C355.092 143.029 350.416 142.024 344.344 141.528C338.293 141.034 330.7 141.035 320.718 141.035V144.61C330.759 144.61 338.181 144.612 344.053 145.091C349.904 145.569 354.057 146.513 357.587 148.312L359.21 145.127ZM375.614 161.531C372.015 154.468 366.273 148.725 359.21 145.127L357.587 148.312C363.977 151.568 369.173 156.764 372.429 163.154L375.614 161.531ZM379.706 200.023C379.706 190.041 379.707 182.448 379.213 176.397C378.717 170.325 377.712 165.649 375.614 161.531L372.429 163.154C374.227 166.684 375.172 170.837 375.65 176.688C376.129 182.559 376.131 189.982 376.131 200.023H379.706ZM379.706 660.907V200.023H376.131V660.907H379.706ZM375.614 699.398C377.712 695.281 378.717 690.605 379.213 684.533C379.707 678.482 379.706 670.888 379.706 660.907H376.131C376.131 670.947 376.129 678.37 375.65 684.242C375.172 690.093 374.227 694.246 372.429 697.775L375.614 699.398ZM359.21 715.803C366.273 712.204 372.015 706.462 375.614 699.398L372.429 697.775C369.173 704.166 363.977 709.362 357.587 712.618L359.21 715.803ZM320.718 719.894C330.7 719.894 338.293 719.896 344.344 719.401C350.416 718.905 355.092 717.901 359.21 715.803L357.587 712.618C354.057 714.416 349.904 715.36 344.053 715.838C338.181 716.318 330.759 716.319 320.718 716.319V719.894ZM131.591 719.894H320.718V716.319H131.591V719.894ZM93.099 715.803C97.2166 717.901 101.893 718.905 107.965 719.401C114.016 719.896 121.609 719.894 131.591 719.894V716.319C121.55 716.319 114.127 716.318 108.256 715.838C102.405 715.36 98.2517 714.416 94.722 712.618L93.099 715.803ZM76.6945 699.398C80.2933 706.462 86.0358 712.204 93.099 715.803L94.722 712.618C88.3315 709.362 83.1359 704.166 79.8798 697.775L76.6945 699.398ZM72.6031 660.907C72.6031 670.888 72.6017 678.482 73.0961 684.533C73.5922 690.605 74.5964 695.281 76.6945 699.398L79.8798 697.775C78.0814 694.246 77.1373 690.093 76.6593 684.242C76.1795 678.37 76.1781 670.947 76.1781 660.907H72.6031ZM72.6031 200.023V660.907H76.1781V200.023H72.6031ZM117.053 150.954C99.2834 150.954 84.8781 165.359 84.8781 183.129H88.4531C88.4531 167.334 101.258 154.529 117.053 154.529V150.954ZM149.186 150.954H117.053V154.529H149.186V150.954ZM150.944 153.362C150.944 153.21 150.951 153.059 150.966 152.912L147.407 152.571C147.382 152.832 147.369 153.096 147.369 153.362H150.944ZM150.944 165.135V153.362H147.369V165.135H150.944ZM163.099 177.29C156.386 177.29 150.944 171.848 150.944 165.135H147.369C147.369 173.822 154.412 180.865 163.099 180.865V177.29ZM289.21 177.29H163.099V180.865H289.21V177.29ZM301.365 165.135C301.365 171.848 295.923 177.29 289.21 177.29V180.865C297.897 180.865 304.94 173.822 304.94 165.135H301.365ZM301.365 153.362V165.135H304.94V153.362H301.365ZM301.343 152.912C301.357 153.059 301.365 153.21 301.365 153.362H304.94C304.94 153.096 304.927 152.832 304.902 152.571L301.343 152.912ZM335.256 150.954H303.123V154.529H335.256V150.954ZM367.431 183.129C367.431 165.359 353.025 150.954 335.256 150.954V154.529C351.051 154.529 363.856 167.334 363.856 183.129H367.431ZM367.431 677.801V183.129H363.856V677.801H367.431ZM335.256 709.976C353.025 709.976 367.431 695.571 367.431 677.801H363.856C363.856 693.596 351.051 706.401 335.256 706.401V709.976ZM117.053 709.976H335.256V706.401H117.053V709.976ZM84.8781 677.801C84.8781 695.571 99.2834 709.976 117.053 709.976V706.401C101.258 706.401 88.4531 693.596 88.4531 677.801H84.8781ZM84.8781 183.129V677.801H88.4531V183.129H84.8781Z" fill="black" fill-opacity="0.03" mask="url(#path-11-outside-1)"/>
<defs>
<filter id="filter0_f" x="0.508369" y="91.5006" width="446.83" height="697.059" filterUnits="userSpaceOnUse" color-interpolation-filters="sRGB">
<feFlood flood-opacity="0" result="BackgroundImageFix"/>
<feBlend mode="normal" in="SourceGraphic" in2="BackgroundImageFix" result="shape"/>
<feGaussianBlur stdDeviation="24.2946" result="effect1_foregroundBlur"/>
</filter>
<linearGradient id="paint0_linear" x1="49.0977" y1="140.09" x2="49.0977" y2="739.97" gradientUnits="userSpaceOnUse">
<stop stop-color="#ABB2C4" stop-opacity="0.238649"/>
<stop offset="1" stop-color="#737A91" stop-opacity="0.331635"/>
</linearGradient>
<linearGradient id="paint1_linear" x1="-163.097" y1="493.342" x2="532.274" y2="1001.97" gradientUnits="userSpaceOnUse">
<stop stop-color="#2644FF"/>
<stop offset="1" stop-color="#A600C2"/>
</linearGradient>
<linearGradient id="paint2_linear" x1="230.297" y1="413.018" x2="260.387" y2="367.116" gradientUnits="userSpaceOnUse">
<stop stop-color="#FB7C6E"/>
<stop offset="1" stop-color="#FFA981"/>
</linearGradient>
<linearGradient id="paint3_linear" x1="-77.3732" y1="430.465" x2="397.491" y2="681.01" gradientUnits="userSpaceOnUse">
<stop stop-color="white"/>
<stop offset="1" stop-color="#FEFEFE"/>
</linearGradient>
</defs>
</svg>
